<svg width="185" height="182" viewBox="0 0 185 182" fill="none" xmlns="http://www.w3.org/2000/svg">
<path d="M27.0419 165.168C63.1139 186.529 121.593 186.533 157.686 165.168C193.779 143.803 193.754 109.172 157.686 87.8108C121.618 66.4499 63.1349 66.4499 27.0629 87.8108C-9.00907 109.172 -9.02587 143.807 27.0419 165.168Z" fill="#F5F5F5"/>
<path d="M153.598 100.22C147.995 102.892 138.896 102.892 133.296 100.22C127.697 97.5481 127.688 93.2129 133.296 90.5581C138.904 87.9032 147.999 87.8864 153.598 90.5581C159.198 93.2297 159.206 97.5439 153.598 100.22Z" fill="#E0E0E0"/>
<path d="M169.448 123.66L166.621 122.043C166.621 122.043 165.264 114.565 166.276 108.134C167.705 99.094 173.859 95.977 176.094 96.876C178.328 97.775 178.858 100.451 174.833 105.672C172.439 108.756 169.364 115.271 169.448 123.66Z" fill="#24B6AF"/>
<g opacity="0.1">
<path d="M169.448 123.66L166.621 122.043C166.621 122.043 165.264 114.565 166.276 108.134C167.705 99.094 173.859 95.977 176.094 96.876C178.328 97.775 178.858 100.451 174.833 105.672C172.439 108.756 169.364 115.271 169.448 123.66Z" fill="black"/>
</g>
<path d="M168.423 120.068H168.452C168.505 120.061 168.553 120.033 168.585 119.991C168.618 119.948 168.632 119.895 168.625 119.842C167.457 111.377 170.859 102.106 174.682 98.3673C174.704 98.3497 174.722 98.3276 174.735 98.3025C174.748 98.2774 174.756 98.2499 174.758 98.2217C174.76 98.1934 174.755 98.1652 174.745 98.1387C174.735 98.1122 174.72 98.0881 174.7 98.068C174.68 98.0478 174.656 98.0321 174.63 98.0218C174.604 98.0115 174.576 98.0068 174.547 98.0081C174.519 98.0094 174.491 98.0166 174.466 98.0293C174.441 98.0419 174.419 98.0598 174.401 98.0816C170.507 101.883 167.037 111.31 168.226 119.896C168.232 119.944 168.255 119.988 168.292 120.02C168.328 120.052 168.375 120.069 168.423 120.068Z" fill="white"/>
<path d="M177.303 128.197C177.749 128.453 178.669 127.89 179.021 127.655C179.627 127.243 180.116 126.682 180.441 126.025C180.806 125.28 180.931 124.441 180.798 123.622C180.724 123.196 180.622 122.775 180.492 122.362L180.139 121.123C179.993 120.719 179.93 120.291 179.954 119.863C180.063 119.022 180.815 118.418 181.5 117.905C182.256 117.342 183.046 116.594 183.042 115.574C182.986 114.781 182.67 114.029 182.143 113.435C181.655 112.818 181.076 112.272 180.635 111.617C180.286 111.163 180.104 110.604 180.118 110.033C180.167 109.682 180.285 109.345 180.467 109.041C180.88 108.409 181.242 107.744 181.55 107.054C181.798 106.34 181.765 105.454 181.206 104.954C180.956 104.771 180.672 104.639 180.37 104.567C180.069 104.495 179.756 104.484 179.45 104.534C178.87 104.606 178.313 104.802 177.816 105.11C176.194 106.008 175.27 107.928 173.552 108.621C172.864 108.836 172.162 109.006 171.452 109.13C171.1 109.196 170.766 109.335 170.471 109.537C170.176 109.74 169.926 110.002 169.738 110.306C169.108 111.566 170.275 113.12 169.834 114.46C169.44 115.645 168.289 116.095 167.646 117.166C167.382 117.637 167.276 118.18 167.343 118.716C167.398 119.621 167.619 120.508 167.994 121.333C168.414 122.154 168.894 122.944 169.431 123.694C169.477 123.685 177.232 128.155 177.303 128.197Z" fill="#24B6AF"/>
<path d="M172.725 125.748C172.751 125.747 172.778 125.741 172.802 125.731C172.827 125.72 172.849 125.704 172.867 125.684C172.886 125.665 172.9 125.642 172.909 125.617C172.919 125.591 172.923 125.565 172.922 125.538C172.59 117.527 176.362 108.684 179.106 106.113C179.124 106.095 179.139 106.073 179.149 106.049C179.159 106.025 179.164 105.999 179.164 105.973C179.164 105.947 179.159 105.921 179.149 105.896C179.139 105.872 179.124 105.85 179.106 105.832C179.087 105.813 179.065 105.798 179.04 105.788C179.016 105.778 178.989 105.773 178.963 105.773C178.936 105.773 178.91 105.778 178.885 105.788C178.861 105.798 178.839 105.813 178.82 105.832C176.018 108.453 172.17 117.443 172.519 125.576C172.526 125.625 172.551 125.669 172.589 125.701C172.627 125.733 172.675 125.749 172.725 125.748Z" fill="white"/>
<path d="M173.909 116.284C173.929 116.287 173.949 116.287 173.968 116.284C175.866 115.761 177.816 115.447 179.782 115.347C179.835 115.344 179.885 115.32 179.921 115.281C179.957 115.242 179.976 115.19 179.975 115.137C179.975 115.11 179.969 115.084 179.958 115.059C179.947 115.035 179.931 115.013 179.911 114.995C179.892 114.977 179.869 114.963 179.843 114.954C179.818 114.946 179.792 114.942 179.765 114.944C177.765 115.044 175.781 115.364 173.85 115.897C173.825 115.905 173.801 115.917 173.781 115.934C173.76 115.951 173.743 115.972 173.731 115.995C173.718 116.019 173.711 116.044 173.708 116.071C173.705 116.097 173.708 116.124 173.716 116.149C173.729 116.189 173.756 116.224 173.79 116.248C173.825 116.273 173.867 116.285 173.909 116.284Z" fill="white"/>
<path d="M17.9683 123.744L20.7954 122.127C20.7954 122.127 22.1522 114.645 21.1398 108.218C19.7116 99.178 13.5575 96.0569 11.3226 96.9558C9.08784 97.8548 8.55854 100.535 12.5829 105.756C14.9815 108.84 18.0439 115.355 17.9683 123.744Z" fill="#37474F"/>
<path d="M18.9764 120.14C18.9232 120.132 18.8754 120.103 18.8432 120.059C18.811 120.016 18.797 119.962 18.8042 119.909C19.9762 111.448 16.5694 102.173 12.7467 98.4387C12.7083 98.4014 12.6862 98.3503 12.6854 98.2967C12.6847 98.2432 12.7052 98.1915 12.7425 98.153C12.7798 98.1146 12.8309 98.0926 12.8845 98.0918C12.938 98.091 12.9897 98.1115 13.0282 98.1488C16.9223 101.955 20.3921 111.377 19.2033 119.968C19.2002 119.994 19.1918 120.02 19.1787 120.043C19.1655 120.066 19.1478 120.086 19.1266 120.102C19.1054 120.118 19.0812 120.13 19.0554 120.136C19.0296 120.143 19.0027 120.144 18.9764 120.14Z" fill="white"/>
<path d="M10.117 128.277C9.66754 128.533 8.74758 127.974 8.39471 127.735C7.78919 127.324 7.30008 126.764 6.97485 126.109C6.61036 125.364 6.48562 124.525 6.61779 123.706C6.6914 123.28 6.79385 122.859 6.92444 122.446L7.27731 121.207C7.42466 120.804 7.48757 120.375 7.46214 119.947C7.35292 119.106 6.60098 118.506 5.91626 117.993C5.16012 117.426 4.37038 116.678 4.37458 115.658C4.43073 114.867 4.74678 114.116 5.27354 113.524C5.76503 112.902 6.34054 112.356 6.78162 111.705C7.12836 111.251 7.31055 110.692 7.29831 110.121C7.25032 109.77 7.1317 109.433 6.94965 109.13C6.53598 108.488 6.17358 107.816 5.86585 107.117C5.618 106.403 5.65581 105.513 6.21031 105.017C6.46037 104.834 6.74446 104.702 7.04596 104.63C7.34746 104.558 7.66032 104.547 7.96623 104.597C8.54663 104.666 9.10459 104.863 9.60033 105.173C11.2218 106.071 12.146 107.991 13.8641 108.684C14.553 108.897 15.2545 109.067 15.9645 109.193C16.3165 109.258 16.6509 109.397 16.9461 109.599C17.2413 109.802 17.4908 110.064 17.6784 110.369C18.3127 111.629 17.1407 113.183 17.5818 114.519C17.9767 115.704 19.1277 116.158 19.7746 117.225C20.0358 117.697 20.1417 118.239 20.077 118.775C20.011 119.684 19.7805 120.573 19.3965 121.4C18.9759 122.221 18.4957 123.01 17.9599 123.761C17.9389 123.769 10.1842 128.239 10.117 128.277Z" fill="#455A64"/>
<path d="M14.7085 125.832C14.6546 125.83 14.6038 125.806 14.5668 125.767C14.5299 125.728 14.5099 125.676 14.511 125.622C14.8471 117.611 11.0706 108.768 8.3275 106.198C8.3087 106.179 8.29379 106.157 8.28361 106.132C8.27343 106.108 8.26819 106.081 8.26819 106.055C8.26819 106.028 8.27343 106.002 8.28361 105.977C8.29379 105.953 8.3087 105.931 8.3275 105.912C8.36586 105.875 8.41706 105.854 8.47033 105.854C8.5236 105.854 8.57479 105.875 8.61315 105.912C11.4151 108.533 15.2672 117.523 14.9143 125.655C14.9081 125.705 14.8835 125.751 14.8455 125.783C14.8074 125.816 14.7586 125.833 14.7085 125.832Z" fill="white"/>
<path d="M13.5154 116.359H13.4566C11.5563 115.834 9.60369 115.519 7.63437 115.422C7.58126 115.419 7.53147 115.395 7.49544 115.356C7.45941 115.317 7.43995 115.266 7.44114 115.212C7.44165 115.186 7.44756 115.159 7.45851 115.135C7.46946 115.111 7.48523 115.089 7.50486 115.071C7.52449 115.053 7.54757 115.039 7.57272 115.03C7.59787 115.021 7.62456 115.017 7.65118 115.019C9.65302 115.12 11.6378 115.44 13.5701 115.973C13.6206 115.989 13.6626 116.025 13.687 116.072C13.7114 116.119 13.7162 116.174 13.7003 116.225C13.6872 116.264 13.6624 116.297 13.6293 116.321C13.5962 116.345 13.5564 116.359 13.5154 116.359Z" fill="white"/>
<path d="M149.36 88.3023C149.578 86.1809 151.569 81.9465 154.061 79.4176C156.552 76.8888 160.219 75.2379 162.592 76.3343C164.802 77.355 164.239 80.3334 161.252 82.0389C158.265 83.7444 153.829 85.8196 152.25 89.1214L149.246 93.0785L149.36 88.3023Z" fill="#37474F"/>
<path d="M148.902 91.1924C148.935 91.1923 148.968 91.1817 148.995 91.1621C149.022 91.1425 149.043 91.1149 149.053 91.0832C151.225 83.9839 157.698 78.7035 161.34 77.7667C161.36 77.7618 161.379 77.753 161.396 77.7408C161.412 77.7287 161.426 77.7134 161.436 77.6958C161.447 77.6782 161.454 77.6587 161.457 77.6385C161.46 77.6182 161.459 77.5975 161.454 77.5777C161.449 77.5579 161.44 77.5393 161.428 77.5229C161.416 77.5066 161.4 77.493 161.383 77.4828C161.365 77.4725 161.345 77.466 161.325 77.4636C161.305 77.4611 161.284 77.4628 161.265 77.4685C157.551 78.422 150.96 83.7696 148.755 90.9907C148.749 91.0103 148.747 91.0309 148.749 91.0512C148.752 91.0715 148.758 91.0912 148.767 91.1091C148.777 91.1271 148.79 91.1429 148.806 91.1558C148.822 91.1686 148.84 91.1782 148.86 91.184L148.902 91.1924Z" fill="white"/>
<path d="M149.498 95.9392C149.965 94.784 151.624 92.9651 154.153 91.583C156.946 90.0582 160.332 89.5709 161.235 88.2518C162.323 86.6639 161.072 84.929 158.358 84.9836C155.644 85.0383 150.557 88.2014 149.234 93.6246L149.498 95.9392Z" fill="#455A64"/>
<path d="M149.112 94.637C149.142 94.6372 149.172 94.6285 149.197 94.6121C149.223 94.5957 149.243 94.5722 149.255 94.5446C152.12 88.5711 157.081 86.8866 159.307 86.8278C159.348 86.8256 159.387 86.8079 159.415 86.7782C159.443 86.7484 159.459 86.7091 159.459 86.6682C159.457 86.6474 159.45 86.6273 159.44 86.6091C159.43 86.5909 159.416 86.575 159.4 86.5624C159.383 86.5498 159.364 86.5407 159.344 86.5358C159.324 86.5309 159.303 86.5302 159.282 86.5337C156.825 86.5967 151.885 88.3275 148.957 94.427C148.947 94.4457 148.942 94.466 148.941 94.4868C148.94 94.5076 148.943 94.5284 148.95 94.548C148.957 94.5676 148.968 94.5856 148.982 94.6009C148.996 94.6161 149.013 94.6284 149.032 94.637H149.112Z" fill="white"/>
<path d="M19.3041 138.14L65.1513 164.605C65.715 164.891 66.3381 165.04 66.9702 165.04C67.6023 165.04 68.2255 164.891 68.7891 164.605L155.59 114.481C156.594 113.902 156.594 112.961 155.59 112.381L109.742 85.9162C109.179 85.6282 108.556 85.4781 107.923 85.4781C107.291 85.4781 106.668 85.6282 106.105 85.9162L19.3041 136.04C18.3001 136.619 18.3001 137.56 19.3041 138.14Z" fill="#37474F"/>
<path d="M44.8238 149.885C45.605 150.281 46.4685 150.487 47.3442 150.487C48.22 150.487 49.0834 150.281 49.8647 149.885C51.2593 149.079 51.2593 147.785 49.8647 146.966C49.0828 146.572 48.2196 146.367 47.3442 146.367C46.4688 146.367 45.6056 146.572 44.8238 146.966C43.4291 147.772 43.4291 149.079 44.8238 149.885Z" fill="#263238"/>
<path d="M65.1513 164.605L19.3041 138.14C18.4051 137.619 18.3127 136.813 19.0227 136.233C18.5742 136.588 18.2056 137.033 17.9407 137.539C17.6758 138.046 17.5206 138.603 17.4852 139.174V140.883C17.5197 141.514 17.7023 142.128 18.0183 142.676C18.3343 143.223 18.7748 143.688 19.3041 144.034L65.1513 170.499C65.7119 170.791 66.338 170.936 66.9702 170.919V165.042C66.3365 165.054 65.7103 164.904 65.1513 164.605Z" fill="#455A64"/>
<path d="M155.59 120.392C156.119 120.046 156.559 119.581 156.875 119.034C157.191 118.487 157.374 117.872 157.409 117.241V115.519C157.374 114.948 157.219 114.391 156.954 113.885C156.689 113.378 156.32 112.933 155.871 112.578C156.581 113.158 156.489 113.965 155.59 114.481L68.7892 164.605C68.2284 164.897 67.6024 165.042 66.9702 165.025V170.969C67.6024 170.986 68.2284 170.841 68.7892 170.549L155.59 120.392Z" fill="#263238"/>
<path d="M74.4266 158.136L32.2299 133.771C31.6292 133.427 31.6292 132.86 32.2299 132.511L101.681 92.4148C102.019 92.2429 102.392 92.1533 102.771 92.1533C103.15 92.1533 103.524 92.2429 103.861 92.4148L146.075 116.779C146.676 117.128 146.676 117.691 146.075 118.039L76.5942 158.174C76.255 158.337 75.8823 158.419 75.5059 158.412C75.1295 158.405 74.7599 158.311 74.4266 158.136Z" fill="#FAFAFA"/>
<path d="M70.9862 152.213L39.0603 133.767C38.4554 133.418 38.4554 132.856 39.0603 132.507L40.2869 131.797C40.6253 131.625 40.9996 131.535 41.3791 131.535C41.7587 131.535 42.1329 131.625 42.4713 131.797L74.3972 150.243C75.0021 150.587 75.0021 151.154 74.3972 151.503L73.1664 152.213C72.8285 152.384 72.455 152.473 72.0763 152.473C71.6975 152.473 71.324 152.384 70.9862 152.213Z" fill="#E6E6E6"/>
<path d="M74.33 153.511L76.653 152.171C76.796 152.095 76.9628 152.076 77.119 152.119C77.2752 152.162 77.4091 152.263 77.4931 152.402L78.5685 154.267C78.7408 154.569 78.6063 154.758 78.2619 154.687L74.4266 153.948C74.0611 153.88 74.0275 153.687 74.33 153.511Z" fill="#24B6AF"/>
<path d="M100.232 97.1785C101.026 96.7765 101.903 96.5671 102.792 96.5671C103.682 96.5671 104.559 96.7765 105.353 97.1785C106.768 97.9934 106.764 99.3166 105.353 100.119C104.559 100.521 103.682 100.73 102.792 100.73C101.903 100.73 101.026 100.521 100.232 100.119C98.8204 99.3208 98.8204 97.9976 100.232 97.1785Z" fill="#E6E6E6"/>
<path d="M132.418 114.775C133.019 115.124 133.019 115.687 132.418 116.036L126.067 119.72C125.728 119.892 125.354 119.981 124.974 119.981C124.595 119.981 124.221 119.892 123.882 119.72L103.882 108.176C103.282 107.827 103.282 107.264 103.882 106.916L109.616 103.606L107.911 100.665L132.418 114.775Z" fill="#E6E6E6"/>
<path d="M111.536 105.135L129.217 115.343C129.515 115.515 129.57 115.763 129.335 115.905C129.179 115.97 129.01 115.997 128.841 115.984C128.673 115.972 128.51 115.92 128.364 115.834L110.683 105.626C110.381 105.454 110.331 105.206 110.566 105.068C110.722 105.002 110.89 104.974 111.059 104.986C111.227 104.998 111.391 105.049 111.536 105.135Z" fill="#FAFAFA"/>
<path d="M109.826 106.126L127.503 116.334C127.806 116.506 127.86 116.754 127.625 116.897C127.468 116.961 127.299 116.988 127.129 116.976C126.96 116.963 126.796 116.912 126.651 116.825L108.974 106.618C108.671 106.445 108.617 106.198 108.852 106.059C109.008 105.994 109.178 105.966 109.347 105.977C109.516 105.989 109.68 106.04 109.826 106.126Z" fill="#FAFAFA"/>
<path d="M108.117 107.117L125.794 117.325C126.096 117.498 126.151 117.745 125.915 117.888C125.758 117.953 125.589 117.98 125.42 117.967C125.251 117.955 125.087 117.903 124.941 117.817L107.264 107.609C106.962 107.437 106.907 107.189 107.142 107.05C107.299 106.985 107.468 106.957 107.637 106.969C107.807 106.98 107.971 107.031 108.117 107.117Z" fill="#FAFAFA"/>
<path d="M96.8293 136.598C97.6229 136.197 98.5 135.987 99.3896 135.987C100.279 135.987 101.156 136.197 101.95 136.598C103.361 137.413 103.361 138.737 101.95 139.539C101.157 139.943 100.28 140.153 99.3896 140.153C98.4997 140.153 97.6223 139.943 96.8293 139.539C95.4304 138.737 95.4304 137.413 96.8293 136.598Z" fill="#E6E6E6"/>
<path d="M90.8558 134.137L85.1175 137.455C84.7799 137.627 84.4063 137.717 84.0274 137.717C83.6485 137.717 83.275 137.627 82.9373 137.455L62.9249 125.903C62.32 125.555 62.32 124.992 62.9249 124.643L69.2806 120.98C69.6183 120.808 69.9918 120.718 70.3707 120.718C70.7496 120.718 71.1232 120.808 71.4608 120.98L95.9765 135.132L90.8558 134.137Z" fill="#E6E6E6"/>
<path d="M70.5073 122.87L88.1841 133.078C88.4865 133.25 88.5412 133.498 88.3059 133.637C88.1494 133.702 87.9798 133.73 87.8107 133.718C87.6415 133.707 87.4774 133.656 87.3313 133.57L69.6545 123.362C69.3521 123.19 69.2974 122.942 69.5327 122.803C69.6892 122.738 69.8587 122.71 70.0279 122.722C70.1971 122.733 70.3612 122.784 70.5073 122.87Z" fill="#FAFAFA"/>
<path d="M68.7933 123.862L86.4744 134.07C86.7768 134.242 86.8272 134.49 86.592 134.628C86.4362 134.693 86.2673 134.721 86.0988 134.71C85.9304 134.698 85.7669 134.647 85.6216 134.561L67.9406 124.341C67.6423 124.168 67.5877 123.921 67.823 123.782C67.9797 123.719 68.1491 123.693 68.3176 123.707C68.4861 123.721 68.649 123.774 68.7933 123.862Z" fill="#FAFAFA"/>
<path d="M67.0836 124.853L84.7647 135.061C85.0629 135.233 85.1175 135.481 84.8823 135.62C84.7265 135.685 84.5576 135.713 84.3891 135.701C84.2207 135.689 84.0572 135.639 83.9119 135.552L66.2309 125.345C65.9284 125.172 65.878 124.925 66.1133 124.786C66.2691 124.721 66.4379 124.693 66.6064 124.705C66.7749 124.716 66.9383 124.767 67.0836 124.853Z" fill="#FAFAFA"/>
<path d="M76.3421 110.974C77.1352 110.57 78.0125 110.359 78.9025 110.359C79.7925 110.359 80.6698 110.57 81.4629 110.974C82.8785 111.789 82.8785 113.112 81.4629 113.914C80.6692 114.316 79.7921 114.526 78.9025 114.526C78.0129 114.526 77.1358 114.316 76.3421 113.914C74.9307 113.112 74.9307 111.789 76.3421 110.974Z" fill="#E6E6E6"/>
<path d="M103.412 125.601C104.013 125.95 104.013 126.512 103.412 126.861L98.7364 129.541C98.398 129.713 98.0238 129.803 97.6442 129.803C97.2646 129.803 96.8904 129.713 96.552 129.541L81.6687 120.98C81.068 120.631 81.068 120.068 81.6687 119.72L85.7308 117.397L84.0211 114.456L103.412 125.601Z" fill="#E6E6E6"/>
<path d="M88.2891 118.346L101.106 125.744C101.408 125.92 101.463 126.164 101.227 126.307C101.071 126.371 100.901 126.398 100.732 126.386C100.563 126.374 100.399 126.324 100.253 126.239L87.4196 118.838C87.1171 118.661 87.0625 118.418 87.2977 118.275C87.4569 118.208 87.6297 118.179 87.802 118.192C87.9743 118.204 88.1412 118.257 88.2891 118.346Z" fill="#FAFAFA"/>
<path d="M86.5584 119.338L99.3791 126.735C99.6816 126.911 99.7362 127.155 99.501 127.298C99.3442 127.362 99.1748 127.389 99.0059 127.377C98.8369 127.366 98.6729 127.316 98.5264 127.231L85.7056 119.829C85.4074 119.653 85.3528 119.409 85.588 119.266C85.7442 119.202 85.9132 119.175 86.0816 119.187C86.2501 119.2 86.4133 119.251 86.5584 119.338Z" fill="#FAFAFA"/>
<path d="M84.8487 120.329L97.6694 127.726C97.9719 127.903 98.0223 128.147 97.787 128.289C97.631 128.353 97.4623 128.38 97.294 128.369C97.1258 128.357 96.9624 128.307 96.8167 128.222L83.9959 120.82C83.6935 120.644 83.6431 120.4 83.8783 120.257C84.0345 120.193 84.2035 120.166 84.3719 120.179C84.5403 120.191 84.7036 120.242 84.8487 120.329Z" fill="#FAFAFA"/>
<path d="M119.014 123.79C119.807 123.388 120.684 123.179 121.574 123.179C122.464 123.179 123.341 123.388 124.134 123.79C125.546 124.609 125.546 125.933 124.134 126.731C123.341 127.133 122.464 127.342 121.574 127.342C120.684 127.342 119.807 127.133 119.014 126.731C117.598 125.933 117.598 124.609 119.014 123.79Z" fill="#E6E6E6"/>
<path d="M113.04 121.329L110.721 122.66C110.383 122.832 110.009 122.922 109.629 122.922C109.249 122.922 108.875 122.832 108.537 122.66L98.791 117.031C98.1903 116.683 98.1903 116.12 98.791 115.771L101.732 114.091C102.07 113.919 102.444 113.829 102.824 113.829C103.203 113.829 103.578 113.919 103.916 114.091L118.199 122.328L113.04 121.329Z" fill="#E6E6E6"/>
<path d="M103.198 115.099L111.75 120.039C112.053 120.211 112.107 120.459 111.872 120.598C111.716 120.663 111.546 120.691 111.377 120.679C111.208 120.668 111.044 120.617 110.898 120.531L102.345 115.59C102.042 115.418 101.992 115.17 102.227 115.032C102.383 114.967 102.552 114.939 102.72 114.95C102.889 114.962 103.052 115.013 103.198 115.099Z" fill="#FAFAFA"/>
<path d="M101.488 116.107L110.041 121.047C110.343 121.219 110.394 121.467 110.158 121.606C110.003 121.671 109.834 121.699 109.665 121.687C109.497 121.676 109.333 121.625 109.188 121.539L100.635 116.599C100.333 116.426 100.278 116.179 100.513 116.04C100.67 115.975 100.839 115.947 101.009 115.958C101.178 115.97 101.342 116.021 101.488 116.107Z" fill="#FAFAFA"/>
<path d="M50.7511 125.748C51.5439 125.346 52.4204 125.137 53.3093 125.137C54.1983 125.137 55.0747 125.346 55.8676 125.748C57.2832 126.567 57.2832 127.89 55.8676 128.688C55.0747 129.09 54.1983 129.3 53.3093 129.3C52.4204 129.3 51.5439 129.09 50.7511 128.688C49.3354 127.89 49.3354 126.567 50.7511 125.748Z" fill="#E6E6E6"/>
<path d="M70.9568 136.451C71.5575 136.8 71.5575 137.363 70.9568 137.712L68.0162 139.413C67.6778 139.585 67.3036 139.675 66.924 139.675C66.5444 139.675 66.1702 139.585 65.8318 139.413L57.8083 134.759C57.2076 134.41 57.2076 133.847 57.8083 133.498L60.1188 132.154L58.4133 129.214L70.9568 136.451Z" fill="#E6E6E6"/>
<path d="M62.5888 133.024L69.1336 136.804C69.4361 136.977 69.4907 137.224 69.2554 137.363C69.0989 137.428 68.9294 137.456 68.7602 137.444C68.5911 137.433 68.4269 137.382 68.2809 137.296L61.7361 133.515C61.4336 133.343 61.379 133.095 61.6142 132.956C61.7708 132.891 61.9403 132.863 62.1095 132.875C62.2786 132.887 62.4427 132.938 62.5888 133.024Z" fill="#FAFAFA"/>
<path d="M60.8791 134.002L67.4239 137.783C67.7264 137.955 67.781 138.203 67.5415 138.342C67.3857 138.407 67.2168 138.435 67.0484 138.423C66.8799 138.411 66.7165 138.361 66.5711 138.275L60.0221 134.494C59.7239 134.322 59.6693 134.074 59.9045 133.935C60.061 133.87 60.2306 133.842 60.3997 133.854C60.5689 133.865 60.733 133.916 60.8791 134.002Z" fill="#FAFAFA"/>
<path d="M129.146 101.295C129.318 101.382 129.509 101.428 129.702 101.428C129.896 101.428 130.086 101.382 130.259 101.295C130.328 101.274 130.388 101.232 130.431 101.174C130.474 101.116 130.497 101.046 130.497 100.974C130.497 100.902 130.474 100.832 130.431 100.774C130.388 100.716 130.328 100.674 130.259 100.652C130.087 100.563 129.896 100.517 129.702 100.517C129.509 100.517 129.318 100.563 129.146 100.652C129.077 100.674 129.017 100.716 128.974 100.774C128.931 100.832 128.908 100.902 128.908 100.974C128.908 101.046 128.931 101.116 128.974 101.174C129.017 101.232 129.077 101.274 129.146 101.295Z" fill="#263238"/>
<path d="M130.927 106.353C131.273 106.527 131.655 106.618 132.042 106.618C132.43 106.618 132.811 106.527 133.158 106.353C133.771 105.996 133.771 105.42 133.158 105.063C132.811 104.889 132.43 104.799 132.042 104.799C131.655 104.799 131.273 104.889 130.927 105.063C130.297 105.437 130.297 105.996 130.927 106.353Z" fill="#263238"/>
<path d="M129.356 104.11C129.776 103.874 129.742 103.475 129.305 103.223L121.971 98.989C121.735 98.8644 121.473 98.7968 121.206 98.7917C120.939 98.7866 120.674 98.8441 120.433 98.9596C120.013 99.199 120.047 99.5939 120.484 99.846L127.818 104.085C128.054 104.211 128.317 104.279 128.584 104.283C128.851 104.288 129.116 104.228 129.356 104.11Z" fill="#263238"/>
<path d="M39.3334 105.147L37.0061 103.803C36.9599 103.784 36.9215 103.75 36.8969 103.706L36.4768 102.959L37.8589 102.161L37.8169 102.282L39.3334 105.147Z" fill="#24B6AF"/>
<path opacity="0.2" d="M39.3334 105.147L37.0061 103.803C36.9599 103.784 36.9215 103.75 36.8969 103.706L36.4768 102.959L37.8589 102.161L37.8169 102.282L39.3334 105.147Z" fill="black"/>
<path d="M37.6405 102.274L39.2536 105.063C39.2768 105.101 39.31 105.131 39.3494 105.15C39.3889 105.169 39.4329 105.177 39.4767 105.173C39.5204 105.169 39.562 105.152 39.5968 105.125C39.6316 105.098 39.6583 105.062 39.6736 105.021L41.3791 100.111L37.6405 102.274Z" fill="#24B6AF"/>
<path d="M71.7507 67.0674C71.7335 66.6772 71.6245 66.2965 71.4325 65.9564C71.2406 65.6162 70.971 65.3262 70.6459 65.1098L69.7301 64.5805C69.3816 64.4024 68.9957 64.3095 68.6043 64.3095C68.2129 64.3095 67.8271 64.4024 67.4785 64.5805L30.8352 85.723C30.5073 85.9362 30.2344 86.2239 30.0387 86.5626C29.8431 86.9014 29.7302 87.2815 29.7094 87.6721V101.909C29.7309 102.299 29.844 102.679 30.0396 103.018C30.2352 103.356 30.5077 103.644 30.8352 103.858L31.7552 104.387C32.1036 104.563 32.4885 104.655 32.8789 104.655C33.2693 104.655 33.6542 104.563 34.0026 104.387L70.7299 83.1731C71.7423 82.5934 71.7507 82.0179 71.7507 81.2996V67.0674Z" fill="#24B6AF"/>
<path opacity="0.2" d="M29.6884 101.917C29.7099 102.307 29.823 102.687 30.0186 103.026C30.2142 103.365 30.4867 103.652 30.8142 103.866L31.7342 104.395C32.0514 104.555 32.3988 104.646 32.7535 104.662C33.1082 104.677 33.4623 104.618 33.7926 104.488C33.2633 104.689 32.86 104.387 32.86 103.744V89.5079C32.874 89.1165 32.9867 88.735 33.1876 88.3989L30.0203 86.5715C29.8158 86.9064 29.7014 87.2884 29.6884 87.6805V101.917Z" fill="black"/>
<path opacity="0.4" d="M71.7129 66.7481C71.5827 66.2692 71.1458 66.118 70.6249 66.4162L33.9816 87.5587C33.6498 87.7653 33.3775 88.0549 33.1918 88.3989L30.0245 86.5715C30.2129 86.2282 30.4863 85.9389 30.8184 85.7314L67.4533 64.5889C67.8035 64.4137 68.1897 64.3225 68.5812 64.3225C68.9728 64.3225 69.359 64.4137 69.7091 64.5889L70.6459 65.1098C70.9257 65.2961 71.1646 65.5374 71.3481 65.8191C71.5315 66.1008 71.6556 66.4169 71.7129 66.7481Z" fill="white"/>
<path d="M35.8845 89.7557L68.1254 71.1043C68.5035 70.8859 68.8102 70.9867 68.8102 71.3269C68.7819 71.5365 68.7054 71.7367 68.5865 71.9117C68.4677 72.0866 68.3099 72.2316 68.1254 72.3351L35.8971 90.9865C35.5191 91.205 35.2124 91.1084 35.2124 90.7681C35.2393 90.5591 35.3139 90.3591 35.4304 90.1835C35.547 90.008 35.7024 89.8616 35.8845 89.7557Z" fill="white"/>
<path d="M35.8845 96.1073L62.5888 80.6863C62.9627 80.4678 63.2693 80.5686 63.2693 80.9047C63.2412 81.1144 63.1652 81.3147 63.0472 81.4903C62.9292 81.6659 62.7724 81.8119 62.5888 81.9171L35.8845 97.3381C35.5065 97.5565 35.1998 97.4557 35.1998 97.1155C35.2274 96.9057 35.3037 96.7052 35.4226 96.5302C35.5415 96.3551 35.6997 96.2103 35.8845 96.1073Z" fill="white"/>
<path d="M35.8845 99.199L67.3189 81.0181C67.6927 80.7997 67.9994 80.9005 67.9994 81.2408C67.9713 81.4499 67.8953 81.6497 67.7772 81.8245C67.6592 81.9994 67.5023 82.1447 67.3189 82.2489L35.8845 100.43C35.5065 100.644 35.1998 100.547 35.1998 100.207C35.2274 99.9974 35.3037 99.797 35.4226 99.6219C35.5415 99.4469 35.6997 99.302 35.8845 99.199Z" fill="white"/>
<path d="M35.8845 92.8601L67.3189 74.6792C67.6927 74.4649 67.9994 74.5615 67.9994 74.9018C67.9713 75.1115 67.8953 75.3118 67.7773 75.4874C67.6593 75.663 67.5024 75.809 67.3189 75.9142L35.8845 94.0951C35.5065 94.3135 35.1998 94.2127 35.1998 93.8725C35.2281 93.6623 35.3046 93.4616 35.4234 93.2859C35.5422 93.1103 35.7 92.9645 35.8845 92.8601Z" fill="white"/>
<path d="M39.3334 35.0323L37.0061 33.6881C36.9599 33.669 36.9215 33.635 36.8969 33.5915L36.4768 32.8437L37.8589 32.0456L37.8169 32.1674L39.3334 35.0323Z" fill="#24B6AF"/>
<path opacity="0.2" d="M39.3334 35.0323L37.0061 33.6881C36.9599 33.669 36.9215 33.635 36.8969 33.5915L36.4768 32.8437L37.8589 32.0456L37.8169 32.1674L39.3334 35.0323Z" fill="black"/>
<path d="M37.6405 32.159L39.2536 34.9483C39.2777 34.9843 39.3112 35.013 39.3504 35.0315C39.3896 35.0499 39.4331 35.0574 39.4762 35.0531C39.5193 35.0488 39.5604 35.0328 39.5952 35.007C39.63 34.9811 39.6571 34.9463 39.6736 34.9063L41.3791 29.9914L37.6405 32.159Z" fill="#24B6AF"/>
<path d="M67.9574 2.74941C67.9366 2.3588 67.8237 1.97864 67.6281 1.63992C67.4324 1.30119 67.1595 1.01349 66.8316 0.800258L65.9158 0.270963C65.5673 0.0928638 65.1814 0 64.79 0C64.3986 0 64.0128 0.0928638 63.6642 0.270963L30.8142 19.229C30.4863 19.4423 30.2134 19.73 30.0177 20.0687C29.8221 20.4074 29.7092 20.7876 29.6884 21.1782V31.7977C29.7092 32.1883 29.8221 32.5685 30.0177 32.9072C30.2134 33.2459 30.4863 33.5336 30.8142 33.7469L31.7342 34.2762C32.082 34.4542 32.4671 34.5471 32.8579 34.5471C33.2486 34.5471 33.6338 34.4542 33.9816 34.2762L66.9366 15.2425C67.949 14.6628 67.9574 14.0873 67.9574 13.369V2.74941Z" fill="#24B6AF"/>
<path opacity="0.2" d="M29.6884 31.7977C29.7092 32.1883 29.8221 32.5685 30.0177 32.9072C30.2134 33.2459 30.4863 33.5336 30.8142 33.7469L31.7342 34.2762C32.0511 34.4364 32.3983 34.5278 32.753 34.5444C33.1078 34.5611 33.462 34.5026 33.7926 34.3728C33.2633 34.5702 32.86 34.2678 32.86 33.6293V23.0055C32.874 22.6141 32.9867 22.2326 33.1876 21.8965L30.0203 20.0692C29.8163 20.4042 29.702 20.7862 29.6884 21.1782V31.7977Z" fill="black"/>
<path opacity="0.4" d="M67.9196 2.43016C67.7894 1.95127 67.3525 1.80004 66.8316 2.0983L33.9816 21.0606C33.6487 21.2659 33.3763 21.5558 33.1918 21.9007L30.0245 20.0734C30.2117 19.7291 30.4853 19.4396 30.8184 19.2332L63.66 0.270962C64.0102 0.0957382 64.3964 0.00450897 64.7879 0.00450897C65.1795 0.00450897 65.5657 0.0957382 65.9158 0.270962L66.8316 0.800258C67.1139 0.984083 67.3559 1.22334 67.5429 1.50352C67.7299 1.7837 67.8581 2.09895 67.9196 2.43016Z" fill="white"/>
<path d="M35.8845 25.9881L58.7913 12.7514C59.1694 12.533 59.476 12.6338 59.476 12.9741C59.4472 13.1835 59.3704 13.3834 59.2516 13.5583C59.1329 13.7331 58.9753 13.8782 58.7913 13.9823L35.8845 27.2189C35.5065 27.4373 35.1998 27.3365 35.1998 27.0004C35.2281 26.7903 35.3046 26.5895 35.4234 26.4139C35.5422 26.2383 35.7 26.0925 35.8845 25.9881Z" fill="white"/>
<path d="M35.8845 29.0798L63.5046 13.0833C63.8827 12.8649 64.1893 12.9657 64.1893 13.3059C64.1611 13.5155 64.0845 13.7157 63.9657 13.8907C63.8469 14.0656 63.689 14.2106 63.5046 14.3141L35.8677 30.3107C35.4897 30.5291 35.183 30.4283 35.183 30.088C35.2131 29.8768 35.2922 29.6757 35.414 29.5006C35.5358 29.3255 35.697 29.1814 35.8845 29.0798Z" fill="white"/>
<path d="M35.8845 22.7451L63.5046 6.74854C63.8827 6.5301 64.1893 6.62672 64.1893 6.96698C64.1611 7.17713 64.0845 7.37789 63.9657 7.55353C63.8469 7.72916 63.6891 7.87492 63.5046 7.97937L35.8845 23.9759C35.5065 24.1943 35.1998 24.0935 35.1998 23.7533C35.2281 23.5437 35.3046 23.3435 35.4234 23.1685C35.5423 22.9936 35.7001 22.8486 35.8845 22.7451Z" fill="white"/>
<path d="M94.4348 20.5229L92.1076 19.1786C92.0614 19.1596 92.0229 19.1256 91.9984 19.082L91.5783 18.3343L92.9604 17.5361L92.91 17.6411L94.4348 20.5229Z" fill="#263238"/>
<path d="M92.7419 17.6411L94.355 20.4304C94.3792 20.4664 94.4126 20.4952 94.4518 20.5136C94.491 20.5321 94.5345 20.5395 94.5776 20.5352C94.6208 20.5309 94.6619 20.515 94.6967 20.4891C94.7314 20.4633 94.7585 20.4285 94.7751 20.3884L96.4806 15.4735L92.7419 17.6411Z" fill="#37474F"/>
<path d="M100.341 2.76622C100.317 2.37886 100.202 2.00266 100.005 1.6678C99.8091 1.33294 99.5371 1.04876 99.2111 0.838065L98.2953 0.308769C97.9457 0.134226 97.5603 0.0433655 97.1695 0.0433655C96.7788 0.0433655 96.3933 0.134226 96.0437 0.308769L64.832 18.2712C64.5041 18.4845 64.2312 18.7722 64.0355 19.1109C63.8399 19.4496 63.727 19.8298 63.7062 20.2204V29.4621C63.727 29.8527 63.8399 30.2329 64.0355 30.5716C64.2312 30.9103 64.5041 31.198 64.832 31.4113L65.7478 31.9405C66.0963 32.1186 66.4822 32.2115 66.8736 32.2115C67.265 32.2115 67.6509 32.1186 67.9994 31.9405L99.3203 13.8772C100.333 13.3017 100.341 12.722 100.341 12.0037V2.76622Z" fill="#37474F"/>
<path d="M63.7062 29.4495C63.727 29.8401 63.8399 30.2203 64.0355 30.559C64.2312 30.8977 64.5041 31.1854 64.832 31.3986L65.7478 31.9279C66.0647 32.0881 66.4119 32.1796 66.7667 32.1962C67.1214 32.2129 67.4756 32.1544 67.8062 32.0246C67.2769 32.222 66.8736 31.9195 66.8736 31.281V22.0393C66.8872 21.6473 67.0015 21.2654 67.2055 20.9303L64.0381 19.103C63.8341 19.4381 63.7198 19.82 63.7062 20.212V29.4495Z" fill="#263238"/>
<path d="M100.303 2.44696C100.173 1.96807 99.7362 1.81685 99.2153 2.1151L67.9994 20.1028C67.6654 20.3081 67.3915 20.5979 67.2055 20.9429L64.0423 19.1156C64.228 18.7716 64.5002 18.4821 64.832 18.2755L96.0437 0.287766C96.3939 0.112542 96.7801 0.0213127 97.1716 0.0213127C97.5632 0.0213127 97.9494 0.112542 98.2995 0.287766L99.2111 0.838067C99.4924 1.01858 99.7342 1.2542 99.9219 1.53072C100.11 1.80724 100.239 2.11892 100.303 2.44696Z" fill="#455A64"/>
<path d="M69.8982 22.7199L91.175 10.4536C91.5531 10.2394 91.8598 10.336 91.8598 10.6763C91.8322 10.8861 91.7559 11.0865 91.637 11.2616C91.5181 11.4366 91.3599 11.5814 91.175 11.6844L69.8982 23.9423C69.5243 24.1565 69.2176 24.0599 69.2176 23.7196C69.2463 23.5118 69.3227 23.3134 69.4407 23.14C69.5588 22.9666 69.7153 22.8228 69.8982 22.7199Z" fill="#24B6AF"/>
<path d="M69.8982 25.8074L95.9093 10.7897C96.2832 10.5712 96.5898 10.6679 96.5898 11.0081C96.5617 11.2178 96.4857 11.4182 96.3677 11.5937C96.2497 11.7693 96.0928 11.9153 95.9093 12.0205L69.8982 27.0424C69.5243 27.2567 69.2176 27.1601 69.2176 26.8198C69.2457 26.6101 69.3217 26.4098 69.4397 26.2342C69.5578 26.0586 69.7146 25.9126 69.8982 25.8074Z" fill="#24B6AF"/>
<path d="M39.3334 68.6889L37.0061 67.3446C36.9599 67.3256 36.9215 67.2916 36.8969 67.248L36.4768 66.5003L37.8589 65.7021L37.8169 65.8239L39.3334 68.6889Z" fill="#24B6AF"/>
<path opacity="0.2" d="M39.3334 68.6889L37.0061 67.3446C36.9599 67.3256 36.9215 67.2916 36.8969 67.248L36.4768 66.5003L37.8589 65.7021L37.8169 65.8239L39.3334 68.6889Z" fill="black"/>
<path d="M37.6405 65.8155L39.2536 68.6048C39.2774 68.641 39.3105 68.6699 39.3495 68.6887C39.3885 68.7075 39.4318 68.7154 39.4749 68.7115C39.518 68.7076 39.5592 68.6921 39.5942 68.6667C39.6292 68.6413 39.6566 68.6068 39.6736 68.567L41.3791 63.6521L37.6405 65.8155Z" fill="#24B6AF"/>
<path d="M55.04 43.291C55.0185 42.9006 54.9054 42.5207 54.7098 42.182C54.5143 41.8434 54.2417 41.5556 53.9142 41.3419L53.0027 40.8126C52.653 40.638 52.2676 40.5472 51.8769 40.5472C51.4861 40.5472 51.1007 40.638 50.7511 40.8126L30.8184 52.3101C30.4909 52.5238 30.2184 52.8116 30.0228 53.1502C29.8272 53.4889 29.7141 53.8688 29.6926 54.2592V65.4585C29.7141 65.8489 29.8272 66.2288 30.0228 66.5675C30.2184 66.9061 30.4909 67.1939 30.8184 67.4076L31.7384 67.9369C32.0868 68.113 32.4717 68.2048 32.8621 68.2048C33.2525 68.2048 33.6374 68.113 33.9858 67.9369L54.0234 56.3596C55.0358 55.7841 55.0442 55.2044 55.0442 54.4903L55.04 43.291Z" fill="#24B6AF"/>
<path opacity="0.2" d="M29.6884 65.4585C29.7099 65.8489 29.823 66.2288 30.0186 66.5675C30.2142 66.9061 30.4867 67.1939 30.8142 67.4076L31.7342 67.9369C32.0514 68.0964 32.3988 68.1871 32.7535 68.2031C33.1082 68.219 33.4623 68.1598 33.7926 68.0293C33.2633 68.231 32.86 67.9285 32.86 67.2858V56.0908C32.8734 55.6993 32.9862 55.3177 33.1876 54.9818L30.0203 53.1502C29.8163 53.4853 29.702 53.8672 29.6884 54.2592V65.4585Z" fill="black"/>
<path opacity="0.4" d="M55.0022 42.9718C54.872 42.4929 54.4351 42.3416 53.9184 42.6399L33.9816 54.1416C33.6487 54.347 33.3763 54.6369 33.1918 54.9818L30.0245 53.1544C30.2117 52.8102 30.4853 52.5206 30.8184 52.3143L50.7469 40.8126C51.0965 40.638 51.4819 40.5472 51.8727 40.5472C52.2634 40.5472 52.6488 40.638 52.9985 40.8126L53.9184 41.3461C54.2 41.5293 54.4413 41.7679 54.6276 42.0474C54.8139 42.3269 54.9414 42.6414 55.0022 42.9718Z" fill="white"/>
<path d="M35.8845 59.6488L45.8614 53.8686C46.2352 53.6543 46.5419 53.7509 46.5419 54.0912C46.5138 54.3009 46.4378 54.5012 46.3198 54.6768C46.2017 54.8524 46.0449 54.9984 45.8614 55.1036L35.8677 60.8796C35.4897 61.0981 35.183 60.9973 35.183 60.657C35.2124 60.4456 35.2913 60.2442 35.4132 60.069C35.5351 59.8938 35.6966 59.7498 35.8845 59.6488Z" fill="white"/>
<path d="M35.8845 62.7406L50.6082 54.1878C50.9863 53.9694 51.2887 54.0702 51.2887 54.4105C51.2616 54.6199 51.1859 54.8201 51.0678 54.9951C50.9496 55.1701 50.7923 55.3151 50.6082 55.4186L35.8845 63.9546C35.5065 64.1688 35.1998 64.0722 35.1998 63.732C35.2299 63.5251 35.3073 63.3281 35.4261 63.1561C35.5449 62.9841 35.7018 62.8419 35.8845 62.7406Z" fill="white"/>
<path d="M35.8845 56.4016L50.6082 47.8867C50.9863 47.6724 51.2887 47.769 51.2887 48.1093C51.2616 48.3193 51.186 48.52 51.0678 48.6957C50.9497 48.8714 50.7924 49.0173 50.6082 49.1217L35.8845 57.6324C35.5065 57.8509 35.1998 57.7501 35.1998 57.414C35.2281 57.2039 35.3046 57.0031 35.4234 56.8275C35.5422 56.6518 35.7 56.5061 35.8845 56.4016Z" fill="white"/>
<path d="M96.6907 80.7367L95.6909 78.8547L96.4974 76.5317V75.1076L94.0316 76.5317V77.9558L95.0902 79.7873C95.1061 79.8168 95.1311 79.8404 95.1616 79.8545L96.6907 80.7367Z" fill="#24B6AF"/>
<path d="M96.6906 80.7283L95.1742 79.8545C95.1449 79.8406 95.1202 79.8188 95.1028 79.7915L94.8171 79.2958L95.59 78.8505L96.6486 80.6821C96.6604 80.6994 96.6745 80.7149 96.6906 80.7283Z" fill="#E0E0E0"/>
<path d="M100.576 67.9075C100.56 67.6544 100.484 67.4087 100.356 67.1899C100.227 66.9711 100.05 66.7853 99.837 66.6473L99.2321 66.2986C99.0036 66.1827 98.7511 66.1224 98.4949 66.1224C98.2387 66.1224 97.9861 66.1827 97.7576 66.2986L83.8237 74.3515C83.6109 74.4895 83.4333 74.6753 83.3049 74.8941C83.1766 75.1129 83.101 75.3586 83.0844 75.6117V82.8202C83.101 83.0733 83.1766 83.3191 83.3049 83.5378C83.4333 83.7566 83.6109 83.9424 83.8237 84.0805L84.4244 84.4291C84.6536 84.5451 84.9069 84.6054 85.1637 84.6054C85.4206 84.6054 85.6739 84.5451 85.9031 84.4291L95.59 78.8379L96.6486 80.6694C96.6633 80.6965 96.6856 80.7186 96.7127 80.7329C96.7399 80.7473 96.7707 80.7533 96.8013 80.7502C96.8319 80.747 96.8608 80.7349 96.8845 80.7153C96.9082 80.6957 96.9255 80.6695 96.9343 80.64L98.0517 77.4139L99.837 76.3805C100.052 76.2399 100.231 76.0506 100.36 75.828C100.488 75.6055 100.562 75.3558 100.576 75.0992V67.9075Z" fill="#E6E6E6"/>
<path d="M83.0844 82.816C83.101 83.0691 83.1766 83.3149 83.3049 83.5336C83.4333 83.7524 83.6109 83.9382 83.8237 84.0763L84.4244 84.4249C84.6328 84.53 84.8612 84.5896 85.0944 84.5998C85.3276 84.6099 85.5603 84.5704 85.7771 84.4837C85.4284 84.6182 85.1637 84.4207 85.1637 84.0007V76.8089C85.1734 76.5526 85.2471 76.3028 85.378 76.0822L83.2986 74.8808C83.1677 75.1014 83.094 75.3512 83.0844 75.6075V82.816Z" fill="#E0E0E0"/>
<path d="M100.551 67.6975C100.463 67.3824 100.177 67.2774 99.837 67.479L85.9031 75.5319C85.6832 75.6653 85.5033 75.8553 85.3822 76.0822L83.2818 74.8808C83.4053 74.6557 83.5847 74.4662 83.8027 74.3305L97.7324 66.2776C97.9626 66.1648 98.2155 66.1062 98.4718 66.1062C98.7281 66.1062 98.981 66.1648 99.2111 66.2776L99.816 66.6263C100.005 66.7451 100.168 66.9014 100.295 67.0857C100.421 67.2699 100.508 67.4782 100.551 67.6975Z" fill="#F0F0F0"/>
<path d="M89.2343 76.9266C88.9472 77.1131 88.7081 77.3648 88.5366 77.6612C88.365 77.9575 88.2659 78.2902 88.2471 78.6321C88.2471 79.2622 88.6672 79.5184 89.2343 79.2034C89.5213 79.0157 89.7601 78.7631 89.9316 78.4662C90.1031 78.1692 90.2024 77.8361 90.2215 77.4937C90.2215 76.8678 89.7762 76.6115 89.2343 76.9266Z" fill="white"/>
<path d="M92.8679 74.822C92.581 75.0097 92.3421 75.2622 92.1706 75.5592C91.9991 75.8562 91.8999 76.1893 91.8808 76.5317C91.8808 77.1576 92.326 77.4138 92.8679 77.0988C93.1551 76.9122 93.3941 76.6605 93.5657 76.3642C93.7372 76.0678 93.8364 75.7352 93.8551 75.3933C93.8551 74.7716 93.414 74.5069 92.8679 74.822Z" fill="white"/>
<path d="M96.5058 72.7174C96.2184 72.9046 95.9791 73.157 95.8076 73.4541C95.6361 73.7512 95.5371 74.0846 95.5186 74.4271C95.5186 75.0572 95.9597 75.3093 96.5058 74.9984C96.7923 74.8105 97.0305 74.5578 97.2012 74.2608C97.372 73.9638 97.4705 73.6308 97.4888 73.2887C97.4888 72.6712 97.0477 72.4065 96.5058 72.7174Z" fill="white"/>
<path d="M94.481 51.8648L92.9562 48.9999L94.1828 45.4586V43.291L90.4273 45.4586V47.6262L92.0446 50.4239C92.0691 50.4675 92.1076 50.5015 92.1538 50.5205L94.481 51.8648Z" fill="#24B6AF"/>
<path d="M92.1496 50.5205C92.102 50.502 92.062 50.468 92.0362 50.4239L91.6161 49.6762L92.7923 48.9957L94.4054 51.7808C94.424 51.8165 94.4515 51.8469 94.4852 51.869L92.1496 50.5205Z" fill="#263238"/>
<path d="M100.379 32.3186C100.357 31.9282 100.244 31.5483 100.049 31.2096C99.8531 30.871 99.5806 30.5832 99.2531 30.3695L98.3374 29.8234C97.9877 29.6488 97.6023 29.558 97.2115 29.558C96.8208 29.558 96.4354 29.6488 96.0857 29.8234L67.9406 46.0635C67.6127 46.2768 67.3397 46.5645 67.1441 46.9032C66.9485 47.2419 66.8356 47.6221 66.8148 48.0127V58.9893C66.8379 59.3799 66.9517 59.7598 67.1471 60.0989C67.3425 60.4379 67.6142 60.7268 67.9406 60.9426L68.8564 61.4719C69.206 61.6465 69.5914 61.7373 69.9822 61.7373C70.3729 61.7373 70.7584 61.6465 71.108 61.4719L92.7839 48.9747L94.3928 51.764C94.417 51.7999 94.4505 51.8287 94.4897 51.8471C94.5289 51.8656 94.5723 51.8731 94.6154 51.8688C94.6586 51.8644 94.6997 51.8485 94.7345 51.8227C94.7692 51.7968 94.7964 51.762 94.8129 51.722L96.5142 46.8113L99.2321 45.2318C99.5593 45.0178 99.8317 44.7299 100.027 44.3914C100.223 44.0528 100.336 43.673 100.358 43.2826L100.379 32.3186Z" fill="#37474F"/>
<path d="M73.662 49.4451L97.0309 35.9145C97.409 35.696 97.7156 35.7969 97.7156 36.1371C97.6874 36.3467 97.6108 36.5469 97.492 36.7219C97.3732 36.8968 97.2153 37.0418 97.0309 37.1453L73.662 50.676C73.2882 50.8944 72.9815 50.7978 72.9815 50.4575C73.0096 50.2479 73.0856 50.0475 73.2036 49.8719C73.3216 49.6964 73.4785 49.5503 73.662 49.4451Z" fill="#24B6AF"/>
<path d="M73.662 52.5369L91.5027 42.2366C91.8808 42.0182 92.1874 42.119 92.1874 42.4593C92.1598 42.6691 92.0835 42.8695 91.9646 43.0446C91.8457 43.2196 91.6875 43.3644 91.5027 43.4675L73.662 53.7677C73.2882 53.9862 72.9815 53.8854 72.9815 53.5493C73.0096 53.3396 73.0856 53.1393 73.2036 52.9637C73.3216 52.7881 73.4785 52.6421 73.662 52.5369Z" fill="#24B6AF"/>
<path d="M73.662 55.6287L96.237 42.5685C96.6108 42.3542 96.9175 42.4509 96.9175 42.7911C96.8894 43.0008 96.8134 43.2012 96.6954 43.3767C96.5774 43.5523 96.4205 43.6983 96.237 43.8035L73.662 56.8595C73.2882 57.0779 72.9815 56.9771 72.9815 56.6369C73.0096 56.4277 73.0857 56.2279 73.2037 56.0531C73.3217 55.8782 73.4786 55.7329 73.662 55.6287Z" fill="#24B6AF"/>
<path d="M66.819 59.0061C66.8421 59.3967 66.9559 59.7766 67.1513 60.1157C67.3467 60.4547 67.6184 60.7436 67.9448 60.9594L68.8606 61.4887C69.1787 61.6482 69.5269 61.7385 69.8824 61.7537C70.2379 61.7689 70.5926 61.7087 70.9231 61.577C70.3896 61.7786 69.9864 61.4803 69.9864 60.8376V49.8568C70 49.4648 70.1143 49.0829 70.3182 48.7478L67.1508 46.9205C66.9469 47.2555 66.8326 47.6375 66.819 48.0295V59.0061Z" fill="#263238"/>
<path d="M100.341 31.9994C100.211 31.5205 99.774 31.3692 99.2531 31.6675L71.108 47.9119C70.774 48.1171 70.5001 48.407 70.314 48.752L67.1508 46.9247C67.3366 46.5807 67.6088 46.2911 67.9406 46.0845L96.0857 29.8402C96.4354 29.6656 96.8208 29.5748 97.2115 29.5748C97.6023 29.5748 97.9877 29.6656 98.3374 29.8402L99.2573 30.3737C99.5387 30.5571 99.7799 30.7957 99.9662 31.0752C100.152 31.3547 100.28 31.6691 100.341 31.9994Z" fill="#455A64"/>
<path d="M152.981 44.0304C152.956 43.6943 152.33 40.132 151.901 38.1493L147.701 39.4095L148.373 42.203L151.855 45.5636C152.204 45.5027 152.517 45.3092 152.726 45.0234C152.936 44.7376 153.027 44.3818 152.981 44.0304Z" fill="#FFA8A7"/>
<path d="M149.469 33.9317H136.102V19.4979C136.102 18.7537 136.249 18.0168 136.534 17.3293C136.818 16.6417 137.236 16.017 137.762 15.4908C138.288 14.9646 138.913 14.5472 139.6 14.2624C140.288 13.9776 141.025 13.831 141.769 13.831H143.806C144.551 13.831 145.288 13.9776 145.975 14.2624C146.663 14.5472 147.287 14.9646 147.814 15.4908C148.34 16.017 148.757 16.6417 149.042 17.3293C149.327 18.0168 149.473 18.7537 149.473 19.4979V33.9317H149.469Z" fill="#263238"/>
<path d="M132.729 36.5194L130.746 40.1446L133.83 42.7869L136.648 38.3131L132.729 36.5194Z" fill="#F28F8F"/>
<path d="M130.045 40.7076C129.625 41.8502 128.616 43.6481 129.784 44.5428C130.952 45.4376 134.208 44.3622 134.208 44.3622L130.045 40.7076Z" fill="#F28F8F"/>
<path d="M140.156 28.4287C138.194 28.4287 136.031 29.1638 135.287 30.7013C134.544 32.2388 132.217 37.0361 132.217 37.0361C132.217 37.0361 133.951 39.5565 136.707 39.3969L140.156 28.4287Z" fill="#EBEBEB"/>
<path d="M137.354 92.4148C136.621 93.2737 135.806 94.0601 134.922 94.763C134.78 94.8624 134.664 94.9951 134.586 95.1495C134.481 95.4057 134.325 96.0316 135.485 96.3719C136.07 96.5416 136.686 96.5829 137.289 96.493C137.892 96.4031 138.469 96.1841 138.98 95.851C139.887 95.2167 139.866 93.9985 140.71 93.2549C141.336 92.7088 142.147 92.5324 142.643 91.8351C142.987 91.3478 142.857 90.7303 142.643 89.9657C142.391 89.1256 142.261 88.5039 141.983 88.5837L142.051 88.9702C141.731 89.5415 139.95 89.8103 139.11 89.4574C138.576 90.4727 137.99 91.4598 137.354 92.4148Z" fill="#263238"/>
<path d="M136.598 93.2549C136.863 92.9881 137.114 92.7077 137.35 92.4148C137.848 91.6955 138.301 90.9463 138.707 90.1716C138.934 89.708 139.009 89.1847 138.921 88.6761L138.677 86.6387L141.748 86.1851L142.03 88.966C142.13 89.6003 141.635 90.1884 140.748 91.0369C139.862 91.8855 138.778 93.8136 137.959 94.3303C137.14 94.847 136.539 94.8554 136.169 94.6328C135.8 94.4102 135.758 94.2253 136.598 93.2549Z" fill="#FFA8A7"/>
<path d="M146.781 92.9399V92.5198C146.613 93.0239 145.823 95.1915 144.634 96.3005C143.685 97.1659 142.391 98.1656 142.063 99.1276C141.735 100.09 143.861 100.468 144.747 100.312C145.932 100.107 147.016 99.5162 147.831 98.6319C148.343 98.0102 148.671 97.2667 149.032 96.7752C149.393 96.2837 150.234 95.7334 150.431 95.1621C150.489 94.6307 150.43 94.0932 150.259 93.5868C150.116 93.0533 149.969 92.4694 149.784 92.5198V92.8349C149.357 93.1707 148.828 93.3501 148.284 93.3432C147.843 93.3642 146.776 93.2759 146.781 92.9399Z" fill="#263238"/>
<path d="M143.773 97.0356C144.067 96.7752 144.365 96.5189 144.634 96.2753C145.434 95.4268 146.057 94.4271 146.466 93.3348C146.675 92.833 146.782 92.2946 146.781 91.7511V90.0414H149.784V92.8349V92.9105C149.637 93.5322 148.259 95.1957 147.474 96.2711C146.953 96.9978 145.953 97.9178 144.76 98.0774C143.617 98.2455 143.042 97.8758 143.773 97.0356Z" fill="#FFA8A7"/>
<path d="M149.2 46.24C151.532 51.3271 149.116 69.2518 149.116 69.2518C149.188 70.0919 150.129 71.7008 150.481 75.3387C150.902 79.6319 149.83 90.411 149.83 90.411C149.372 90.6776 148.856 90.828 148.327 90.8492C147.798 90.8705 147.271 90.7619 146.793 90.5329C146.793 90.5329 143.928 74.2969 143.391 70.0247C142.92 66.2986 142.13 60.1235 142.13 60.1235L140.942 69.9785C140.942 69.9785 141.488 72.3267 141.651 73.9188C141.962 76.8594 141.937 86.895 141.937 86.895C140.953 87.4678 139.8 87.6774 138.677 87.4873C138.677 87.4873 135.762 72.0327 134.947 69.1089C134.582 67.7941 134.414 52.6587 135.867 45.4964L149.2 46.24Z" fill="#24B6AF"/>
<path opacity="0.2" d="M142.135 60.1235L141.294 53.7635C140.022 53.7059 138.79 53.3005 137.732 52.5915C138.589 53.4055 139.606 54.0321 140.719 54.4315L141.559 59.821L141.324 66.6935L142.135 60.1235Z" fill="black"/>
<path d="M145.079 28.5631C145.937 28.7706 146.736 29.1683 147.419 29.7268C148.102 30.2853 148.65 30.9902 149.024 31.7893C149.568 33.0052 149.618 34.3853 149.162 35.6372L147.062 41.6611C147.062 41.6611 149.826 46.1307 149.826 48.6596C145.205 51.2389 137.753 50.3987 135.38 48.7226C135.312 48.2731 135.875 43.0096 135.749 40.6949C135.615 38.2291 135.275 35.444 135.661 33.9191C136.384 31.0878 137.732 28.4287 140.416 28.4287L145.079 28.5631Z" fill="#F5F5F5"/>
<path d="M145.84 28.5631C147.621 28.8152 150.238 29.1764 151.141 33.4108C152.044 37.6452 152.317 39.1995 152.317 39.1995C152.317 39.1995 150.855 40.9008 147.898 40.8798L146.978 37.6242L145.84 28.5631Z" fill="#F5F5F5"/>
<path d="M144.844 32.138C145.465 32.138 146.06 31.8915 146.499 31.4527C146.937 31.0139 147.184 30.4187 147.184 29.7982V22.9803H144.844V32.138Z" fill="#263238"/>
<path d="M138.299 16.5489C137.594 16.969 136.72 18.7417 136.804 22.4636C136.879 25.6184 137.9 26.3997 138.417 26.6224C138.934 26.845 139.921 26.7106 140.883 26.551V28.4455C140.883 28.4455 139.551 29.9914 139.622 30.8609C139.694 31.7305 141.542 31.9321 142.79 31.0836C143.596 30.5025 144.288 29.7776 144.831 28.9454V24.3624C144.933 24.4865 145.057 24.5894 145.199 24.6649C145.34 24.7404 145.495 24.7872 145.654 24.8024C145.814 24.8177 145.974 24.8011 146.127 24.7537C146.28 24.7063 146.422 24.6289 146.545 24.5262C147.608 23.8205 147.65 22.0729 147.028 21.447C146.407 20.8211 145.079 21.027 144.831 21.8671C143.568 21.8133 142.339 21.4467 141.252 20.8001C140.462 20.3719 139.783 19.7642 139.27 19.0258C138.757 18.2875 138.425 17.4391 138.299 16.5489Z" fill="#FFA8A7"/>
<path d="M140.328 21.6739C140.328 21.7777 140.365 21.8781 140.435 21.9557C140.504 22.0333 140.599 22.0825 140.702 22.0939C140.809 22.0942 140.911 22.054 140.989 21.9815C141.067 21.909 141.115 21.8095 141.122 21.7033C141.13 21.6483 141.126 21.5924 141.111 21.5391C141.096 21.4857 141.07 21.4361 141.034 21.3934C140.999 21.3507 140.955 21.3159 140.905 21.2911C140.856 21.2663 140.801 21.2522 140.746 21.2495C140.691 21.2469 140.635 21.2558 140.583 21.2758C140.532 21.2957 140.485 21.3262 140.445 21.3654C140.406 21.4045 140.375 21.4514 140.355 21.5031C140.335 21.5548 140.326 21.6101 140.328 21.6655V21.6739Z" fill="#263238"/>
<path d="M140.223 24.3624L139.299 24.6564C139.316 24.7181 139.345 24.7758 139.385 24.8261C139.424 24.8764 139.473 24.9182 139.529 24.9491C139.585 24.9801 139.647 24.9995 139.711 25.0062C139.774 25.0129 139.839 25.0068 139.9 24.9883C140.024 24.946 140.127 24.8571 140.188 24.7405C140.248 24.6238 140.261 24.4883 140.223 24.3624Z" fill="#F28F8F"/>
<path d="M137.077 20.4556L137.879 19.8969C137.845 19.8431 137.801 19.7966 137.748 19.7605C137.696 19.7243 137.636 19.6992 137.574 19.6866C137.512 19.6741 137.447 19.6743 137.385 19.6874C137.322 19.7004 137.263 19.726 137.211 19.7625C137.103 19.8381 137.029 19.9526 137.004 20.0819C136.979 20.2112 137.005 20.3452 137.077 20.4556Z" fill="#263238"/>
<path d="M137.262 21.384C137.261 21.4612 137.283 21.5369 137.325 21.6017C137.367 21.6665 137.427 21.7176 137.497 21.7487C137.568 21.7799 137.646 21.7896 137.722 21.7768C137.798 21.764 137.869 21.7291 137.925 21.6766C137.982 21.624 138.022 21.5561 138.04 21.4811C138.058 21.4061 138.054 21.3274 138.028 21.2548C138.003 21.1821 137.956 21.1186 137.894 21.0721C137.833 21.0257 137.759 20.9983 137.682 20.9934C137.575 20.9931 137.473 21.0333 137.395 21.1058C137.317 21.1783 137.269 21.2778 137.262 21.384Z" fill="#263238"/>
<path d="M139.131 21.1572L139.068 23.5474L137.812 23.1567L139.131 21.1572Z" fill="#F28F8F"/>
<path d="M140.883 26.551C141.895 26.4207 143.983 25.82 144.311 24.9925C144.179 25.4096 143.922 25.7762 143.575 26.0427C142.954 26.5762 140.883 27.1811 140.883 27.1811V26.551Z" fill="#F28F8F"/>
<path d="M134.918 40.7117C134.342 39.6406 134.199 39.5901 133.855 39.3591C133.51 39.1281 131.414 38.8088 130.545 38.7374C129.52 38.6492 129.154 38.8382 129.44 39.7204C130.049 41.6065 131.628 45.1436 132.044 45.6981C132.313 46.0593 132.187 46.408 133.527 46.6852C134.586 46.9037 136.22 47.1347 136.615 47.1599C137.01 47.1851 137.564 47.2817 137.207 46.1139C136.752 44.7913 136.226 43.4942 135.632 42.2282C135.186 41.2704 134.918 40.7117 134.918 40.7117Z" fill="#263238"/>
<path d="M148.389 42.2156C148.389 42.2156 139.816 42.9844 138.61 42.6105C137.404 42.2366 136.9 41.5477 136.14 40.8882C135.38 40.2287 134.85 40.3883 134.85 40.5941C135.006 40.9008 135.451 41.8922 135.628 42.2282C135.859 42.6735 134.825 42.7029 133.552 42.4089C132.28 42.1148 131.767 41.3713 131.452 41.8081C131.137 42.245 132.158 44.3622 134.275 45.1688C136.392 45.9753 137.963 45.4376 139.715 45.509C141.467 45.5804 149.461 46.3492 151.897 45.6014C151.96 45.2124 151.915 44.8135 151.767 44.4483C151.619 44.083 151.373 43.7655 151.057 43.5305C150.266 42.9166 149.358 42.4694 148.389 42.2156Z" fill="#FFA8A7"/>
<path d="M147.717 39.8212C147.316 38.74 146.974 37.6378 146.692 36.5194C146.692 36.5194 146.86 38.9768 147.554 40.3001L147.717 39.8212Z" fill="#E0E0E0"/>
</svg>
