<svg width="4" height="13" viewBox="0 0 4 13" fill="none" xmlns="http://www.w3.org/2000/svg">
<path d="M1.99961 3.70002C1.22641 3.70002 0.599609 3.07322 0.599609 2.30002C0.599609 1.52683 1.22641 0.900024 1.99961 0.900024C2.77281 0.900024 3.39961 1.52683 3.39961 2.30002C3.39961 3.07322 2.77281 3.70002 1.99961 3.70002Z" fill="#27272A"/>
<path d="M1.99961 7.90002C1.22641 7.90002 0.599609 7.27322 0.599609 6.50002C0.599609 5.72683 1.22641 5.10002 1.99961 5.10002C2.77281 5.10002 3.39961 5.72683 3.39961 6.50002C3.39961 7.27322 2.77281 7.90002 1.99961 7.90002Z" fill="#27272A"/>
<path d="M1.99961 12.1C1.22641 12.1 0.599609 11.4732 0.599609 10.7C0.599609 9.92683 1.22641 9.30002 1.99961 9.30002C2.77281 9.30002 3.39961 9.92683 3.39961 10.7C3.39961 11.4732 2.77281 12.1 1.99961 12.1Z" fill="#27272A"/>
</svg>
