<svg width="23" height="23" viewBox="0 0 23 23" fill="none" xmlns="http://www.w3.org/2000/svg">
<path d="M3.1096 5.82386C3.71086 5.40362 4.61722 5.48421 5.15707 5.93004L4.5379 5.03007C4.03963 4.31944 4.21809 3.5506 4.92936 3.05168C5.64063 2.55469 7.65612 3.89088 7.65612 3.89088C7.15337 3.17321 7.2474 2.26365 7.96507 1.76026C8.68274 1.25878 9.67289 1.43213 10.1756 2.15108L16.8406 11.5665L15.9912 19.8018L8.90213 17.2164L2.71878 8.04851C2.21155 7.32636 2.38681 6.33045 3.1096 5.82386Z" fill="#EF9645"/>
<path d="M1.72554 11.0619C1.72554 11.0619 1.00147 10.0065 2.05751 9.28307C3.11227 8.55964 3.8357 9.6144 3.8357 9.6144L7.19442 14.5127C7.31019 14.3196 7.43684 14.1289 7.5782 13.9409L2.91654 7.14349C2.91654 7.14349 2.19311 6.08873 3.24851 5.3653C4.30327 4.64187 5.0267 5.69663 5.0267 5.69663L9.4114 12.0911C9.5745 11.958 9.74145 11.8243 9.91351 11.6932L4.83033 4.2792C4.83033 4.2792 4.1069 3.22444 5.1623 2.50101C6.21706 1.77759 6.94048 2.83235 6.94048 2.83235L12.0237 10.2451C12.2104 10.1306 12.3953 10.0314 12.5808 9.92654L7.82958 2.99801C7.82958 2.99801 7.10615 1.94325 8.16091 1.21983C9.21567 0.496398 9.93909 1.55116 9.93909 1.55116L14.9628 8.87754L15.7265 9.99178C12.5616 12.1627 12.2603 16.2468 14.0686 18.884C14.43 19.4117 14.9577 19.0503 14.9577 19.0503C12.7874 15.8847 13.4501 12.3277 16.6156 10.1574L15.6824 5.48683C15.6824 5.48683 15.3338 4.25617 16.5638 3.90693C17.7945 3.55833 18.1437 4.78899 18.1437 4.78899L19.2215 7.98972C19.6488 9.25876 20.1035 10.5233 20.7054 11.7194C22.4049 15.0967 21.3898 19.294 18.1853 21.4924C14.6897 23.8891 9.91095 22.9981 7.5136 19.5032L1.72554 11.0619Z" fill="#FFDC5D"/>
<path d="M7.67517 20.4683C5.11663 20.4683 2.53122 17.8829 2.53122 15.3243C2.53122 14.9706 2.27217 14.6847 1.91845 14.6847C1.56473 14.6847 1.25195 14.9706 1.25195 15.3243C1.25195 19.1621 3.83736 21.7475 7.67517 21.7475C8.02889 21.7475 8.3148 21.4348 8.3148 21.081C8.3148 20.7273 8.02889 20.4683 7.67517 20.4683Z" fill="#EF9645"/>
<path d="M4.47745 21.7207C2.55854 21.7207 1.27927 20.4414 1.27927 18.5225C1.27927 18.1688 0.993353 17.8829 0.639635 17.8829C0.285917 17.8829 0 18.1688 0 18.5225C0 21.0811 1.91891 23 4.47745 23C4.83116 23 5.11708 22.7141 5.11708 22.3603C5.11708 22.0066 4.83116 21.7207 4.47745 21.7207ZM15.3512 1.25238C14.9982 1.25238 14.7116 1.53894 14.7116 1.89202C14.7116 2.24509 14.9982 2.53165 15.3512 2.53165C17.9098 2.53165 20.4683 4.8273 20.4683 7.64873C20.4683 8.00181 20.7549 8.28837 21.108 8.28837C21.461 8.28837 21.7476 8.00181 21.7476 7.64873C21.7476 4.12178 19.1891 1.25238 15.3512 1.25238Z" fill="#EF9645"/>
<path d="M18.5498 -6.10352e-05C18.1967 -6.10352e-05 17.9102 0.259631 17.9102 0.612709C17.9102 0.965788 18.1967 1.27921 18.5498 1.27921C20.4687 1.27921 21.7211 2.7024 21.7211 4.45052C21.7211 4.8036 22.0339 5.09016 22.3876 5.09016C22.7413 5.09016 23.0004 4.8036 23.0004 4.45052C23.0004 1.99624 21.1083 -6.10352e-05 18.5498 -6.10352e-05Z" fill="#EF9645"/>
</svg>
