<svg width="19" height="20" viewBox="0 0 19 20" fill="none" xmlns="http://www.w3.org/2000/svg">
<path d="M0.892578 10L2.82115 8M2.82115 8L9.57115 1L16.3211 8M2.82115 8V18C2.82115 18.5523 3.25288 19 3.78544 19H6.67829M16.3211 8L18.2497 10M16.3211 8V18C16.3211 18.5523 15.8894 19 15.3569 19H12.464M6.67829 19C7.21085 19 7.64258 18.5523 7.64258 18V14C7.64258 13.4477 8.0743 13 8.60686 13H10.5354C11.068 13 11.4997 13.4477 11.4997 14V18C11.4997 18.5523 11.9314 19 12.464 19M6.67829 19H12.464" stroke="#14B8A6" stroke-width="1.5" stroke-linecap="round" stroke-linejoin="round"/>
</svg>
