<svg width="501" height="439" viewBox="0 0 501 439" fill="none" xmlns="http://www.w3.org/2000/svg">
<path d="M111.937 169.255C111.937 169.255 111.937 163.18 103.422 154.666C94.9082 146.151 89.4373 141.284 89.4373 141.284C89.4373 141.284 85.1745 155.27 93.0846 163.784C98.901 169.773 105.207 175.267 111.937 180.208V169.255Z" fill="#14B8A6"/>
<path d="M99.5813 207.244C99.5813 207.244 99.5813 201.157 91.0672 192.643C82.553 184.129 77.082 179.262 77.082 179.262C77.082 179.262 72.8192 193.259 80.7293 201.773C86.5415 207.763 92.8478 213.254 99.5813 218.186V207.244Z" fill="#14B8A6"/>
<path d="M111.401 179.581C111.401 179.581 112.039 173.54 121.408 165.972C130.777 158.404 136.738 154.141 136.738 154.141C136.738 154.141 139.485 168.503 130.732 176.128C124.306 181.473 117.443 186.269 110.216 190.466L111.401 179.581Z" fill="#14B8A6"/>
<path d="M96.4697 224.477C96.4697 224.477 97.7463 218.528 107.868 211.94C117.989 205.352 124.349 201.784 124.349 201.784C124.349 201.784 125.58 216.362 116.063 223.03C109.123 227.669 101.807 231.718 94.1902 235.134L96.4697 224.477Z" fill="#14B8A6"/>
<path d="M99.285 273.385C99.285 273.385 99.285 267.299 107.799 258.785C116.313 250.271 121.784 245.404 121.784 245.404C121.784 245.404 126.036 259.389 118.137 267.903C112.321 273.892 106.015 279.386 99.285 284.327V273.385Z" fill="#14B8A6"/>
<path d="M99.1368 285.319C99.1368 285.319 100.003 279.301 92.7882 269.658C85.5734 260.016 80.8433 254.431 80.8433 254.431C80.8433 254.431 74.6429 267.664 81.2536 277.226C86.1591 283.986 91.6226 290.323 97.5867 296.17L99.1368 285.319Z" fill="#14B8A6"/>
<path d="M90.7366 320.698C90.7366 320.698 90.7366 314.611 99.2508 306.097C107.765 297.583 113.247 292.716 113.247 292.716C113.247 292.716 117.499 306.713 109.6 315.227C103.782 321.216 97.4723 326.706 90.7366 331.64V320.698Z" fill="#14B8A6"/>
<path d="M96.4241 352.828C96.4241 352.828 94.8854 346.947 100.983 336.552C107.081 326.157 111.127 320.059 111.127 320.059C111.127 320.059 118.787 332.517 113.293 342.753C109.186 350.021 104.477 356.934 99.2166 363.417L96.4241 352.828Z" fill="#14B8A6"/>
<path d="M112.712 167.705C112.277 174.034 111.497 180.335 110.375 186.579C107.013 203.973 98.6011 215.188 95.2274 230.906C91.8536 246.623 101.53 266.843 98.9431 287.017C96.3558 307.191 88.5026 318.407 90.7366 331.868C92.9706 345.328 104.767 381.802 104.767 381.802" stroke="#263238" stroke-linecap="round" stroke-linejoin="round"/>
<path d="M111.321 183.662L120.496 176.618" stroke="#263238" stroke-linecap="round" stroke-linejoin="round"/>
<path d="M111.743 175.546L107.902 168.719" stroke="#263238" stroke-linecap="round" stroke-linejoin="round"/>
<path d="M95.7403 230.176C95.7403 230.176 103.422 224.42 111.321 218.653" stroke="#263238" stroke-linecap="round" stroke-linejoin="round"/>
<path d="M99.5813 218.186C99.5813 218.186 93.1758 205.648 85.9039 197.316" stroke="#263238" stroke-linecap="round" stroke-linejoin="round"/>
<path d="M99.5813 282.036C103.966 273.95 109.502 266.544 116.017 260.05" stroke="#263238" stroke-linecap="round" stroke-linejoin="round"/>
<path d="M98.0882 290.573C95.7587 285.085 92.9756 279.801 89.7678 274.776C85.2885 268.165 84.6388 267.31 84.6388 267.31" stroke="#263238" stroke-linecap="round" stroke-linejoin="round"/>
<path d="M90.7366 331.868C92.6831 327.036 94.996 322.361 97.6551 317.882C100.316 313.728 103.316 309.802 106.625 306.143" stroke="#263238" stroke-linecap="round" stroke-linejoin="round"/>
<path d="M99.2052 363.36C99.2052 363.36 98.3048 356.077 101.485 349.888C104.665 343.699 108.323 335.595 109.817 332.392" stroke="#263238" stroke-linecap="round" stroke-linejoin="round"/>
<path d="M56.1898 250.51C56.1898 250.51 55.5287 246.692 59.9511 240.434C64.3734 234.177 67.2685 230.518 67.2685 230.518C67.2685 230.518 71.4515 238.827 67.4167 245.028C64.4059 249.417 61.0317 253.546 57.3296 257.371L56.1898 250.51Z" fill="#14B8A6"/>
<path d="M68.0549 273.043C68.0549 273.043 67.3939 269.225 71.8048 262.968C76.2158 256.71 79.1222 253.052 79.1222 253.052C79.1222 253.052 83.3166 261.361 79.2818 267.561C76.2845 271.941 72.9256 276.063 69.2403 279.882L68.0549 273.043Z" fill="#14B8A6"/>
<path d="M57.6373 256.95C57.6373 256.95 56.5773 253.223 49.8868 249.495C43.1963 245.768 38.9905 243.797 38.9905 243.797C38.9905 243.797 38.8195 253.097 45.1453 256.938C49.7721 259.573 54.6101 261.819 59.6091 263.652L57.6373 256.95Z" fill="#14B8A6"/>
<path d="M71.8732 283.45C71.8732 283.45 70.4257 279.859 63.3818 276.862C56.338 273.864 51.984 272.303 51.984 272.303C51.984 272.303 52.7932 281.569 59.4838 284.726C64.312 286.867 69.3101 288.601 74.4263 289.912L71.8732 283.45Z" fill="#14B8A6"/>
<path d="M75.4179 314.429C75.4179 314.429 74.7569 310.611 68.4995 306.2C62.242 301.789 58.2414 299.361 58.2414 299.361C58.2414 299.361 57.1016 308.593 62.9715 313.038C67.2699 316.164 71.8221 318.924 76.5805 321.29L75.4179 314.429Z" fill="#14B8A6"/>
<path d="M76.8085 321.894C76.8085 321.894 75.6687 318.213 79.088 311.386C82.5074 304.558 84.9237 300.535 84.9237 300.535C84.9237 300.535 90.2579 308.172 87.2033 314.873C84.8644 319.654 82.1268 324.23 79.0196 328.551L76.8085 321.894Z" fill="#14B8A6"/>
<path d="M87.4882 352.657C87.4882 352.657 87.9328 348.816 93.9394 344.052C99.9461 339.287 103.753 336.609 103.753 336.609C103.753 336.609 105.428 345.727 99.8093 350.571C95.6997 353.934 91.3152 356.946 86.7018 359.576L87.4882 352.657Z" fill="#14B8A6"/>
<path d="M85.9153 343.174C85.9153 343.174 85.2543 339.356 78.9855 334.945C72.7167 330.534 68.7274 328.106 68.7274 328.106C68.7274 328.106 67.5876 337.339 73.4575 341.784C77.7559 344.909 82.3081 347.669 87.0665 350.036L85.9153 343.174Z" fill="#14B8A6"/>
<path d="M85.8242 363.896C85.8242 363.896 86.1547 360.043 81.265 354.185C76.3754 348.326 73.1042 344.952 73.1042 344.952C73.1042 344.952 69.6848 353.592 74.244 359.416C77.6121 363.518 81.3179 367.331 85.3226 370.814L85.8242 363.896Z" fill="#14B8A6"/>
<path d="M55.5287 249.609C56.4851 253.535 57.6571 257.405 59.0393 261.201C63.0399 271.744 69.5367 277.865 73.3435 287.348C77.1504 296.831 73.3435 310.565 77.1162 322.943C80.8889 335.321 87.0665 341.487 87.1235 350.184C87.1805 358.88 83.7042 383.01 83.7042 383.01" stroke="#263238" stroke-linecap="round" stroke-linejoin="round"/>
<path d="M58.1274 259.469L51.6193 256.049" stroke="#263238" stroke-linecap="round" stroke-linejoin="round"/>
<path d="M56.9876 254.431L58.6517 249.735" stroke="#263238" stroke-linecap="round" stroke-linejoin="round"/>
<path d="M72.956 286.949C72.956 286.949 67.5078 284.168 61.9343 281.421" stroke="#263238" stroke-linecap="round" stroke-linejoin="round"/>
<path d="M69.2403 279.882C70.8461 274.812 72.9657 269.92 75.5661 265.281" stroke="#263238" stroke-linecap="round" stroke-linejoin="round"/>
<path d="M76.1702 319.889C72.546 315.294 68.2726 311.251 63.4844 307.887" stroke="#263238" stroke-linecap="round" stroke-linejoin="round"/>
<path d="M78.0394 325.074C78.9008 321.381 80.0713 317.767 81.5386 314.269C83.6358 309.63 83.9435 309.026 83.9435 309.026" stroke="#263238" stroke-linecap="round" stroke-linejoin="round"/>
<path d="M86.8272 356.772C86.8272 356.772 91.1469 351.472 93.8368 349.489C95.4587 348.293 96.9832 346.97 98.396 345.534" stroke="#263238" stroke-linecap="round" stroke-linejoin="round"/>
<path d="M87.1235 350.184C85.3748 347.38 83.4164 344.713 81.265 342.205C79.168 339.862 76.8806 337.697 74.4263 335.731" stroke="#263238" stroke-linecap="round" stroke-linejoin="round"/>
<path d="M85.2429 370.837C85.0196 367.895 84.0164 365.066 82.3364 362.642C79.6579 359.108 76.5007 354.424 75.2128 352.577" stroke="#263238" stroke-linecap="round" stroke-linejoin="round"/>
<path d="M66.3567 378.792H122.058V398.055C122.058 399.113 121.638 400.127 120.889 400.876C120.141 401.624 119.127 402.044 118.069 402.044H70.3459C69.2879 402.044 68.2732 401.624 67.5251 400.876C66.777 400.127 66.3567 399.113 66.3567 398.055V378.792Z" fill="#263238" stroke="#263238" stroke-linecap="round" stroke-linejoin="round"/>
<path d="M121.568 386.064H66.3567C65.1989 386.064 64.0885 385.604 63.2699 384.786C62.4512 383.967 61.9913 382.857 61.9913 381.699C61.9943 380.543 62.4556 379.436 63.2739 378.62C64.0922 377.803 65.2009 377.345 66.3567 377.345H121.568C122.722 377.345 123.83 377.804 124.646 378.62C125.463 379.437 125.922 380.544 125.922 381.699C125.923 382.272 125.812 382.839 125.594 383.369C125.375 383.898 125.055 384.38 124.651 384.785C124.246 385.191 123.766 385.512 123.237 385.732C122.708 385.951 122.14 386.064 121.568 386.064Z" fill="#263238" stroke="#263238" stroke-linecap="round" stroke-linejoin="round"/>
<path d="M68.545 386.258H108.643" stroke="white" stroke-linecap="round" stroke-linejoin="round"/>
<path d="M112.415 386.258H119.015" stroke="white" stroke-linecap="round" stroke-linejoin="round"/>
<path d="M0.5 393.017H485.945" stroke="#263238" stroke-linecap="round" stroke-linejoin="round"/>
<path d="M0.5 223.189H485.945" stroke="#263238" stroke-linecap="round" stroke-linejoin="round"/>
<path d="M450.612 222.984V24.206" stroke="#263238" stroke-linecap="round" stroke-linejoin="round"/>
<path d="M435.794 222.984V24.206" stroke="#263238" stroke-linecap="round" stroke-linejoin="round"/>
<path d="M352.02 222.984V24.206" stroke="#263238" stroke-linecap="round" stroke-linejoin="round"/>
<path d="M337.203 222.984V24.206" stroke="#263238" stroke-linecap="round" stroke-linejoin="round"/>
<path d="M253.429 222.984V24.206" stroke="#263238" stroke-linecap="round" stroke-linejoin="round"/>
<path d="M238.612 222.984V24.206" stroke="#263238" stroke-linecap="round" stroke-linejoin="round"/>
<path d="M154.838 222.984V24.206" stroke="#263238" stroke-linecap="round" stroke-linejoin="round"/>
<path d="M140.021 222.984V24.206" stroke="#263238" stroke-linecap="round" stroke-linejoin="round"/>
<path d="M56.2468 222.984V24.206" stroke="#263238" stroke-linecap="round" stroke-linejoin="round"/>
<path d="M41.4296 222.984V24.206" stroke="#263238" stroke-linecap="round" stroke-linejoin="round"/>
<path d="M287.463 1H141.218C136.389 1 132.475 4.91399 132.475 9.74213V301.527C132.475 306.355 136.389 310.269 141.218 310.269H287.463C292.291 310.269 296.205 306.355 296.205 301.527V9.74213C296.205 4.91399 292.291 1 287.463 1Z" fill="white" stroke="#263238" stroke-linecap="round" stroke-linejoin="round"/>
<path d="M288.922 34.9541H139.747V276.303H288.922V34.9541Z" fill="#263238"/>
<mask id="mask0_15_570" style="mask-type:luminance" maskUnits="userSpaceOnUse" x="139" y="34" width="150" height="243">
<path d="M288.922 34.9541H139.747V276.303H288.922V34.9541Z" fill="white"/>
</mask>
<g mask="url(#mask0_15_570)">
<path opacity="0.3" d="M288.922 195.208L149.869 276.303H288.922V195.208Z" fill="white"/>
<path d="M269.352 122.569H159.329C156.181 122.569 153.63 125.121 153.63 128.268V137.215C153.63 140.363 156.181 142.914 159.329 142.914H269.352C272.499 142.914 275.051 140.363 275.051 137.215V128.268C275.051 125.121 272.499 122.569 269.352 122.569Z" fill="white"/>
<path d="M219.509 126.262H209.16V139.21H219.509V126.262Z" fill="#14B8A6"/>
<path d="M207.017 126.262H196.668V139.21H207.017V126.262Z" fill="#14B8A6"/>
<path d="M194.514 126.262H184.165V139.21H194.514V126.262Z" fill="#14B8A6"/>
<path d="M182.01 126.262H171.661V139.21H182.01V126.262Z" fill="#14B8A6"/>
<path d="M169.507 126.262H164.469C162.752 126.262 161.105 126.944 159.891 128.158C158.677 129.372 157.995 131.019 157.995 132.736C157.995 134.453 158.677 136.1 159.891 137.314C161.105 138.528 162.752 139.21 164.469 139.21H169.564L169.507 126.262Z" fill="#14B8A6"/>
<path d="M232.013 126.262H221.663V139.21H232.013V126.262Z" fill="#14B8A6"/>
<path d="M181.874 105.495H182.523V113.702H187.573V114.283H181.874V105.495Z" fill="white"/>
<path d="M188.199 109.872C188.177 108.966 188.425 108.073 188.912 107.309C189.399 106.544 190.103 105.942 190.933 105.58C191.764 105.217 192.684 105.11 193.576 105.273C194.468 105.436 195.291 105.861 195.94 106.494C196.589 107.127 197.035 107.939 197.22 108.826C197.405 109.713 197.322 110.636 196.98 111.475C196.639 112.315 196.055 113.034 195.303 113.54C194.551 114.046 193.665 114.317 192.759 114.317C192.163 114.34 191.569 114.242 191.013 114.029C190.457 113.815 189.95 113.49 189.524 113.074C189.097 112.658 188.76 112.16 188.532 111.609C188.304 111.059 188.191 110.468 188.199 109.872ZM196.668 109.872C196.682 109.093 196.463 108.328 196.04 107.674C195.617 107.02 195.009 106.507 194.293 106.2C193.577 105.893 192.786 105.806 192.021 105.951C191.256 106.095 190.551 106.464 189.996 107.011C189.441 107.558 189.062 108.257 188.906 109.02C188.75 109.783 188.826 110.576 189.122 111.296C189.418 112.016 189.923 112.632 190.57 113.064C191.218 113.497 191.98 113.727 192.759 113.725C193.272 113.742 193.783 113.654 194.261 113.467C194.74 113.28 195.175 112.998 195.541 112.638C195.906 112.277 196.195 111.846 196.389 111.371C196.583 110.895 196.678 110.385 196.668 109.872Z" fill="white"/>
<path d="M204.852 111.787H199.802L198.663 114.26H197.979L202.014 105.472H202.652L206.687 114.26H206.003L204.852 111.787ZM204.612 111.251L202.333 106.179L200.053 111.251H204.612Z" fill="white"/>
<path d="M208.26 105.495H211.736C212.332 105.465 212.928 105.556 213.487 105.763C214.047 105.97 214.558 106.289 214.991 106.7C215.423 107.111 215.767 107.606 216.003 108.154C216.238 108.702 216.359 109.293 216.359 109.889C216.359 110.486 216.238 111.076 216.003 111.624C215.767 112.173 215.423 112.667 214.991 113.078C214.558 113.489 214.047 113.808 213.487 114.015C212.928 114.222 212.332 114.313 211.736 114.283H208.26V105.495ZM211.679 113.702C212.197 113.73 212.716 113.652 213.203 113.474C213.69 113.295 214.136 113.019 214.513 112.662C214.89 112.305 215.19 111.875 215.395 111.398C215.6 110.922 215.706 110.408 215.706 109.889C215.706 109.37 215.6 108.857 215.395 108.38C215.19 107.903 214.89 107.473 214.513 107.116C214.136 106.76 213.69 106.483 213.203 106.305C212.716 106.126 212.197 106.048 211.679 106.077H208.921V113.702H211.679Z" fill="white"/>
<path d="M218.609 105.495H219.259V114.283H218.609V105.495Z" fill="white"/>
<path d="M229.437 105.495V114.283H228.913L222.951 106.635V114.26H222.313V105.495H222.849L228.821 113.12V105.495H229.437Z" fill="white"/>
<path d="M238.783 109.906H239.399V113.189C238.535 113.951 237.415 114.358 236.264 114.329C235.661 114.359 235.057 114.267 234.491 114.057C233.924 113.847 233.406 113.524 232.968 113.108C232.53 112.691 232.182 112.19 231.943 111.635C231.705 111.08 231.582 110.482 231.582 109.878C231.582 109.274 231.705 108.676 231.943 108.12C232.182 107.565 232.53 107.064 232.968 106.648C233.406 106.232 233.924 105.909 234.491 105.699C235.057 105.489 235.661 105.396 236.264 105.427C236.847 105.403 237.428 105.498 237.972 105.706C238.517 105.914 239.014 106.23 239.433 106.635L239.022 107.057C238.66 106.705 238.229 106.432 237.756 106.253C237.284 106.075 236.78 105.995 236.276 106.02C235.667 106.041 235.072 106.205 234.539 106.5C234.006 106.794 233.55 107.211 233.209 107.715C232.867 108.22 232.65 108.797 232.574 109.402C232.499 110.006 232.567 110.62 232.774 111.192C232.981 111.765 233.32 112.281 233.764 112.698C234.208 113.115 234.744 113.421 235.329 113.591C235.913 113.761 236.53 113.791 237.128 113.677C237.727 113.564 238.29 113.311 238.772 112.938L238.783 109.906Z" fill="white"/>
<path d="M241.53 113.77C241.519 113.694 241.524 113.616 241.546 113.543C241.567 113.469 241.604 113.4 241.654 113.342C241.705 113.284 241.767 113.237 241.837 113.205C241.907 113.173 241.983 113.156 242.06 113.156C242.137 113.156 242.213 113.173 242.283 113.205C242.353 113.237 242.415 113.284 242.465 113.342C242.516 113.4 242.553 113.469 242.574 113.543C242.596 113.616 242.601 113.694 242.59 113.77C242.601 113.846 242.596 113.924 242.574 113.998C242.553 114.072 242.516 114.14 242.465 114.198C242.415 114.256 242.353 114.303 242.283 114.335C242.213 114.367 242.137 114.384 242.06 114.384C241.983 114.384 241.907 114.367 241.837 114.335C241.767 114.303 241.705 114.256 241.654 114.198C241.604 114.14 241.567 114.072 241.546 113.998C241.524 113.924 241.519 113.846 241.53 113.77Z" fill="white"/>
<path d="M244.037 113.77C244.026 113.694 244.032 113.616 244.053 113.543C244.075 113.469 244.112 113.4 244.162 113.342C244.212 113.284 244.275 113.237 244.345 113.205C244.414 113.173 244.49 113.156 244.567 113.156C244.644 113.156 244.72 113.173 244.79 113.205C244.86 113.237 244.923 113.284 244.973 113.342C245.023 113.4 245.06 113.469 245.082 113.543C245.103 113.616 245.109 113.694 245.097 113.77C245.109 113.846 245.103 113.924 245.082 113.998C245.06 114.072 245.023 114.14 244.973 114.198C244.923 114.256 244.86 114.303 244.79 114.335C244.72 114.367 244.644 114.384 244.567 114.384C244.49 114.384 244.414 114.367 244.345 114.335C244.275 114.303 244.212 114.256 244.162 114.198C244.112 114.14 244.075 114.072 244.053 113.998C244.032 113.924 244.026 113.846 244.037 113.77Z" fill="white"/>
<path d="M246.534 113.77C246.522 113.694 246.528 113.616 246.549 113.543C246.571 113.469 246.608 113.4 246.658 113.342C246.708 113.284 246.771 113.237 246.841 113.205C246.911 113.173 246.987 113.156 247.064 113.156C247.14 113.156 247.217 113.173 247.286 113.205C247.356 113.237 247.419 113.284 247.469 113.342C247.519 113.4 247.556 113.469 247.578 113.543C247.599 113.616 247.605 113.694 247.594 113.77C247.605 113.846 247.599 113.924 247.578 113.998C247.556 114.072 247.519 114.14 247.469 114.198C247.419 114.256 247.356 114.303 247.286 114.335C247.217 114.367 247.14 114.384 247.064 114.384C246.987 114.384 246.911 114.367 246.841 114.335C246.771 114.303 246.708 114.256 246.658 114.198C246.608 114.14 246.571 114.072 246.549 113.998C246.528 113.924 246.522 113.846 246.534 113.77Z" fill="white"/>
</g>
<path d="M288.922 34.9541H139.747V276.303H288.922V34.9541Z" stroke="#263238" stroke-linecap="round" stroke-linejoin="round"/>
<path d="M230.577 18.0626H198.116C197.529 18.0626 196.967 17.8296 196.552 17.4149C196.137 17.0002 195.904 16.4378 195.904 15.8514C195.904 15.2649 196.137 14.7025 196.552 14.2878C196.967 13.8732 197.529 13.6402 198.116 13.6402H230.577C231.163 13.6402 231.725 13.8732 232.14 14.2878C232.555 14.7025 232.788 15.2649 232.788 15.8514C232.788 16.4378 232.555 17.0002 232.14 17.4149C231.725 17.8296 231.163 18.0626 230.577 18.0626Z" fill="#263238"/>
<path d="M223.179 289.935C223.179 288.186 222.661 286.476 221.689 285.021C220.717 283.567 219.336 282.433 217.719 281.764C216.103 281.094 214.325 280.919 212.609 281.26C210.893 281.601 209.317 282.444 208.081 283.681C206.844 284.918 206.001 286.494 205.66 288.209C205.319 289.925 205.494 291.704 206.163 293.32C206.833 294.936 207.966 296.317 209.421 297.289C210.875 298.261 212.585 298.78 214.335 298.78C215.497 298.781 216.647 298.553 217.721 298.109C218.795 297.666 219.771 297.014 220.592 296.192C221.414 295.371 222.065 294.395 222.509 293.321C222.953 292.248 223.181 291.097 223.179 289.935Z" fill="white" stroke="#263238" stroke-width="0.704333" stroke-linecap="round" stroke-linejoin="round"/>
<path d="M218.825 285.456H209.855V294.426H218.825V285.456Z" fill="#263238"/>
<path d="M298.986 438.084C410.279 438.084 500.5 429.827 500.5 419.642C500.5 409.457 410.279 401.201 298.986 401.201C187.693 401.201 97.4727 409.457 97.4727 419.642C97.4727 429.827 187.693 438.084 298.986 438.084Z" fill="#263238" stroke="#263238" stroke-linecap="round" stroke-linejoin="round"/>
<path d="M383.182 192.324H341.58C303.811 192.324 273.193 222.942 273.193 260.711V335.367C273.193 373.136 303.811 403.754 341.58 403.754H383.182C420.951 403.754 451.569 373.136 451.569 335.367V260.711C451.569 222.942 420.951 192.324 383.182 192.324Z" fill="#14B8A6"/>
<mask id="mask1_15_570" style="mask-type:luminance" maskUnits="userSpaceOnUse" x="273" y="192" width="179" height="212">
<path d="M383.182 192.324H341.58C303.811 192.324 273.193 222.942 273.193 260.711V335.367C273.193 373.136 303.811 403.754 341.58 403.754H383.182C420.951 403.754 451.569 373.136 451.569 335.367V260.711C451.569 222.942 420.951 192.324 383.182 192.324Z" fill="white"/>
</mask>
<g mask="url(#mask1_15_570)">
<path opacity="0.3" d="M392.973 193.031C392.186 192.917 391.411 192.825 390.625 192.734L389.485 192.632C388.778 192.563 388.06 192.506 387.342 192.461L386.328 192.404C385.279 192.404 384.231 192.324 383.171 192.324H361.446L360.934 332.802C360.934 332.802 399.367 332.232 402.752 329.976C406.137 327.719 418.572 242.942 417.444 232.775C416.316 222.608 393.714 206.776 393.714 206.776V198.604C405.58 204.077 415.63 212.836 422.673 223.842C429.717 234.849 433.459 247.643 433.458 260.711V335.367C433.458 353.504 426.253 370.899 413.428 383.724C400.603 396.549 383.208 403.754 365.071 403.754H383.159C401.297 403.754 418.691 396.549 431.516 383.724C444.341 370.899 451.546 353.504 451.546 335.367V260.711C451.547 244.274 445.626 228.386 434.87 215.957C424.113 203.528 409.24 195.389 392.973 193.031Z" fill="black"/>
</g>
<path d="M383.182 192.324H341.58C303.811 192.324 273.193 222.942 273.193 260.711V335.367C273.193 373.136 303.811 403.754 341.58 403.754H383.182C420.951 403.754 451.569 373.136 451.569 335.367V260.711C451.569 222.942 420.951 192.324 383.182 192.324Z" stroke="#263238" stroke-linecap="round" stroke-linejoin="round"/>
<path d="M256.951 289.775H219.84C210.24 289.775 202.458 297.557 202.458 307.157V406.888C202.458 416.488 210.24 424.27 219.84 424.27H256.951C266.551 424.27 274.333 416.488 274.333 406.888V307.157C274.333 297.557 266.551 289.775 256.951 289.775Z" fill="#14B8A6"/>
<mask id="mask2_15_570" style="mask-type:luminance" maskUnits="userSpaceOnUse" x="202" y="289" width="73" height="136">
<path d="M256.951 289.775H219.84C210.24 289.775 202.458 297.557 202.458 307.157V406.888C202.458 416.488 210.24 424.27 219.84 424.27H256.951C266.551 424.27 274.333 416.488 274.333 406.888V307.157C274.333 297.557 266.551 289.775 256.951 289.775Z" fill="white"/>
</mask>
<g mask="url(#mask2_15_570)">
<path opacity="0.3" d="M256.951 289.775H219.84C210.24 289.775 202.458 297.557 202.458 307.157V406.888C202.458 416.488 210.24 424.27 219.84 424.27H256.951C266.551 424.27 274.333 416.488 274.333 406.888V307.157C274.333 297.557 266.551 289.775 256.951 289.775Z" fill="black"/>
</g>
<path d="M256.951 289.775H219.84C210.24 289.775 202.458 297.557 202.458 307.157V406.888C202.458 416.488 210.24 424.27 219.84 424.27H256.951C266.551 424.27 274.333 416.488 274.333 406.888V307.157C274.333 297.557 266.551 289.775 256.951 289.775Z" stroke="#263238" stroke-linecap="round" stroke-linejoin="round"/>
<path d="M204.692 289.775H225.208C229.818 289.775 234.239 291.607 237.499 294.866C240.759 298.126 242.59 302.547 242.59 307.157V420.702C242.59 421.648 242.214 422.556 241.545 423.225C240.876 423.894 239.969 424.27 239.022 424.27H190.878C189.932 424.27 189.024 423.894 188.355 423.225C187.686 422.556 187.31 421.648 187.31 420.702V307.157C187.31 302.547 189.142 298.126 192.401 294.866C195.661 291.607 200.082 289.775 204.692 289.775Z" fill="#14B8A6"/>
<mask id="mask3_15_570" style="mask-type:luminance" maskUnits="userSpaceOnUse" x="187" y="289" width="56" height="136">
<path d="M204.692 289.775H225.208C229.818 289.775 234.239 291.607 237.499 294.866C240.759 298.126 242.59 302.547 242.59 307.157V420.702C242.59 421.648 242.214 422.556 241.545 423.225C240.876 423.894 239.969 424.27 239.022 424.27H190.878C189.932 424.27 189.024 423.894 188.355 423.225C187.686 422.556 187.31 421.648 187.31 420.702V307.157C187.31 302.547 189.142 298.126 192.401 294.866C195.661 291.607 200.082 289.775 204.692 289.775Z" fill="white"/>
</mask>
<g mask="url(#mask3_15_570)">
<path opacity="0.3" d="M225.208 289.775H216.477C221.087 289.775 225.508 291.607 228.768 294.866C232.028 298.126 233.859 302.547 233.859 307.157V406.888C233.859 411.498 232.028 415.919 228.768 419.179C225.508 422.439 221.087 424.27 216.477 424.27H239.581C239.977 424.27 240.369 424.192 240.735 424.04C241.101 423.888 241.433 423.665 241.713 423.384C241.992 423.104 242.214 422.771 242.364 422.404C242.515 422.038 242.591 421.645 242.59 421.249V307.157C242.59 302.547 240.759 298.126 237.499 294.866C234.239 291.607 229.818 289.775 225.208 289.775Z" fill="black"/>
</g>
<path d="M204.692 289.775H225.208C229.818 289.775 234.239 291.607 237.499 294.866C240.759 298.126 242.59 302.547 242.59 307.157V420.702C242.59 421.648 242.214 422.556 241.545 423.225C240.876 423.894 239.969 424.27 239.022 424.27H190.878C189.932 424.27 189.024 423.894 188.355 423.225C187.686 422.556 187.31 421.648 187.31 420.702V307.157C187.31 302.547 189.142 298.126 192.401 294.866C195.661 291.607 200.082 289.775 204.692 289.775Z" stroke="#263238" stroke-linecap="round" stroke-linejoin="round"/>
<path d="M253.247 327.388H399.39C403.32 327.388 407.088 328.949 409.867 331.728C412.646 334.507 414.207 338.276 414.207 342.205V420.417C414.207 421.439 413.801 422.419 413.079 423.141C412.356 423.864 411.376 424.27 410.355 424.27H242.282C241.26 424.27 240.281 423.864 239.558 423.141C238.836 422.419 238.43 421.439 238.43 420.417V342.205C238.43 338.276 239.991 334.507 242.77 331.728C245.548 328.949 249.317 327.388 253.247 327.388Z" fill="#14B8A6" stroke="#263238" stroke-linecap="round" stroke-linejoin="round"/>
<path d="M238.43 372.41H397.703" stroke="#263238" stroke-linecap="round" stroke-linejoin="round"/>
<path d="M269.774 320.173C269.774 320.173 258.752 319.034 258.752 322.829C258.752 326.625 263.687 328.904 273.193 329.292C278.524 329.554 283.868 329.298 289.15 328.528C289.15 328.528 276.612 321.689 269.774 320.173Z" fill="white"/>
<mask id="mask4_15_570" style="mask-type:luminance" maskUnits="userSpaceOnUse" x="258" y="320" width="32" height="10">
<path d="M269.774 320.173C269.774 320.173 258.752 319.034 258.752 322.829C258.752 326.625 263.687 328.904 273.193 329.292C278.524 329.554 283.868 329.298 289.15 328.528C289.15 328.528 276.612 321.689 269.774 320.173Z" fill="white"/>
</mask>
<g mask="url(#mask4_15_570)">
<path opacity="0.15" d="M269.774 320.173C269.774 320.173 258.752 319.034 258.752 322.829C258.752 326.625 263.687 328.904 273.193 329.292C278.524 329.554 283.868 329.298 289.15 328.528C289.15 328.528 276.612 321.689 269.774 320.173Z" fill="black"/>
</g>
<path d="M269.774 320.173C269.774 320.173 258.752 319.034 258.752 322.829C258.752 326.625 263.687 328.904 273.193 329.292C278.524 329.554 283.868 329.298 289.15 328.528C289.15 328.528 276.612 321.689 269.774 320.173Z" stroke="#263238" stroke-linecap="round" stroke-linejoin="round"/>
<path d="M324.369 296.979C324.369 296.979 313.393 298.312 311.387 298.312C309.381 298.312 268.782 282.002 260.804 282.002C252.825 282.002 249.486 298.973 261.134 309.961C272.783 320.948 318.34 334.592 343.016 333.304C367.692 332.016 384.288 314.999 384.288 303.35C384.288 291.702 356.99 299.35 346.014 296.352C335.038 293.354 324.369 296.979 324.369 296.979Z" fill="#263238" stroke="#263238" stroke-linecap="round" stroke-linejoin="round"/>
<path d="M318.34 301.686C318.34 301.686 328.598 308.342 331.653 314.326" stroke="white" stroke-linecap="round" stroke-linejoin="round"/>
<path d="M391.947 213.775C380.629 199.801 355.998 198.467 339.688 201.123C339.688 201.123 321.714 206.457 318.385 214.105C315.057 221.753 297.129 255.548 297.129 255.548C297.129 255.548 276.612 267.23 268.828 270.228C263.129 272.439 254.649 273.978 250.591 274.628C247.286 273.146 237.951 269.043 235.318 269.043C232.093 269.043 228.229 275.494 230.155 277.42C232.081 279.346 238.692 283.7 243.992 283.313C245.827 285.171 293.401 276.155 298.348 275.403C303.295 274.65 327.39 241.734 327.39 241.734C327.39 241.734 329.054 271.368 327.059 283.005C325.065 294.642 320.403 296.682 321.736 297.321C323.07 297.959 332.713 303.316 356.682 303.647C380.652 303.977 392.3 295.668 392.3 295.668C392.3 295.668 400.621 254.397 401.954 243.74C403.288 233.083 403.265 227.794 391.947 213.775Z" fill="white"/>
<mask id="mask5_15_570" style="mask-type:luminance" maskUnits="userSpaceOnUse" x="229" y="200" width="174" height="104">
<path d="M391.947 213.775C380.629 199.801 355.998 198.467 339.688 201.123C339.688 201.123 321.714 206.457 318.385 214.105C315.057 221.753 297.129 255.548 297.129 255.548C297.129 255.548 276.612 267.23 268.828 270.228C263.129 272.439 254.649 273.978 250.591 274.628C247.286 273.146 237.951 269.043 235.318 269.043C232.093 269.043 228.229 275.494 230.155 277.42C232.081 279.346 238.692 283.7 243.992 283.313C245.827 285.171 293.401 276.155 298.348 275.403C303.295 274.65 327.39 241.734 327.39 241.734C327.39 241.734 329.054 271.368 327.059 283.005C325.065 294.642 320.403 296.682 321.736 297.321C323.07 297.959 332.713 303.316 356.682 303.647C380.652 303.977 392.3 295.668 392.3 295.668C392.3 295.668 400.621 254.397 401.954 243.74C403.288 233.083 403.265 227.794 391.947 213.775Z" fill="white"/>
</mask>
<g mask="url(#mask5_15_570)">
<path d="M285.696 273.511C285.696 273.511 263.186 279.21 255.378 281.17C251.514 282.139 247.172 282.868 243.775 283.358H243.969C245.519 284.931 279.815 278.719 293.333 276.315L285.696 273.511Z" fill="#14B8A6"/>
<path opacity="0.5" d="M285.696 273.511C285.696 273.511 263.186 279.21 255.378 281.17C251.514 282.139 247.172 282.868 243.775 283.358H243.969C245.519 284.931 279.815 278.719 293.333 276.315L285.696 273.511Z" fill="white"/>
</g>
<path d="M391.947 213.775C380.629 199.801 355.998 198.467 339.688 201.123C339.688 201.123 321.714 206.457 318.385 214.105C315.057 221.753 297.129 255.548 297.129 255.548C297.129 255.548 276.612 267.23 268.828 270.228C263.129 272.439 254.649 273.978 250.591 274.628C247.286 273.146 237.951 269.043 235.318 269.043C232.093 269.043 228.229 275.494 230.155 277.42C232.081 279.346 238.692 283.7 243.992 283.313C245.827 285.171 293.401 276.155 298.348 275.403C303.295 274.65 327.39 241.734 327.39 241.734C327.39 241.734 329.054 271.368 327.059 283.005C325.065 294.642 320.403 296.682 321.736 297.321C323.07 297.959 332.713 303.316 356.682 303.647C380.652 303.977 392.3 295.668 392.3 295.668C392.3 295.668 400.621 254.397 401.954 243.74C403.288 233.083 403.265 227.794 391.947 213.775Z" stroke="#263238" stroke-linecap="round" stroke-linejoin="round"/>
<path d="M250.568 274.662C250.568 274.662 247.001 268.963 245.679 267.823C244.357 266.683 241.701 265.931 239.239 264.985C236.777 264.039 233.54 260.426 233.369 261.383C233.198 262.341 232.799 263.469 234.885 265.168C236.238 266.259 237.697 267.214 239.239 268.017C239.239 268.017 236.401 270.091 236.583 272.747C236.766 275.403 241.507 276.166 245.291 276.725" fill="white"/>
<path d="M250.568 274.662C250.568 274.662 247.001 268.963 245.679 267.823C244.357 266.683 241.701 265.931 239.239 264.985C236.777 264.039 233.54 260.426 233.369 261.383C233.198 262.341 232.799 263.469 234.885 265.168C236.238 266.259 237.697 267.214 239.239 268.017C239.239 268.017 236.401 270.091 236.583 272.747C236.766 275.403 241.507 276.166 245.291 276.725" stroke="#263238" stroke-linecap="round" stroke-linejoin="round"/>
<path d="M217.686 252.983L211.36 255.354L237.301 276.862L240.288 270.969L217.686 252.983Z" fill="#263238" stroke="#263238" stroke-linecap="round" stroke-linejoin="round"/>
<path d="M231.853 278.811L220.866 271.037C220.866 271.037 218.028 262.329 219.92 262.147C221.812 261.965 221.629 268.769 221.629 268.769L223.328 270.091C223.328 270.091 222.575 263.845 223.521 263.652C224.467 263.458 224.843 264.985 225.037 266.113C225.231 267.242 226.177 270.285 226.177 270.285L227.511 271.037C227.33 269.277 227.265 267.506 227.317 265.737C227.511 264.791 228.833 265.361 229.027 266.683C229.22 268.006 230.542 273.317 230.542 273.317C230.542 273.317 232.822 266.877 233.38 268.575C233.939 270.274 233.187 273.887 233.187 273.887C233.187 273.887 238.487 277.101 238.886 278.811" fill="white"/>
<path d="M231.853 278.811L220.866 271.037C220.866 271.037 218.028 262.329 219.92 262.147C221.812 261.965 221.629 268.769 221.629 268.769L223.328 270.091C223.328 270.091 222.575 263.845 223.521 263.652C224.467 263.458 224.843 264.985 225.037 266.113C225.231 267.242 226.177 270.285 226.177 270.285L227.511 271.037C227.33 269.277 227.265 267.506 227.317 265.737C227.511 264.791 228.833 265.361 229.027 266.683C229.22 268.006 230.542 273.317 230.542 273.317C230.542 273.317 232.822 266.877 233.38 268.575C233.939 270.274 233.187 273.887 233.187 273.887C233.187 273.887 238.487 277.101 238.886 278.811" stroke="#263238" stroke-linecap="round" stroke-linejoin="round"/>
<path d="M230.577 273.317C230.577 273.317 233.335 279.848 234.771 280.703" stroke="#263238" stroke-linecap="round" stroke-linejoin="round"/>
<path d="M227.499 271.037C227.797 272.958 228.2 274.86 228.707 276.736" stroke="#263238" stroke-linecap="round" stroke-linejoin="round"/>
<path d="M223.328 270.091C223.571 271.508 224.248 272.814 225.265 273.83" stroke="#263238" stroke-linecap="round" stroke-linejoin="round"/>
<path d="M339.688 201.157C339.688 201.157 321.759 206.491 318.34 214.139C314.921 221.787 297.083 255.582 297.083 255.582C297.083 255.582 289.629 260.312 280.157 264.997C283.465 268.436 285.802 272.692 286.927 277.329C292.535 276.394 296.901 275.642 298.325 275.437C303.272 274.673 327.367 241.768 327.367 241.768C327.367 241.768 329.031 271.402 327.036 283.039C325.167 293.924 320.984 296.386 321.531 297.207C323.651 301.401 323.651 305.071 336.474 306.325C340.68 306.849 350.881 303.635 356.659 303.715C380.595 304.045 392.278 295.736 392.278 295.736C392.278 295.736 400.598 254.465 401.932 243.808C403.265 233.151 403.265 227.851 391.947 213.854C380.629 199.858 355.953 198.502 339.688 201.157Z" fill="white"/>
<mask id="mask6_15_570" style="mask-type:luminance" maskUnits="userSpaceOnUse" x="280" y="200" width="123" height="107">
<path d="M339.688 201.157C339.688 201.157 321.759 206.491 318.34 214.139C314.921 221.787 297.083 255.582 297.083 255.582C297.083 255.582 289.629 260.312 280.157 264.997C283.465 268.436 285.802 272.692 286.927 277.329C292.535 276.394 296.901 275.642 298.325 275.437C303.272 274.673 327.367 241.768 327.367 241.768C327.367 241.768 329.031 271.402 327.036 283.039C325.167 293.924 320.984 296.386 321.531 297.207C323.651 301.401 323.651 305.071 336.474 306.325C340.68 306.849 350.881 303.635 356.659 303.715C380.595 304.045 392.278 295.736 392.278 295.736C392.278 295.736 400.598 254.465 401.932 243.808C403.265 233.151 403.265 227.851 391.947 213.854C380.629 199.858 355.953 198.502 339.688 201.157Z" fill="white"/>
</mask>
<g mask="url(#mask6_15_570)">
<path opacity="0.15" d="M285.696 273.511C291.509 271.448 299.727 268.131 301.87 265.27C305.289 260.711 325.236 231.077 325.236 231.077C326.414 234.81 326.919 238.723 326.729 242.634C322.888 247.831 302.793 274.753 298.325 275.437C296.946 275.642 292.626 276.394 286.927 277.329C286.596 276.032 286.185 274.757 285.696 273.511ZM391.947 213.775C387.604 208.418 381.302 204.919 374.269 202.787C367.875 234.644 360.341 281.831 355.44 286.322C348.601 292.591 338.343 296.01 346.014 296.318C353.685 296.625 354.87 294.3 354.87 298.29C354.953 300.143 354.718 301.998 354.175 303.772C355 303.682 355.829 303.64 356.659 303.647C380.595 303.977 392.278 295.668 392.278 295.668C392.278 295.668 400.598 254.397 401.932 243.74C403.265 233.083 403.265 227.794 391.947 213.775Z" fill="black"/>
<path d="M324.483 227.657L327.367 241.768L321.064 224.238" stroke="#263238" stroke-linecap="round" stroke-linejoin="round"/>
</g>
<path d="M339.688 201.157C339.688 201.157 321.759 206.491 318.34 214.139C314.921 221.787 297.083 255.582 297.083 255.582C297.083 255.582 289.629 260.312 280.157 264.997C283.465 268.436 285.802 272.692 286.927 277.329C292.535 276.394 296.901 275.642 298.325 275.437C303.272 274.673 327.367 241.768 327.367 241.768C327.367 241.768 329.031 271.402 327.036 283.039C325.167 293.924 320.984 296.386 321.531 297.207C323.651 301.401 323.651 305.071 336.474 306.325C340.68 306.849 350.881 303.635 356.659 303.715C380.595 304.045 392.278 295.736 392.278 295.736C392.278 295.736 400.598 254.465 401.932 243.808C403.265 233.151 403.265 227.851 391.947 213.854C380.629 199.858 355.953 198.502 339.688 201.157Z" stroke="#263238" stroke-linecap="round" stroke-linejoin="round"/>
<path d="M368.98 333.965C368.98 333.965 386.818 333.498 396.597 317.324C404.257 304.684 396.597 292.032 383.627 290.699C370.656 289.365 361.72 300.489 350.003 306.656C326.068 319.296 305.734 320.629 292.421 322.293C279.109 323.958 281.434 325.622 294.416 330.272C307.398 334.922 344.008 339.96 368.98 333.965Z" fill="#263238" stroke="#263238" stroke-linecap="round" stroke-linejoin="round"/>
<path d="M323.344 318.84C323.344 318.84 341.922 313.494 357.993 303.35" stroke="white" stroke-linecap="round" stroke-linejoin="round"/>
<path d="M368.98 333.965C368.98 333.965 382.954 329.314 390.636 311.671" stroke="#263238" stroke-linecap="round" stroke-linejoin="round"/>
<path d="M260.804 282.048C260.804 282.048 254.147 280.384 249.155 289.365C244.163 298.347 248.152 309.004 261.465 318.999C274.777 328.995 310.361 334.592 311.387 334.592C312.413 334.592 315.718 320.914 315.718 320.914L271.449 289.627" fill="#263238"/>
<path d="M260.804 282.048C260.804 282.048 254.147 280.384 249.155 289.365C244.163 298.347 248.152 309.004 261.465 318.999C274.777 328.995 310.361 334.592 311.387 334.592C312.413 334.592 315.718 320.914 315.718 320.914L271.449 289.627" stroke="#263238" stroke-linecap="round" stroke-linejoin="round"/>
<path d="M281.479 296.808L277.752 293.765" stroke="white" stroke-linecap="round" stroke-linejoin="round"/>
<path d="M305.677 316.56L285.89 300.41" stroke="white" stroke-linecap="round" stroke-linejoin="round"/>
<path d="M317.382 324.334C317.382 324.334 340.349 331.982 348.339 331.982C356.329 331.982 377.631 329.326 376.959 334.979C376.286 340.633 369.311 341.636 358.654 340.678C347.997 339.721 313.781 334.307 313.781 334.307L317.382 324.334Z" fill="white"/>
<mask id="mask7_15_570" style="mask-type:luminance" maskUnits="userSpaceOnUse" x="313" y="324" width="64" height="17">
<path d="M317.382 324.334C317.382 324.334 340.349 331.982 348.339 331.982C356.329 331.982 377.631 329.326 376.959 334.979C376.286 340.633 369.311 341.636 358.654 340.678C347.997 339.721 313.781 334.307 313.781 334.307L317.382 324.334Z" fill="white"/>
</mask>
<g mask="url(#mask7_15_570)">
<path opacity="0.15" d="M317.382 324.334C317.382 324.334 340.349 331.982 348.339 331.982C356.329 331.982 377.631 329.326 376.959 334.979C376.286 340.633 369.311 341.636 358.654 340.678C347.997 339.721 313.781 334.307 313.781 334.307L317.382 324.334Z" fill="black"/>
</g>
<path d="M317.382 324.334C317.382 324.334 340.349 331.982 348.339 331.982C356.329 331.982 377.631 329.326 376.959 334.979C376.286 340.633 369.311 341.636 358.654 340.678C347.997 339.721 313.781 334.307 313.781 334.307L317.382 324.334Z" stroke="#263238" stroke-linecap="round" stroke-linejoin="round"/>
<path d="M310.726 316.355L303.739 334.33C307.257 335.066 310.81 335.621 314.385 335.994C316.721 335.994 319.377 321.005 319.377 320.037C319.377 319.068 310.726 316.355 310.726 316.355Z" fill="white" stroke="#263238" stroke-linecap="round" stroke-linejoin="round"/>
<path d="M414.241 289.775H434.757C439.367 289.775 443.788 291.607 447.048 294.866C450.308 298.126 452.139 302.547 452.139 307.157V420.702C452.139 421.648 451.763 422.556 451.094 423.225C450.425 423.894 449.518 424.27 448.571 424.27H400.404C399.458 424.27 398.551 423.894 397.882 423.225C397.213 422.556 396.837 421.648 396.837 420.702V307.157C396.837 302.547 398.668 298.126 401.928 294.866C405.187 291.607 409.609 289.775 414.218 289.775H414.241Z" fill="#14B8A6"/>
<mask id="mask8_15_570" style="mask-type:luminance" maskUnits="userSpaceOnUse" x="396" y="289" width="57" height="136">
<path d="M414.241 289.775H434.757C439.367 289.775 443.788 291.607 447.048 294.866C450.308 298.126 452.139 302.547 452.139 307.157V420.702C452.139 421.648 451.763 422.556 451.094 423.225C450.425 423.894 449.518 424.27 448.571 424.27H400.404C399.458 424.27 398.551 423.894 397.882 423.225C397.213 422.556 396.837 421.648 396.837 420.702V307.157C396.837 302.547 398.668 298.126 401.928 294.866C405.187 291.607 409.609 289.775 414.218 289.775H414.241Z" fill="white"/>
</mask>
<g mask="url(#mask8_15_570)">
<path opacity="0.3" d="M434.757 289.775H426.015C430.625 289.775 435.046 291.607 438.306 294.866C441.566 298.126 443.397 302.547 443.397 307.157V406.888C443.397 411.498 441.566 415.919 438.306 419.179C435.046 422.439 430.625 424.27 426.015 424.27H449.119C449.92 424.27 450.688 423.952 451.254 423.385C451.821 422.819 452.139 422.05 452.139 421.249V307.157C452.139 302.547 450.308 298.126 447.048 294.866C443.788 291.607 439.367 289.775 434.757 289.775Z" fill="black"/>
</g>
<path d="M414.241 289.775H434.757C439.367 289.775 443.788 291.607 447.048 294.866C450.308 298.126 452.139 302.547 452.139 307.157V420.702C452.139 421.648 451.763 422.556 451.094 423.225C450.425 423.894 449.518 424.27 448.571 424.27H400.404C399.458 424.27 398.551 423.894 397.882 423.225C397.213 422.556 396.837 421.648 396.837 420.702V307.157C396.837 302.547 398.668 298.126 401.928 294.866C405.187 291.607 409.609 289.775 414.218 289.775H414.241Z" stroke="#263238" stroke-linecap="round" stroke-linejoin="round"/>
<path d="M326.033 157.23C326.033 157.23 311.387 161.55 316.049 166.542C320.711 171.534 334.696 169.209 334.696 169.209L326.033 157.23Z" fill="#263238" stroke="#263238" stroke-linecap="round" stroke-linejoin="round"/>
<path d="M341.683 203.824C341.683 203.824 350.664 224.124 352.67 220.135C354.676 216.145 354.95 196.507 354.95 196.507L341.683 203.824Z" stroke="#263238" stroke-linecap="round" stroke-linejoin="round"/>
<path d="M329.156 162.222C325.486 168.445 325.498 176.72 327.72 183.821C328.393 185.953 323.503 189.178 323.503 190.512C323.503 191.845 327.162 192.176 327.162 192.176C327.162 192.176 331.254 205.306 334.582 205.967C337.91 206.628 351.793 200.166 354.118 198.502C356.443 196.837 356.124 180.197 352.123 173.198C348.122 166.2 336.143 156.558 329.156 162.222Z" fill="white"/>
<mask id="mask9_15_570" style="mask-type:luminance" maskUnits="userSpaceOnUse" x="323" y="160" width="33" height="47">
<path d="M329.156 162.222C325.486 168.445 325.498 176.72 327.72 183.821C328.393 185.953 323.503 189.178 323.503 190.512C323.503 191.845 327.162 192.176 327.162 192.176C327.162 192.176 331.254 205.306 334.582 205.967C337.91 206.628 351.793 200.166 354.118 198.502C356.443 196.837 356.124 180.197 352.123 173.198C348.122 166.2 336.143 156.558 329.156 162.222Z" fill="white"/>
</mask>
<g mask="url(#mask9_15_570)">
<path d="M354.118 198.502C356.454 196.837 356.124 180.197 352.123 173.198C349.702 169.274 346.43 165.943 342.549 163.453C339.05 167.442 336.291 170.736 336.291 170.736C336.291 170.736 344.099 183.741 344.965 193.281C345.752 202.035 334.844 204.577 333.077 204.93C333.179 205.052 333.289 205.166 333.408 205.272L334.867 206.001C338.628 206.298 351.85 200.097 354.118 198.502Z" fill="#14B8A6"/>
<path opacity="0.5" d="M354.118 198.502C356.454 196.837 356.124 180.197 352.123 173.198C349.702 169.274 346.43 165.943 342.549 163.453C339.05 167.442 336.291 170.736 336.291 170.736C336.291 170.736 344.099 183.741 344.965 193.281C345.752 202.035 334.844 204.577 333.077 204.93C333.179 205.052 333.289 205.166 333.408 205.272L334.867 206.001C338.628 206.298 351.85 200.097 354.118 198.502Z" fill="white"/>
</g>
<path d="M329.156 162.222C325.486 168.445 325.498 176.72 327.72 183.821C328.393 185.953 323.503 189.178 323.503 190.512C323.503 191.845 327.162 192.176 327.162 192.176C327.162 192.176 331.254 205.306 334.582 205.967C337.91 206.628 351.793 200.166 354.118 198.502C356.443 196.837 356.124 180.197 352.123 173.198C348.122 166.2 336.143 156.558 329.156 162.222Z" stroke="#263238" stroke-linecap="round" stroke-linejoin="round"/>
<path d="M330.878 182.043L330.581 184.71C330.581 184.71 334.422 185.85 335.311 184.414" stroke="#263238" stroke-linecap="round" stroke-linejoin="round"/>
<path d="M330.33 180.402C330.33 180.402 332.359 176.983 336.2 180.265" stroke="#263238" stroke-linecap="round" stroke-linejoin="round"/>
<path d="M334.126 185.303L332.063 186.181" stroke="#263238" stroke-linecap="round" stroke-linejoin="round"/>
<path d="M341.022 147.907C341.022 147.907 322.705 149.571 322.705 158.165C322.705 166.759 346.515 181.861 346.515 181.861L350.664 270.388H379.626C379.626 270.388 378.292 174.851 378.292 165.197C378.292 155.543 358.323 144.909 341.022 147.907Z" fill="#263238" stroke="#263238" stroke-linecap="round" stroke-linejoin="round"/>
<path d="M346.515 181.861C346.515 181.861 374.246 203.517 377.666 225.56" stroke="white" stroke-linecap="round" stroke-linejoin="round"/>
<path d="M362.791 243.056C362.738 244.431 362.647 245.822 362.518 247.227" stroke="white" stroke-linecap="round" stroke-linejoin="round"/>
<path d="M352.978 188.335C359.06 203.711 362.382 220.04 362.791 236.57" stroke="white" stroke-linecap="round" stroke-linejoin="round"/>
<path d="M354.118 160.205C354.118 160.205 367.932 169.232 374.919 189.235" stroke="white" stroke-linecap="round" stroke-linejoin="round"/>
<path d="M376.378 193.977C376.879 195.812 377.312 197.738 377.666 199.733" stroke="white" stroke-linecap="round" stroke-linejoin="round"/>
<path d="M398.934 224.124C402.593 229.458 405.26 232.786 403.265 240.081C401.271 247.375 366.313 297.993 361.982 297.663C357.651 297.332 354.334 295.383 352.328 289.684C350.322 283.985 358.027 275.038 358.027 275.038L381.507 233.915C381.507 233.915 385.963 227.452 391.24 225.287" fill="white"/>
<mask id="mask10_15_570" style="mask-type:luminance" maskUnits="userSpaceOnUse" x="351" y="224" width="53" height="74">
<path d="M398.934 224.124C402.593 229.458 405.26 232.786 403.265 240.081C401.271 247.375 366.313 297.993 361.982 297.663C357.651 297.332 354.334 295.383 352.328 289.684C350.322 283.985 358.027 275.038 358.027 275.038L381.507 233.915C381.507 233.915 385.963 227.452 391.24 225.287" fill="white"/>
</mask>
<g mask="url(#mask10_15_570)">
<path opacity="0.15" d="M392.209 240.092C383.535 243.512 354.061 283.404 354.061 283.404C354.061 283.404 353.365 286.55 352.773 290.801C354.802 295.588 357.959 297.344 361.982 297.64C365.789 297.936 393.281 258.887 401.214 244.435C400.837 242.406 399.264 237.288 392.209 240.092Z" fill="black"/>
</g>
<path d="M398.934 224.124C402.593 229.458 405.26 232.786 403.265 240.081C401.271 247.375 366.313 297.993 361.982 297.663C357.651 297.332 354.334 295.383 352.328 289.684C350.322 283.985 358.027 275.038 358.027 275.038L381.507 233.915C381.507 233.915 385.963 227.452 391.24 225.287" stroke="#263238" stroke-linecap="round" stroke-linejoin="round"/>
<path d="M365.071 282.754C362.791 274.776 347.735 234.245 347.735 231.783C347.735 229.116 348.396 209.147 348.396 209.147L347.062 207.153C347.062 207.153 343.734 202.491 342.07 202.491C340.406 202.491 340.076 204.485 339.414 205.488C338.753 206.491 335.083 207.153 334.411 208.817L333.75 210.481C333.203 210.865 332.743 211.36 332.399 211.933C332.056 212.506 331.836 213.145 331.755 213.809C331.425 216.145 337.078 228.786 337.75 232.114C338.423 235.442 346.732 279.05 348.727 287.37C350.721 295.691 355.713 303.327 358.05 303.327C358.05 303.327 364.045 299.327 365.709 294.335" fill="white"/>
<mask id="mask11_15_570" style="mask-type:luminance" maskUnits="userSpaceOnUse" x="331" y="202" width="35" height="102">
<path d="M365.071 282.754C362.791 274.776 347.735 234.245 347.735 231.783C347.735 229.116 348.396 209.147 348.396 209.147L347.062 207.153C347.062 207.153 343.734 202.491 342.07 202.491C340.406 202.491 340.076 204.485 339.414 205.488C338.753 206.491 335.083 207.153 334.411 208.817L333.75 210.481C333.203 210.865 332.743 211.36 332.399 211.933C332.056 212.506 331.836 213.145 331.755 213.809C331.425 216.145 337.078 228.786 337.75 232.114C338.423 235.442 346.732 279.05 348.727 287.37C350.721 295.691 355.713 303.327 358.05 303.327C358.05 303.327 364.045 299.327 365.709 294.335" fill="white"/>
</mask>
<g mask="url(#mask11_15_570)">
<path d="M336.725 220.146C336.725 222.768 348.328 283.096 355.702 301.869C356.256 302.624 357.066 303.151 357.982 303.35C357.982 303.35 363.977 299.35 365.641 294.357L365.071 282.754C362.791 274.776 347.723 234.245 347.723 231.783C347.723 229.116 348.385 209.147 348.385 209.147L347.051 207.153C347.051 207.153 336.725 217.114 336.725 220.146Z" fill="#14B8A6"/>
<path opacity="0.5" d="M336.725 220.146C336.725 222.768 348.328 283.096 355.702 301.869C356.256 302.624 357.066 303.151 357.982 303.35C357.982 303.35 363.977 299.35 365.641 294.357L365.071 282.754C362.791 274.776 347.723 234.245 347.723 231.783C347.723 229.116 348.385 209.147 348.385 209.147L347.051 207.153C347.051 207.153 336.725 217.114 336.725 220.146Z" fill="white"/>
</g>
<path d="M365.071 282.754C362.791 274.776 347.735 234.245 347.735 231.783C347.735 229.116 348.396 209.147 348.396 209.147L347.062 207.153C347.062 207.153 343.734 202.491 342.07 202.491C340.406 202.491 340.076 204.485 339.414 205.488C338.753 206.491 335.083 207.153 334.411 208.817L333.75 210.481C333.203 210.865 332.743 211.36 332.399 211.933C332.056 212.506 331.836 213.145 331.755 213.809C331.425 216.145 337.078 228.786 337.75 232.114C338.423 235.442 346.732 279.05 348.727 287.37C350.721 295.691 355.713 303.327 358.05 303.327C358.05 303.327 364.045 299.327 365.709 294.335" stroke="#263238" stroke-linecap="round" stroke-linejoin="round"/>
<path d="M365.071 282.754C363.772 278.412 359.623 266.718 355.816 255.969C350.778 261.509 346.983 264.415 344.316 265.931C346.196 275.46 347.951 284.111 348.727 287.37C350.721 295.691 355.713 303.327 358.05 303.327C358.05 303.327 364.045 299.327 365.709 294.335" fill="white"/>
<mask id="mask12_15_570" style="mask-type:luminance" maskUnits="userSpaceOnUse" x="344" y="255" width="22" height="49">
<path d="M365.071 282.754C363.772 278.412 359.623 266.718 355.816 255.969C350.778 261.509 346.983 264.415 344.316 265.931C346.196 275.46 347.951 284.111 348.727 287.37C350.721 295.691 355.713 303.327 358.05 303.327C358.05 303.327 364.045 299.327 365.709 294.335" fill="white"/>
</mask>
<g mask="url(#mask12_15_570)">
<path opacity="0.15" d="M336.725 220.146C336.725 222.768 348.328 283.096 355.702 301.869C356.256 302.624 357.066 303.151 357.982 303.35C357.982 303.35 364.82 298.518 366.496 293.525L365.014 282.754C362.734 274.776 347.667 234.245 347.667 231.783C347.667 229.116 348.328 209.147 348.328 209.147L346.994 207.153C346.994 207.153 336.725 217.114 336.725 220.146Z" fill="black"/>
</g>
<path d="M365.071 282.754C363.772 278.412 359.623 266.718 355.816 255.969C350.778 261.509 346.983 264.415 344.316 265.931C346.196 275.46 347.951 284.111 348.727 287.37C350.721 295.691 355.713 303.327 358.05 303.327C358.05 303.327 364.045 299.327 365.709 294.335" stroke="#263238" stroke-linecap="round" stroke-linejoin="round"/>
</svg>
