<svg width="345" height="292" viewBox="0 0 345 292" fill="none" xmlns="http://www.w3.org/2000/svg">
<path d="M172.75 292C267.881 292 345 250.101 345 198.416C345 146.73 267.881 104.831 172.75 104.831C77.619 104.831 0.5 146.73 0.5 198.416C0.5 250.101 77.619 292 172.75 292Z" fill="#F5F5F5"/>
<path d="M58.4995 244.552C78.663 244.552 95.0088 235.178 95.0088 223.613C95.0088 212.048 78.663 202.673 58.4995 202.673C38.336 202.673 21.9903 212.048 21.9903 223.613C21.9903 235.178 38.336 244.552 58.4995 244.552Z" fill="#E0E0E0"/>
<path d="M13.7236 43.4783C16.846 41.8419 21.0848 42.1599 25.7528 44.8433C27.9867 46.1543 30.0344 47.7557 31.8416 49.6051C38.4378 56.2127 43.1215 66.1939 43.1215 74.7403C43.1215 85.7608 50.9276 99.1466 60.5057 104.661L77.8899 114.626L151.978 72.1423L134.617 62.1688C125.023 56.6703 117.233 43.2689 117.233 32.2563C117.233 21.2436 109.427 7.8578 99.8486 2.35147C95.1649 -0.355166 90.8403 -0.642113 87.7101 1.06407L87.2885 1.29673L62.8475 15.3262L58.9445 17.5365L13.7236 43.4783Z" fill="#E6E6E6"/>
<path d="M233.341 102.73C233.256 102.673 233.155 102.643 233.052 102.643C232.95 102.643 232.849 102.673 232.764 102.73L230.632 103.963C230.404 104.116 230.215 104.32 230.08 104.558C229.944 104.796 229.866 105.062 229.852 105.335V130.207L319.622 180.811L323.158 154.218L233.341 102.73Z" fill="#263238"/>
<path d="M323.119 154.187C323.03 154.155 322.934 154.146 322.84 154.159C322.747 154.173 322.658 154.209 322.581 154.264L320.403 155.466C320.166 155.605 319.971 155.807 319.841 156.048L230.047 104.544C230.184 104.308 230.377 104.108 230.609 103.963L232.756 102.737C232.841 102.681 232.942 102.651 233.045 102.651C233.147 102.651 233.248 102.681 233.333 102.737L323.119 154.187Z" fill="#455A64"/>
<path d="M322.581 154.256L320.403 155.466C320.174 155.619 319.984 155.822 319.848 156.06C319.713 156.299 319.635 156.565 319.622 156.839V180.788L323.369 182.913V154.691C323.377 154.21 323.018 154.008 322.581 154.256Z" fill="#37474F"/>
<path d="M319.63 180.811V182.447L314.017 184.929L224.2 133.402L229.813 130.207L319.63 180.811Z" fill="black"/>
<path d="M315.891 188.155L322.581 184.278C322.81 184.126 323 183.922 323.136 183.684C323.272 183.445 323.349 183.178 323.361 182.905L319.614 180.78C319.603 181.054 319.526 181.321 319.39 181.559C319.254 181.798 319.064 182.001 318.834 182.153L316.687 183.386C316.25 183.634 315.907 183.432 315.907 182.928L315.891 188.155Z" fill="#37474F"/>
<path d="M336.554 185.565C336.97 185.282 337.314 184.905 337.558 184.466C337.802 184.027 337.939 183.538 337.959 183.037V102.559C337.931 102.042 337.781 101.538 337.521 101.089C337.261 100.641 336.897 100.259 336.46 99.9765L232.545 40.3686C232.111 40.0973 231.611 39.9488 231.098 39.9391C230.586 39.9293 230.08 40.0586 229.636 40.3131C229.192 40.5676 228.826 40.9376 228.578 41.3834C228.33 41.8291 228.209 42.3336 228.228 42.8425V123.32C228.257 123.838 228.409 124.342 228.67 124.791C228.932 125.239 229.297 125.621 229.735 125.903L333.673 185.511C334.116 185.741 334.607 185.865 335.107 185.874C335.607 185.884 336.102 185.778 336.554 185.565Z" fill="#14B8A6"/>
<path d="M335.149 104.172V184.65C335.149 185.596 334.477 185.984 333.65 185.511L229.735 125.903C229.297 125.62 228.932 125.239 228.67 124.791C228.409 124.342 228.257 123.838 228.228 123.32V42.8424C228.228 41.8962 228.907 41.5085 229.735 41.9815L333.673 101.59C334.106 101.875 334.465 102.257 334.721 102.706C334.977 103.155 335.124 103.657 335.149 104.172Z" fill="#14B8A6"/>
<path opacity="0.2" d="M337.959 102.559V183.037C337.939 183.538 337.802 184.027 337.558 184.466C337.314 184.905 336.97 185.281 336.554 185.565C336.153 185.758 335.716 185.865 335.271 185.88C334.826 185.895 334.383 185.816 333.97 185.65C334.641 185.867 335.149 185.48 335.149 184.65V104.164C335.128 103.647 334.978 103.143 334.712 102.699L337.514 101.085C337.787 101.53 337.941 102.038 337.959 102.559Z" fill="black"/>
<path d="M326.702 125.15V137.846C326.702 138.8 326.031 139.18 325.204 138.707L308.506 129.098C308.07 128.816 307.708 128.436 307.447 127.989C307.187 127.541 307.036 127.039 307.008 126.523V113.851C307.008 112.905 307.679 112.517 308.506 112.99L325.204 122.568C325.641 122.851 326.004 123.232 326.265 123.681C326.525 124.13 326.675 124.633 326.702 125.15Z" fill="#455A64"/>
<mask id="mask0_19_1461" style="mask-type:luminance" maskUnits="userSpaceOnUse" x="307" y="112" width="20" height="27">
<path d="M326.702 125.15V137.846C326.702 138.8 326.031 139.18 325.204 138.707L308.506 129.098C308.07 128.816 307.708 128.436 307.447 127.989C307.187 127.541 307.036 127.039 307.008 126.523V113.851C307.008 112.905 307.679 112.517 308.506 112.99L325.204 122.568C325.641 122.851 326.004 123.232 326.265 123.681C326.525 124.13 326.675 124.633 326.702 125.15Z" fill="white"/>
</mask>
<g mask="url(#mask0_19_1461)">
<path d="M304.363 115.055L304.023 115.639L329.342 130.173L329.682 129.589L304.363 115.055Z" fill="white"/>
<path d="M321.418 125.042H320.739V131.51H321.418V125.042Z" fill="white"/>
<path d="M312.979 120.226H312.3V126.686H312.979V120.226Z" fill="white"/>
<path d="M304.362 121.54L304.022 122.124L329.341 136.659L329.681 136.075L304.362 121.54Z" fill="white"/>
</g>
<path d="M326.702 149.363V152.364C326.702 153.318 326.031 153.698 325.204 153.225L308.506 143.647C308.07 143.365 307.708 142.985 307.447 142.538C307.187 142.09 307.036 141.588 307.008 141.072V138.055C307.008 137.101 307.679 136.721 308.506 137.195L325.204 146.772C325.642 147.056 326.006 147.438 326.266 147.889C326.527 148.339 326.676 148.844 326.702 149.363Z" fill="#FAFAFA"/>
<path d="M303.229 135.907V138.924C303.229 139.87 302.558 140.258 301.731 139.785L285.033 130.207C284.596 129.924 284.233 129.543 283.972 129.094C283.712 128.645 283.562 128.142 283.535 127.624V124.615C283.535 123.661 284.206 123.274 285.033 123.754L301.731 133.332C302.167 133.614 302.529 133.994 302.79 134.442C303.05 134.889 303.201 135.391 303.229 135.907Z" fill="#FAFAFA"/>
<path d="M279.811 122.459V125.476C279.811 126.422 279.14 126.81 278.312 126.337L261.615 116.759C261.178 116.476 260.815 116.095 260.554 115.646C260.294 115.197 260.144 114.694 260.116 114.177V111.16C260.116 110.214 260.788 109.826 261.615 110.299L278.312 119.877C278.748 120.16 279.111 120.542 279.371 120.991C279.632 121.439 279.782 121.942 279.811 122.459Z" fill="#FAFAFA"/>
<path d="M256.393 109.011V112.036C256.393 112.99 255.721 113.378 254.894 112.897L238.197 103.327C237.761 103.043 237.398 102.661 237.138 102.213C236.878 101.764 236.727 101.261 236.698 100.744V97.7274C236.698 96.7812 237.369 96.3934 238.197 96.8665L254.894 106.444C255.329 106.726 255.691 107.105 255.951 107.55C256.212 107.996 256.363 108.497 256.393 109.011Z" fill="#FAFAFA"/>
<path opacity="0.15" d="M246.01 112.649L249.843 114.843C250.104 115.015 250.321 115.244 250.477 115.513C250.633 115.783 250.723 116.084 250.741 116.395V117.558C250.741 118.124 250.335 118.333 249.843 118.07L246.01 115.914C245.749 115.743 245.532 115.514 245.376 115.244C245.22 114.975 245.13 114.673 245.113 114.363V113.199C245.113 112.594 245.519 112.362 246.01 112.649Z" fill="black"/>
<path opacity="0.15" d="M237.572 107.809L241.397 110.004C241.66 110.174 241.88 110.402 242.037 110.672C242.194 110.941 242.285 111.244 242.303 111.555V112.719C242.303 113.292 241.897 113.494 241.397 113.238L237.572 111.043C237.31 110.874 237.092 110.645 236.936 110.375C236.78 110.105 236.69 109.803 236.674 109.492V108.329C236.674 107.755 237.072 107.522 237.572 107.809Z" fill="black"/>
<path opacity="0.15" d="M285.892 143.593L238.275 116.263C237.447 115.79 236.776 116.17 236.776 117.124V118.52C236.803 119.037 236.953 119.54 237.214 119.989C237.474 120.438 237.838 120.819 238.275 121.102L285.892 148.432C286.719 148.905 287.391 148.525 287.391 147.571V146.16C287.361 145.645 287.21 145.145 286.949 144.699C286.689 144.253 286.327 143.874 285.892 143.593Z" fill="black"/>
<path d="M237.978 64.7669C237.303 63.48 236.965 62.0453 236.994 60.5945C236.994 59.0435 237.314 58.0042 237.955 57.5389C238.595 57.0736 239.516 57.1977 240.718 57.8801C241.207 58.16 241.665 58.4901 242.084 58.8651C242.478 59.2081 242.827 59.5989 243.122 60.0284C243.184 60.109 243.219 60.2064 243.224 60.3076C243.227 60.3775 243.205 60.4463 243.161 60.5015L242.802 61.1297C242.755 61.1995 242.708 61.2227 242.662 61.1917C242.59 61.1451 242.529 61.0844 242.482 61.0133C242.063 60.4495 241.531 59.9771 240.921 59.6251C240.211 59.2218 239.656 59.1753 239.266 59.4933C238.876 59.8112 238.681 60.5015 238.681 61.5717C238.655 62.5299 238.864 63.48 239.289 64.3404C239.665 65.0785 240.248 65.6927 240.968 66.1086C241.444 66.4382 242.02 66.5943 242.599 66.5507C242.658 66.5332 242.72 66.5332 242.779 66.5507C242.826 66.5507 242.872 66.6282 242.919 66.7833L243.325 67.9311C243.346 67.9912 243.36 68.0538 243.364 68.1173C243.364 68.1716 243.325 68.2181 243.239 68.2491C242.701 68.4507 241.873 68.2491 240.749 67.5899C239.578 66.9249 238.618 65.9469 237.978 64.7669Z" fill="white"/>
<path d="M244.309 69.2961C244.229 69.1403 244.191 68.9666 244.199 68.792V60.6798C244.199 60.486 244.199 60.3541 244.309 60.2921C244.418 60.23 244.496 60.2533 244.66 60.3464L247.275 61.8432C248.096 62.2805 248.777 62.9387 249.24 63.7424C249.702 64.5461 249.927 65.4628 249.89 66.3878C249.921 66.8946 249.816 67.4004 249.586 67.8536C249.493 68.0126 249.358 68.1435 249.195 68.2323C249.033 68.3211 248.85 68.3644 248.665 68.3577L249.75 72.1268C249.76 72.1962 249.76 72.2668 249.75 72.3362C249.75 72.4991 249.679 72.5378 249.531 72.4525L248.384 71.8011C248.304 71.7561 248.233 71.6985 248.173 71.6305C248.109 71.5461 248.066 71.4477 248.048 71.3435L247.127 67.8303L245.901 67.1246V69.8079C245.919 69.9429 245.882 70.0794 245.8 70.188C245.729 70.25 245.605 70.188 245.433 70.1259L244.652 69.6839C244.499 69.5938 244.379 69.4581 244.309 69.2961ZM247.025 66.1086C247.416 66.3335 247.712 66.3878 247.907 66.287C248.103 66.1862 248.204 65.8837 248.204 65.4106C248.217 64.9983 248.123 64.5896 247.931 64.2241C247.748 63.8986 247.478 63.6301 247.15 63.4485L245.925 62.7428V65.4727L247.025 66.1086Z" fill="white"/>
<path d="M250.85 73.0497C250.771 72.8939 250.733 72.7202 250.741 72.5456V64.4334C250.741 64.2318 250.741 64.1077 250.85 64.0456C250.96 63.9836 251.038 64.0069 251.202 64.0999L255.487 66.5584C255.631 66.6309 255.751 66.7443 255.831 66.8841C255.9 67.0402 255.932 67.2101 255.924 67.3805V67.8846C255.942 68.0258 255.909 68.1688 255.831 68.2878C255.768 68.3421 255.651 68.2878 255.487 68.2258L252.443 66.4808V68.6058L254.566 69.8312C254.711 69.8996 254.831 70.0107 254.909 70.1491C254.979 70.308 255.011 70.4803 255.003 70.6532V71.1263C255.021 71.2675 254.988 71.4106 254.909 71.5296C254.847 71.5839 254.738 71.5296 254.566 71.4676L252.443 70.25V72.4835L255.479 74.2285C255.622 74.3003 255.739 74.414 255.815 74.5542C255.883 74.7133 255.915 74.8855 255.909 75.0583V75.5547C255.909 75.7641 255.909 75.8959 255.815 75.9424C255.721 75.989 255.643 75.9424 255.479 75.8804L251.202 73.4297C251.047 73.3429 250.924 73.2099 250.85 73.0497Z" fill="white"/>
<path d="M256.775 76.4465C256.695 76.2908 256.658 76.117 256.666 75.9424V67.8303C256.666 67.6364 256.666 67.5046 256.775 67.4425C256.884 67.3805 256.962 67.4038 257.126 67.4968L259.297 68.7454C260.422 69.3686 261.351 70.2893 261.982 71.4055C262.627 72.6563 262.941 74.0493 262.895 75.4539C262.895 77.0049 262.591 78.0364 261.966 78.4397C261.342 78.843 260.46 78.7034 259.297 78.0364L257.126 76.7955C256.977 76.7169 256.854 76.5953 256.775 76.4465ZM259.375 76.4465C259.991 76.7955 260.444 76.8343 260.748 76.5551C261.053 76.2759 261.201 75.5935 261.201 74.4999C261.243 73.6215 261.088 72.7449 260.748 71.9329C260.453 71.3177 259.973 70.8084 259.375 70.4749L258.368 69.8932V75.8649L259.375 76.4465Z" fill="white"/>
<path d="M263.855 80.5104C263.776 80.3518 263.738 80.1756 263.746 79.9985V71.8941C263.746 71.6925 263.746 71.5684 263.855 71.5063C263.965 71.4443 264.043 71.4676 264.207 71.5606L264.987 72.0027C265.14 72.0832 265.266 72.204 265.354 72.3517C265.424 72.5158 265.459 72.6929 265.456 72.8713V81.0145C265.473 81.1518 265.436 81.2905 265.354 81.4022C265.284 81.4565 265.159 81.441 264.987 81.3402L264.207 80.8981C264.053 80.8069 263.93 80.6718 263.855 80.5104Z" fill="white"/>
<path d="M268.32 83.0696C268.243 82.9129 268.206 82.7399 268.211 82.5656V75.5237L266.541 74.5542C266.398 74.4824 266.281 74.3687 266.205 74.2285C266.136 74.0724 266.104 73.9026 266.111 73.7322V73.2591C266.093 73.1179 266.126 72.9748 266.205 72.8558C266.267 72.8015 266.377 72.8558 266.541 72.9178L271.638 75.8416C271.783 75.9192 271.905 76.0345 271.989 76.1751C272.058 76.337 272.089 76.5116 272.083 76.687V77.1368C272.083 77.3384 272.083 77.4625 271.989 77.5168C271.896 77.5711 271.802 77.5168 271.638 77.4547L269.944 76.4853V83.5272C269.944 83.7289 269.944 83.8529 269.843 83.9072C269.741 83.9615 269.647 83.9072 269.476 83.8374L268.695 83.4031C268.541 83.3294 268.411 83.2137 268.32 83.0696Z" fill="white"/>
<path d="M277.196 87.2576C276.522 85.9731 276.184 84.5411 276.212 83.0929C276.212 81.5418 276.532 80.4949 277.173 80.0373C277.813 79.5797 278.734 79.6883 279.936 80.3785C280.425 80.6557 280.882 80.9833 281.302 81.3557C281.692 81.7026 282.04 82.0929 282.34 82.519C282.401 82.6001 282.436 82.6972 282.442 82.7982C282.446 82.8684 282.424 82.9376 282.379 82.9921L282.02 83.6203C281.973 83.6978 281.927 83.7211 281.872 83.6901C281.806 83.6369 281.748 83.5742 281.7 83.504C281.279 82.9433 280.748 82.4736 280.139 82.1235C279.436 81.7125 278.882 81.6737 278.492 81.9917C278.101 82.3096 277.899 82.9999 277.899 84.0623C277.875 85.0238 278.086 85.9765 278.515 86.8388C278.895 87.5739 279.477 88.1869 280.194 88.607C280.673 88.9304 281.247 89.0859 281.825 89.0491C281.88 89.0275 281.942 89.0275 281.997 89.0491C282.067 89.1112 282.119 89.1918 282.145 89.2817L282.543 90.4295C282.57 90.4883 282.586 90.5513 282.59 90.6157C282.59 90.67 282.543 90.7165 282.465 90.7553C281.926 90.9569 281.099 90.7553 279.975 90.0883C278.798 89.4243 277.835 88.4429 277.196 87.2576Z" fill="white"/>
<path d="M282.933 91.3757C282.927 91.3112 282.927 91.2462 282.933 91.1818L285.611 84.2795C285.658 84.1477 285.712 84.0701 285.767 84.0468C285.811 84.0372 285.857 84.0371 285.902 84.0464C285.946 84.0558 285.988 84.0744 286.025 84.1011L286.805 84.5354C286.908 84.5899 286.994 84.6702 287.055 84.7681C287.124 84.8981 287.177 85.0362 287.211 85.1791L289.881 95.1448C289.891 95.2246 289.891 95.3054 289.881 95.3852C289.881 95.5403 289.818 95.5791 289.694 95.5093L288.445 94.7881C288.363 94.7431 288.291 94.6824 288.234 94.6097C288.177 94.5192 288.138 94.4194 288.117 94.315L287.641 92.4304L285.135 90.9879L284.666 92.3374C284.666 92.4304 284.596 92.477 284.549 92.4925C284.512 92.4978 284.475 92.4957 284.438 92.4864C284.402 92.4771 284.368 92.4607 284.339 92.4382L283.09 91.7169C283.034 91.68 282.99 91.6286 282.963 91.5683C282.935 91.5081 282.925 91.4414 282.933 91.3757ZM287.281 90.6001L286.446 87.2188L285.58 89.6773L287.281 90.6001Z" fill="white"/>
<path d="M290.904 96.0212C290.823 95.8657 290.785 95.6917 290.794 95.5171V87.4127C290.794 87.2111 290.794 87.0792 290.904 87.0249C291.013 86.9706 291.091 86.9784 291.255 87.0792L293.87 88.576C294.694 89.0089 295.377 89.6647 295.842 90.4677C296.306 91.2706 296.531 92.1878 296.493 93.1129C296.521 93.6204 296.414 94.1263 296.18 94.5787C296.087 94.7377 295.952 94.8686 295.79 94.9574C295.628 95.0462 295.444 95.0895 295.259 95.0828L296.344 98.8519C296.355 98.9213 296.355 98.9919 296.344 99.0613C296.344 99.2242 296.274 99.2629 296.126 99.1854L294.978 98.5262C294.897 98.4837 294.826 98.4257 294.768 98.3556C294.708 98.2716 294.665 98.1767 294.643 98.0764L293.69 94.5244L292.465 93.8186V96.5253C292.481 96.6626 292.445 96.801 292.363 96.9131C292.293 96.9673 292.168 96.9131 291.996 96.8433L291.216 96.4012C291.076 96.3083 290.967 96.176 290.904 96.0212ZM293.62 92.8337C294.01 93.0586 294.307 93.1207 294.502 93.0121C294.697 92.9035 294.799 92.6166 294.799 92.1435C294.813 91.7286 294.719 91.3172 294.526 90.9492C294.343 90.6237 294.073 90.3552 293.745 90.1736L292.519 89.4679V92.2055L293.62 92.8337Z" fill="white"/>
<path d="M297.445 99.7748C297.368 99.618 297.331 99.445 297.336 99.2707V91.1663C297.327 91.0965 297.332 91.0256 297.351 90.9577C297.37 90.8898 297.402 90.8263 297.445 90.7708C297.515 90.7165 297.632 90.732 297.796 90.825L299.966 92.0737C301.092 92.6968 302.021 93.6176 302.652 94.7338C303.297 95.9845 303.611 97.3776 303.565 98.7821C303.565 100.372 303.261 101.365 302.636 101.768C302.012 102.171 301.13 102.032 299.966 101.365L297.796 100.124C297.647 100.045 297.524 99.9235 297.445 99.7748ZM300.052 99.7748C300.661 100.124 301.122 100.163 301.418 99.8834C301.715 99.6042 301.879 98.9217 301.879 97.8282C301.919 96.9492 301.761 96.0724 301.418 95.2611C301.126 94.6465 300.648 94.1371 300.052 93.8031L299.038 93.2215V99.1931L300.052 99.7748Z" fill="white"/>
<path opacity="0.5" d="M337.514 101.085L334.712 102.73C334.457 102.278 334.092 101.896 333.65 101.621L229.727 41.9815C228.947 41.555 228.353 41.8342 228.244 42.602C228.265 42.1138 228.414 41.6396 228.678 41.2271C228.942 40.8146 229.31 40.4783 229.746 40.2519C230.182 40.0256 230.67 39.9172 231.161 39.9377C231.653 39.9581 232.13 40.1067 232.545 40.3684L336.46 99.9764C336.903 100.248 337.267 100.63 337.514 101.085Z" fill="#FAFAFA"/>
<path d="M315.657 158.514L306.773 163.315C306.625 163.65 306.545 164.011 306.539 164.377V192.599C306.534 192.684 306.546 192.768 306.574 192.848C306.602 192.928 306.646 193.002 306.703 193.064L216.933 141.592C216.852 141.537 216.787 141.461 216.746 141.372C216.705 141.283 216.688 141.185 216.698 141.088V112.858C216.713 112.585 216.791 112.319 216.926 112.081C217.062 111.842 217.251 111.639 217.479 111.485L225.246 107.018C225.328 106.955 225.426 106.918 225.529 106.911C225.632 106.904 225.735 106.928 225.824 106.98L315.657 158.514Z" fill="#263238"/>
<path opacity="0.5" d="M315.665 158.506L233.568 111.4L229.821 109.252L225.863 106.98C225.774 106.928 225.671 106.904 225.568 106.911C225.465 106.918 225.367 106.955 225.285 107.018L217.518 111.485C217.284 111.63 217.093 111.833 216.964 112.075L306.781 163.307L315.665 158.506Z" fill="#37474F"/>
<path d="M306.773 163.315C306.623 163.655 306.541 164.021 306.531 164.393V192.615C306.531 193.119 306.89 193.32 307.312 193.072L315.899 188.155V159.026C315.91 158.928 315.895 158.828 315.854 158.738C315.812 158.647 315.747 158.57 315.665 158.514L306.773 163.315Z" fill="#37474F"/>
<path d="M307.413 192.995L307.718 192.847L309.037 192.072C310.314 190.496 311.011 188.534 311.012 186.511V162.663C311.006 162.141 310.94 161.62 310.817 161.112L310.107 161.5C310.185 161.878 310.227 162.262 310.231 162.648V186.511C310.088 188.934 309.09 191.229 307.413 192.995Z" fill="#263238"/>
<path d="M206.699 79.8356C203.67 77.4004 198.159 74.244 194.771 72.3052C189.073 69.0246 167.77 56.7944 158.863 51.6835C157.627 51.0602 156.26 50.7354 154.874 50.7354C153.488 50.7354 152.121 51.0602 150.885 51.6835L78.2881 93.3455C77.1285 94.0992 76.1633 95.1129 75.4705 96.3051C74.7776 97.4973 74.3764 98.8346 74.2991 100.209V143.833C74.377 145.209 74.7784 146.547 75.4712 147.74C76.164 148.933 77.1287 149.949 78.2881 150.704L225.707 235.347C226.944 235.967 228.31 236.289 229.696 236.289C231.081 236.289 232.447 235.967 233.685 235.347L306.282 193.7C307.442 192.94 308.406 191.919 309.097 190.72C309.787 189.521 310.184 188.177 310.255 186.798V162.213C310.26 161.013 309.985 159.828 309.452 158.752C308.918 157.675 308.14 156.736 307.179 156.009C290.521 143.438 211.539 83.7211 206.699 79.8356Z" fill="#455A64"/>
<path d="M310.255 186.798V162.935C310.254 162.454 310.197 161.975 310.083 161.508L229.493 207.66C229.613 208.156 229.679 208.663 229.688 209.172V233.02C229.688 235.347 228.205 236.363 226.284 235.587H226.339C226.519 235.665 226.698 235.735 226.885 235.797L227.245 235.905C227.44 235.959 227.635 236.006 227.838 236.045C228.041 236.084 228.103 236.091 228.236 236.115L228.837 236.192H229.29H229.86H230.367L230.882 236.153C231.07 236.153 231.257 236.091 231.444 236.053L231.881 235.975C232.084 235.921 232.287 235.851 232.482 235.789C232.678 235.727 232.717 235.727 232.826 235.68C233.081 235.581 233.329 235.465 233.568 235.331C233.606 235.318 233.643 235.3 233.677 235.277L306.274 193.631L307.32 193.041C309.043 191.393 310.088 189.168 310.255 186.798Z" fill="#37474F"/>
<path d="M126.124 126.066C139.738 136.985 210.836 190.435 226.589 202.27C227.558 202.992 228.345 203.929 228.887 205.006C229.429 206.083 229.711 207.27 229.711 208.474V233.02C229.711 235.541 227.916 236.572 225.722 235.347L78.249 150.735C77.0897 149.98 76.1249 148.964 75.4322 147.771C74.7394 146.578 74.338 145.24 74.2601 143.864V100.209C74.2601 97.6886 76.0555 96.6571 78.249 97.9212L114.157 118.52C117.568 120.466 123.08 123.623 126.124 126.066Z" fill="#263238"/>
<path d="M125.687 111.927C129.075 113.866 134.586 117.023 137.638 119.473C140.585 121.886 143.379 124.476 146.006 127.229C146.58 127.784 147.315 128.144 148.108 128.258C148.9 128.372 149.708 128.235 150.417 127.865L203.092 97.6187C203.403 97.4676 203.672 97.2434 203.876 96.9655C204.079 96.6877 204.211 96.3646 204.261 96.0244C204.31 95.6842 204.275 95.3372 204.158 95.0136C204.042 94.69 203.847 94.3996 203.592 94.1676C200.956 91.4152 198.154 88.8253 195.2 86.4122C192.164 83.977 186.653 80.8283 183.265 78.8817C176.817 75.1746 169.581 71.0255 163.063 67.2951C162.301 66.9146 161.46 66.7164 160.608 66.7164C159.755 66.7164 158.914 66.9146 158.153 67.2951L105.5 97.5257C104.15 98.3012 104.15 99.5653 105.5 100.341L125.687 111.927Z" fill="#E0E0E0"/>
<path d="M158.153 69.7924C158.914 69.4118 159.755 69.2136 160.608 69.2136C161.46 69.2136 162.301 69.4118 163.063 69.7924C169.581 73.5227 176.817 77.6719 183.265 81.379C186.653 83.3256 192.164 86.482 195.2 88.9172C198.154 91.33 200.956 93.92 203.592 96.6726C203.687 96.7712 203.773 96.8776 203.85 96.9906C203.638 97.2612 203.372 97.4856 203.069 97.6498L150.393 127.896C149.685 128.266 148.876 128.403 148.084 128.289C147.292 128.175 146.556 127.815 145.983 127.26C143.356 124.507 140.561 121.917 137.615 119.504C134.562 117.054 129.028 113.897 125.663 111.958L105.5 100.341C105.407 100.287 105.336 100.225 105.258 100.17C105.334 100.107 105.415 100.05 105.5 99.9997L158.153 69.7924Z" fill="white"/>
<path d="M159.019 109.671L143.258 109.43V103.179L154.546 105.211L154.398 80.3708L164.21 80.2157L159.019 109.671Z" fill="#14B8A6"/>
<path d="M204.661 110.345L205.184 108.189L207.37 108.011L214.513 103.916C217.901 101.977 222.389 102.365 224.575 104.777C225.038 105.28 225.378 105.882 225.566 106.537L226.183 106.483L225.629 108.771C225.384 109.582 224.978 110.336 224.435 110.989C223.892 111.641 223.223 112.179 222.467 112.571L213.771 117.55C213.065 117.926 212.256 118.067 211.462 117.954C210.669 117.841 209.933 117.48 209.361 116.922C207.987 115.464 206.613 113.952 205.239 112.416C204.978 112.145 204.788 111.815 204.687 111.453C204.586 111.092 204.578 110.711 204.661 110.345Z" fill="#14B8A6"/>
<path opacity="0.1" d="M204.661 110.345L205.184 108.189L207.37 108.011L214.513 103.916C217.901 101.977 222.389 102.365 224.575 104.777C225.038 105.28 225.378 105.882 225.566 106.537L226.183 106.483L225.629 108.771C225.384 109.582 224.978 110.336 224.435 110.989C223.892 111.641 223.223 112.179 222.467 112.571L213.771 117.55C213.065 117.926 212.256 118.067 211.462 117.954C210.669 117.841 209.933 117.48 209.361 116.922C207.987 115.464 206.613 113.952 205.239 112.416C204.978 112.145 204.788 111.815 204.687 111.453C204.586 111.092 204.578 110.711 204.661 110.345Z" fill="black"/>
<path d="M214.24 115.402L222.936 110.415C226.331 108.469 227.237 104.986 225.051 102.613C222.865 100.24 218.377 99.8135 214.989 101.752L206.293 106.739C205.98 106.896 205.71 107.124 205.503 107.404C205.295 107.684 205.158 108.009 205.101 108.352C205.044 108.695 205.069 109.047 205.174 109.378C205.28 109.71 205.462 110.012 205.707 110.26C207.081 111.811 208.458 113.313 209.837 114.766C210.407 115.324 211.141 115.687 211.933 115.801C212.725 115.916 213.533 115.776 214.24 115.402Z" fill="#14B8A6"/>
<path d="M160.19 137.226L160.721 135.039L161.337 134.984C161.928 134.281 162.642 133.689 163.445 133.239L172.141 128.253C172.842 127.881 173.646 127.748 174.43 127.874C175.214 128.001 175.934 128.379 176.481 128.951C177.832 130.463 179.182 131.952 180.533 133.394L181.758 133.294L181.204 135.566C181.029 136.135 180.637 136.614 180.111 136.9L171.415 141.887C168.019 143.833 163.437 143.523 161.267 141.111C160.778 140.603 160.424 139.981 160.236 139.303C160.048 138.625 160.032 137.911 160.19 137.226Z" fill="#14B8A6"/>
<path opacity="0.1" d="M160.19 137.226L160.721 135.039L161.337 134.984C161.928 134.281 162.642 133.689 163.445 133.239L172.141 128.253C172.842 127.881 173.646 127.748 174.43 127.874C175.214 128.001 175.934 128.379 176.481 128.951C177.832 130.463 179.182 131.952 180.533 133.394L181.758 133.294L181.204 135.566C181.029 136.135 180.637 136.614 180.111 136.9L171.415 141.887C168.019 143.833 163.437 143.523 161.267 141.111C160.778 140.603 160.424 139.981 160.236 139.303C160.048 138.625 160.032 137.911 160.19 137.226Z" fill="black"/>
<path d="M171.907 139.715L180.603 134.728C180.912 134.576 181.18 134.351 181.382 134.073C181.585 133.795 181.716 133.473 181.765 133.133C181.814 132.794 181.78 132.447 181.664 132.124C181.549 131.801 181.356 131.51 181.103 131.277C179.729 129.811 178.363 128.307 176.989 126.771C176.443 126.198 175.722 125.819 174.938 125.691C174.154 125.564 173.35 125.695 172.649 126.066L163.952 131.052C160.565 132.999 159.542 136.551 161.736 138.947C163.929 141.344 168.519 141.654 171.907 139.715Z" fill="#14B8A6"/>
<path d="M181.953 123.576L182.469 121.443L184.139 121.335L194.545 115.363C195.421 114.9 196.426 114.735 197.406 114.894C198.386 115.052 199.286 115.525 199.97 116.239C201.011 117.418 202.065 118.574 203.131 119.706C203.234 119.82 203.328 119.942 203.412 120.071L204.451 120.009L203.912 122.234C203.817 122.61 203.645 122.962 203.405 123.268C203.166 123.573 202.865 123.826 202.523 124.01L191.368 130.401C190.487 130.872 189.478 131.051 188.488 130.912C187.497 130.772 186.578 130.321 185.864 129.625C184.81 128.493 183.749 127.337 182.695 126.159C182.366 125.822 182.127 125.411 181.997 124.96C181.868 124.509 181.853 124.034 181.953 123.576Z" fill="#14B8A6"/>
<path opacity="0.1" d="M181.953 123.576L182.469 121.443L184.139 121.335L194.545 115.363C195.421 114.9 196.426 114.735 197.406 114.894C198.386 115.052 199.286 115.525 199.97 116.239C201.011 117.418 202.065 118.574 203.131 119.706C203.234 119.82 203.328 119.942 203.412 120.071L204.451 120.009L203.912 122.234C203.817 122.61 203.645 122.962 203.405 123.268C203.166 123.573 202.865 123.826 202.523 124.01L191.368 130.401C190.487 130.872 189.478 131.051 188.488 130.912C187.497 130.772 186.578 130.321 185.864 129.625C184.81 128.493 183.749 127.337 182.695 126.159C182.366 125.822 182.127 125.411 181.997 124.96C181.868 124.509 181.853 124.034 181.953 123.576Z" fill="black"/>
<path d="M183.187 123.995C184.241 125.174 185.302 126.321 186.356 127.462C187.07 128.158 187.989 128.608 188.979 128.748C189.97 128.888 190.979 128.709 191.859 128.237L203.014 121.847C203.4 121.656 203.734 121.375 203.986 121.028C204.239 120.681 204.404 120.279 204.466 119.855C204.528 119.431 204.486 118.999 204.343 118.595C204.201 118.191 203.962 117.827 203.647 117.535C202.593 116.402 201.539 115.208 200.485 114.06C199.801 113.346 198.9 112.874 197.92 112.717C196.94 112.56 195.935 112.727 195.06 113.192L183.913 119.582C183.52 119.778 183.18 120.063 182.92 120.415C182.66 120.766 182.487 121.174 182.416 121.604C182.346 122.035 182.378 122.476 182.512 122.892C182.646 123.307 182.877 123.685 183.187 123.995Z" fill="#14B8A6"/>
<g opacity="0.75">
<path d="M214.24 115.402L222.936 110.415C226.331 108.469 227.237 104.986 225.051 102.613C222.865 100.24 218.377 99.8135 214.989 101.752L206.293 106.739C205.98 106.896 205.71 107.124 205.503 107.404C205.295 107.684 205.158 108.009 205.101 108.352C205.044 108.695 205.069 109.047 205.174 109.378C205.28 109.71 205.462 110.012 205.707 110.26C207.081 111.811 208.458 113.313 209.837 114.766C210.407 115.324 211.141 115.687 211.933 115.801C212.725 115.916 213.533 115.776 214.24 115.402Z" fill="white"/>
<path d="M171.907 139.715L180.603 134.728C180.912 134.576 181.18 134.351 181.382 134.073C181.585 133.795 181.716 133.473 181.765 133.133C181.814 132.794 181.78 132.447 181.664 132.124C181.549 131.801 181.356 131.51 181.103 131.277C179.729 129.811 178.363 128.307 176.989 126.771C176.443 126.198 175.722 125.819 174.938 125.691C174.154 125.564 173.35 125.695 172.649 126.066L163.952 131.052C160.565 132.999 159.542 136.551 161.736 138.947C163.929 141.344 168.519 141.654 171.907 139.715Z" fill="white"/>
<path d="M183.187 123.995C184.241 125.174 185.302 126.321 186.356 127.462C187.07 128.158 187.989 128.608 188.979 128.748C189.97 128.888 190.979 128.709 191.859 128.237L203.014 121.847C203.4 121.656 203.734 121.375 203.986 121.028C204.239 120.681 204.404 120.279 204.466 119.855C204.528 119.431 204.486 118.999 204.343 118.595C204.201 118.191 203.962 117.827 203.647 117.535C202.593 116.402 201.539 115.208 200.485 114.06C199.801 113.346 198.9 112.874 197.92 112.717C196.94 112.56 195.935 112.727 195.06 113.192L183.913 119.582C183.52 119.778 183.18 120.063 182.92 120.415C182.66 120.766 182.487 121.174 182.416 121.604C182.346 122.035 182.378 122.476 182.512 122.892C182.646 123.307 182.877 123.685 183.187 123.995Z" fill="white"/>
</g>
<path d="M200.103 147.928L197.808 147.982L191.383 143.112C190.816 142.723 190.154 142.495 189.466 142.451C188.779 142.407 188.092 142.55 187.48 142.864L177.66 148.486L174.577 148.564V151.061C174.59 151.312 174.662 151.555 174.787 151.773C174.912 151.991 175.085 152.178 175.295 152.318L183.288 158.382C183.856 158.77 184.518 158.997 185.205 159.041C185.892 159.084 186.579 158.943 187.191 158.63L199.205 151.744C199.459 151.624 199.676 151.438 199.833 151.206C199.989 150.974 200.08 150.704 200.095 150.425L200.103 147.928Z" fill="#14B8A6"/>
<path opacity="0.1" d="M200.103 147.928L197.808 147.982L191.383 143.112C190.816 142.723 190.154 142.495 189.466 142.451C188.779 142.407 188.092 142.55 187.48 142.864L177.66 148.486L174.577 148.564V151.061C174.59 151.312 174.662 151.555 174.787 151.773C174.912 151.991 175.085 152.178 175.295 152.318L183.288 158.382C183.856 158.77 184.518 158.997 185.205 159.041C185.892 159.084 186.579 158.943 187.191 158.63L199.205 151.744C199.459 151.624 199.676 151.438 199.833 151.206C199.989 150.974 200.08 150.704 200.095 150.425L200.103 147.928Z" fill="black"/>
<path d="M175.467 147.246L187.488 140.367C188.1 140.053 188.787 139.91 189.474 139.954C190.162 139.997 190.824 140.226 191.391 140.615L199.408 146.679C199.644 146.812 199.837 147.007 199.965 147.244C200.094 147.48 200.153 147.748 200.135 148.017C200.117 148.285 200.023 148.543 199.864 148.76C199.705 148.978 199.487 149.146 199.236 149.246L187.223 156.133C186.61 156.445 185.924 156.587 185.237 156.544C184.55 156.5 183.887 156.272 183.32 155.885L175.326 149.82C175.092 149.688 174.9 149.493 174.771 149.258C174.643 149.023 174.582 148.757 174.597 148.49C174.611 148.223 174.7 147.965 174.854 147.745C175.008 147.525 175.22 147.352 175.467 147.246Z" fill="#14B8A6"/>
<path opacity="0.75" d="M175.467 147.246L187.488 140.367C188.1 140.053 188.787 139.91 189.474 139.954C190.162 139.997 190.824 140.226 191.391 140.615L199.408 146.679C199.644 146.812 199.837 147.007 199.965 147.244C200.094 147.48 200.153 147.748 200.135 148.017C200.117 148.285 200.023 148.543 199.864 148.76C199.705 148.978 199.487 149.146 199.236 149.246L187.223 156.133C186.61 156.445 185.924 156.587 185.237 156.544C184.55 156.5 183.887 156.272 183.32 155.885L175.326 149.82C175.092 149.688 174.9 149.493 174.771 149.258C174.643 149.023 174.582 148.757 174.597 148.49C174.611 148.223 174.7 147.965 174.854 147.745C175.008 147.525 175.22 147.352 175.467 147.246Z" fill="white"/>
<path d="M247.025 183.471L244.73 183.533L238.306 178.655C237.738 178.268 237.076 178.04 236.389 177.997C235.702 177.953 235.015 178.095 234.403 178.407L224.575 184.037L221.491 184.107V186.604C221.503 186.855 221.575 187.099 221.699 187.318C221.824 187.536 221.999 187.722 222.21 187.861L230.203 193.925C230.77 194.314 231.433 194.543 232.12 194.586C232.808 194.63 233.494 194.487 234.106 194.174L246.089 187.263C246.342 187.142 246.558 186.955 246.714 186.721C246.869 186.488 246.958 186.217 246.971 185.937L247.025 183.471Z" fill="#14B8A6"/>
<path opacity="0.1" d="M247.025 183.471L244.73 183.533L238.306 178.655C237.738 178.268 237.076 178.04 236.389 177.997C235.702 177.953 235.015 178.095 234.403 178.407L224.575 184.037L221.491 184.107V186.604C221.503 186.855 221.575 187.099 221.699 187.318C221.824 187.536 221.999 187.722 222.21 187.861L230.203 193.925C230.77 194.314 231.433 194.543 232.12 194.586C232.808 194.63 233.494 194.487 234.106 194.174L246.089 187.263C246.342 187.142 246.558 186.955 246.714 186.721C246.869 186.488 246.958 186.217 246.971 185.937L247.025 183.471Z" fill="black"/>
<path d="M222.35 182.789L234.372 175.909C234.984 175.597 235.67 175.456 236.358 175.499C237.045 175.543 237.707 175.77 238.275 176.158L246.245 182.222C246.48 182.356 246.673 182.552 246.801 182.789C246.929 183.027 246.987 183.295 246.97 183.563C246.952 183.832 246.858 184.09 246.699 184.308C246.541 184.526 246.324 184.696 246.073 184.797L234.052 191.676C233.439 191.99 232.753 192.133 232.065 192.089C231.378 192.045 230.715 191.817 230.148 191.428L222.155 185.363C221.923 185.226 221.734 185.027 221.61 184.789C221.485 184.551 221.43 184.283 221.451 184.016C221.471 183.748 221.566 183.492 221.725 183.275C221.884 183.058 222.1 182.89 222.35 182.789Z" fill="#14B8A6"/>
<path opacity="0.75" d="M222.35 182.789L234.372 175.909C234.984 175.597 235.67 175.456 236.358 175.499C237.045 175.543 237.707 175.77 238.275 176.158L246.245 182.222C246.48 182.356 246.673 182.552 246.801 182.789C246.929 183.027 246.987 183.295 246.97 183.563C246.952 183.832 246.858 184.09 246.699 184.308C246.541 184.526 246.324 184.696 246.073 184.797L234.052 191.676C233.439 191.99 232.753 192.133 232.065 192.089C231.378 192.045 230.715 191.817 230.148 191.428L222.155 185.363C221.923 185.226 221.734 185.027 221.61 184.789C221.485 184.551 221.43 184.283 221.451 184.016C221.471 183.748 221.566 183.492 221.725 183.275C221.884 183.058 222.1 182.89 222.35 182.789Z" fill="white"/>
<path d="M215.731 159.778L213.436 159.833L207.011 154.962C206.444 154.574 205.782 154.345 205.095 154.3C204.408 154.255 203.721 154.395 203.108 154.706L193.28 160.337L190.158 160.414V162.911C190.173 163.162 190.245 163.405 190.37 163.623C190.494 163.84 190.667 164.027 190.876 164.168L198.924 170.202C199.491 170.59 200.153 170.819 200.84 170.864C201.527 170.909 202.214 170.769 202.827 170.457L214.841 163.571C215.095 163.451 215.312 163.265 215.468 163.033C215.625 162.801 215.715 162.531 215.731 162.252V159.778Z" fill="#14B8A6"/>
<path opacity="0.1" d="M215.731 159.778L213.436 159.833L207.011 154.962C206.444 154.574 205.782 154.345 205.095 154.3C204.408 154.255 203.721 154.395 203.108 154.706L193.28 160.337L190.158 160.414V162.911C190.173 163.162 190.245 163.405 190.37 163.623C190.494 163.84 190.667 164.027 190.876 164.168L198.924 170.202C199.491 170.59 200.153 170.819 200.84 170.864C201.527 170.909 202.214 170.769 202.827 170.457L214.841 163.571C215.095 163.451 215.312 163.265 215.468 163.033C215.625 162.801 215.715 162.531 215.731 162.252V159.778Z" fill="black"/>
<path d="M191.094 159.096L203.116 152.209C203.729 151.898 204.416 151.757 205.103 151.803C205.79 151.848 206.452 152.076 207.019 152.465L215.02 158.522C215.255 158.655 215.448 158.852 215.576 159.089C215.704 159.326 215.763 159.594 215.745 159.863C215.727 160.131 215.633 160.389 215.475 160.608C215.316 160.826 215.099 160.995 214.848 161.097L202.835 167.984C202.221 168.295 201.535 168.435 200.848 168.39C200.161 168.345 199.499 168.116 198.932 167.728L190.93 161.671C190.698 161.536 190.507 161.339 190.38 161.103C190.253 160.867 190.195 160.6 190.212 160.333C190.229 160.066 190.32 159.808 190.476 159.59C190.632 159.371 190.846 159.2 191.094 159.096Z" fill="#14B8A6"/>
<path opacity="0.75" d="M191.094 159.096L203.116 152.209C203.729 151.898 204.416 151.757 205.103 151.803C205.79 151.848 206.452 152.076 207.019 152.465L215.02 158.522C215.255 158.655 215.448 158.852 215.576 159.089C215.704 159.326 215.763 159.594 215.745 159.863C215.727 160.131 215.633 160.389 215.475 160.608C215.316 160.826 215.099 160.995 214.848 161.097L202.835 167.984C202.221 168.295 201.535 168.435 200.848 168.39C200.161 168.345 199.499 168.116 198.932 167.728L190.93 161.671C190.698 161.536 190.507 161.339 190.38 161.103C190.253 160.867 190.195 160.6 190.212 160.333C190.229 160.066 190.32 159.808 190.476 159.59C190.632 159.371 190.846 159.2 191.094 159.096Z" fill="white"/>
<path d="M231.358 171.621L229.063 171.683L222.639 166.805C222.071 166.417 221.409 166.19 220.722 166.146C220.035 166.103 219.349 166.244 218.736 166.556L208.908 172.187L205.825 172.264V174.762C205.838 175.011 205.91 175.254 206.034 175.471C206.159 175.688 206.333 175.872 206.543 176.01L214.536 182.075C215.103 182.464 215.766 182.692 216.453 182.736C217.141 182.78 217.827 182.637 218.439 182.323L230.453 175.444C230.707 175.323 230.923 175.135 231.078 174.902C231.233 174.668 231.322 174.398 231.335 174.118L231.358 171.621Z" fill="#14B8A6"/>
<path opacity="0.1" d="M231.358 171.621L229.063 171.683L222.639 166.805C222.071 166.417 221.409 166.19 220.722 166.146C220.035 166.103 219.349 166.244 218.736 166.556L208.908 172.187L205.825 172.264V174.762C205.838 175.011 205.91 175.254 206.034 175.471C206.159 175.688 206.333 175.872 206.543 176.01L214.536 182.075C215.103 182.464 215.766 182.692 216.453 182.736C217.141 182.78 217.827 182.637 218.439 182.323L230.453 175.444C230.707 175.323 230.923 175.135 231.078 174.902C231.233 174.668 231.322 174.398 231.335 174.118L231.358 171.621Z" fill="black"/>
<path d="M206.722 170.977L218.744 164.09C219.356 163.778 220.043 163.636 220.73 163.68C221.417 163.724 222.079 163.951 222.647 164.338L230.632 170.372C230.868 170.506 231.06 170.702 231.189 170.939C231.317 171.176 231.375 171.444 231.357 171.713C231.339 171.981 231.246 172.24 231.087 172.458C230.929 172.676 230.712 172.846 230.461 172.947L218.447 179.826C217.835 180.14 217.148 180.283 216.461 180.239C215.773 180.195 215.111 179.967 214.544 179.578L206.551 173.513C206.326 173.376 206.143 173.181 206.022 172.948C205.901 172.716 205.847 172.455 205.864 172.193C205.882 171.932 205.971 171.681 206.122 171.466C206.274 171.252 206.481 171.083 206.722 170.977Z" fill="#14B8A6"/>
<path opacity="0.75" d="M206.722 170.977L218.744 164.09C219.356 163.778 220.043 163.636 220.73 163.68C221.417 163.724 222.079 163.951 222.647 164.338L230.632 170.372C230.868 170.506 231.06 170.702 231.189 170.939C231.317 171.176 231.375 171.444 231.357 171.713C231.339 171.981 231.246 172.24 231.087 172.458C230.929 172.676 230.712 172.846 230.461 172.947L218.447 179.826C217.835 180.14 217.148 180.283 216.461 180.239C215.773 180.195 215.111 179.967 214.544 179.578L206.551 173.513C206.326 173.376 206.143 173.181 206.022 172.948C205.901 172.716 205.847 172.455 205.864 172.193C205.882 171.932 205.971 171.681 206.122 171.466C206.274 171.252 206.481 171.083 206.722 170.977Z" fill="white"/>
<path d="M224.224 134.116L221.929 134.178L215.504 129.3C214.937 128.912 214.274 128.685 213.587 128.641C212.9 128.597 212.214 128.739 211.601 129.051L201.75 134.682L198.627 134.759V137.257C198.642 137.506 198.715 137.748 198.839 137.964C198.964 138.181 199.137 138.366 199.345 138.505L207.417 144.609C207.984 144.998 208.646 145.226 209.334 145.27C210.021 145.313 210.708 145.171 211.32 144.857L223.341 137.978C223.595 137.856 223.811 137.669 223.967 137.436C224.122 137.202 224.211 136.931 224.224 136.652V134.116Z" fill="#14B8A6"/>
<path opacity="0.1" d="M224.224 134.116L221.929 134.178L215.504 129.3C214.937 128.912 214.274 128.685 213.587 128.641C212.9 128.597 212.214 128.739 211.601 129.051L201.75 134.682L198.627 134.759V137.257C198.642 137.506 198.715 137.748 198.839 137.964C198.964 138.181 199.137 138.366 199.345 138.505L207.417 144.609C207.984 144.998 208.646 145.226 209.334 145.27C210.021 145.313 210.708 145.171 211.32 144.857L223.341 137.978C223.595 137.856 223.811 137.669 223.967 137.436C224.122 137.202 224.211 136.931 224.224 136.652V134.116Z" fill="black"/>
<path d="M199.587 133.441L211.609 126.554C212.222 126.242 212.908 126.1 213.595 126.144C214.282 126.188 214.944 126.415 215.512 126.802L223.505 132.867C223.738 133.002 223.929 133.198 224.056 133.435C224.183 133.671 224.241 133.938 224.224 134.205C224.207 134.472 224.115 134.729 223.96 134.948C223.804 135.166 223.59 135.337 223.341 135.442L211.32 142.321C210.708 142.635 210.021 142.777 209.334 142.734C208.646 142.69 207.984 142.462 207.417 142.073L199.408 136.008C199.175 135.873 198.985 135.676 198.859 135.44C198.733 135.203 198.676 134.936 198.695 134.669C198.713 134.402 198.807 134.145 198.965 133.928C199.122 133.711 199.338 133.543 199.587 133.441Z" fill="#14B8A6"/>
<path opacity="0.75" d="M199.587 133.441L211.609 126.554C212.222 126.242 212.908 126.1 213.595 126.144C214.282 126.188 214.944 126.415 215.512 126.802L223.505 132.867C223.738 133.002 223.929 133.198 224.056 133.435C224.183 133.671 224.241 133.938 224.224 134.205C224.207 134.472 224.115 134.729 223.96 134.948C223.804 135.166 223.59 135.337 223.341 135.442L211.32 142.321C210.708 142.635 210.021 142.777 209.334 142.734C208.646 142.69 207.984 142.462 207.417 142.073L199.408 136.008C199.175 135.873 198.985 135.676 198.859 135.44C198.733 135.203 198.676 134.936 198.695 134.669C198.713 134.402 198.807 134.145 198.965 133.928C199.122 133.711 199.338 133.543 199.587 133.441Z" fill="white"/>
<path d="M271.107 169.666L268.812 169.721L262.388 164.843C261.82 164.457 261.157 164.23 260.47 164.187C259.784 164.143 259.098 164.284 258.485 164.594L248.665 170.201L245.542 170.279V172.776C245.556 173.027 245.628 173.27 245.753 173.488C245.877 173.706 246.051 173.893 246.26 174.033L254.254 180.09C254.821 180.478 255.483 180.707 256.17 180.752C256.857 180.797 257.544 180.657 258.157 180.346L270.17 173.459C270.424 173.337 270.64 173.15 270.796 172.916C270.951 172.683 271.04 172.412 271.053 172.133L271.107 169.666Z" fill="#14B8A6"/>
<path opacity="0.1" d="M271.107 169.666L268.812 169.721L262.388 164.843C261.82 164.457 261.157 164.23 260.47 164.187C259.784 164.143 259.098 164.284 258.485 164.594L248.665 170.201L245.542 170.279V172.776C245.556 173.027 245.628 173.27 245.753 173.488C245.877 173.706 246.051 173.893 246.26 174.033L254.254 180.09C254.821 180.478 255.483 180.707 256.17 180.752C256.857 180.797 257.544 180.657 258.157 180.346L270.17 173.459C270.424 173.337 270.64 173.15 270.796 172.916C270.951 172.683 271.04 172.412 271.053 172.133L271.107 169.666Z" fill="black"/>
<path d="M246.471 168.984L258.492 162.097C259.106 161.786 259.792 161.646 260.479 161.691C261.167 161.736 261.829 161.965 262.396 162.353L270.389 168.41C270.624 168.543 270.817 168.74 270.945 168.977C271.073 169.214 271.132 169.482 271.114 169.751C271.096 170.019 271.002 170.277 270.844 170.496C270.685 170.714 270.468 170.883 270.217 170.985L258.204 177.872C257.59 178.183 256.904 178.323 256.217 178.278C255.529 178.233 254.867 178.004 254.301 177.616L246.307 171.559C246.074 171.424 245.884 171.227 245.757 170.991C245.63 170.755 245.572 170.488 245.589 170.221C245.606 169.954 245.697 169.696 245.853 169.478C246.009 169.259 246.223 169.088 246.471 168.984Z" fill="#14B8A6"/>
<path opacity="0.75" d="M246.471 168.984L258.492 162.097C259.106 161.786 259.792 161.646 260.479 161.691C261.167 161.736 261.829 161.965 262.396 162.353L270.389 168.41C270.624 168.543 270.817 168.74 270.945 168.977C271.073 169.214 271.132 169.482 271.114 169.751C271.096 170.019 271.002 170.277 270.844 170.496C270.685 170.714 270.468 170.883 270.217 170.985L258.204 177.872C257.59 178.183 256.904 178.323 256.217 178.278C255.529 178.233 254.867 178.004 254.301 177.616L246.307 171.559C246.074 171.424 245.884 171.227 245.757 170.991C245.63 170.755 245.572 170.488 245.589 170.221C245.606 169.954 245.697 169.696 245.853 169.478C246.009 169.259 246.223 169.088 246.471 168.984Z" fill="white"/>
<path d="M239.851 145.966L237.556 146.028L231.132 141.15C230.565 140.761 229.903 140.533 229.215 140.489C228.528 140.445 227.841 140.588 227.229 140.902L217.401 146.524L214.318 146.602V149.099C214.331 149.349 214.403 149.593 214.528 149.811C214.653 150.029 214.826 150.215 215.036 150.355L223.029 156.42C223.597 156.807 224.259 157.035 224.946 157.079C225.633 157.122 226.32 156.981 226.932 156.668L238.954 149.789C239.206 149.671 239.421 149.487 239.577 149.258C239.734 149.029 239.826 148.763 239.844 148.486L239.851 145.966Z" fill="#14B8A6"/>
<path opacity="0.1" d="M239.851 145.966L237.556 146.028L231.132 141.15C230.565 140.761 229.903 140.533 229.215 140.489C228.528 140.445 227.841 140.588 227.229 140.902L217.401 146.524L214.318 146.602V149.099C214.331 149.349 214.403 149.593 214.528 149.811C214.653 150.029 214.826 150.215 215.036 150.355L223.029 156.42C223.597 156.807 224.259 157.035 224.946 157.079C225.633 157.122 226.32 156.981 226.932 156.668L238.954 149.789C239.206 149.671 239.421 149.487 239.577 149.258C239.734 149.029 239.826 148.763 239.844 148.486L239.851 145.966Z" fill="black"/>
<path d="M215.215 145.283L227.237 138.404C227.849 138.092 228.536 137.95 229.223 137.994C229.91 138.038 230.572 138.265 231.14 138.653L239.133 144.717C239.366 144.852 239.557 145.049 239.684 145.285C239.811 145.521 239.869 145.788 239.852 146.055C239.835 146.322 239.743 146.58 239.587 146.798C239.432 147.017 239.218 147.188 238.969 147.292L226.948 154.171C226.335 154.483 225.649 154.625 224.962 154.581C224.275 154.538 223.612 154.31 223.045 153.923L215.02 147.858C214.788 147.721 214.6 147.522 214.475 147.284C214.351 147.046 214.295 146.778 214.316 146.511C214.336 146.243 214.431 145.987 214.59 145.77C214.749 145.553 214.965 145.385 215.215 145.283Z" fill="#14B8A6"/>
<path opacity="0.75" d="M215.215 145.283L227.237 138.404C227.849 138.092 228.536 137.95 229.223 137.994C229.91 138.038 230.572 138.265 231.14 138.653L239.133 144.717C239.366 144.852 239.557 145.049 239.684 145.285C239.811 145.521 239.869 145.788 239.852 146.055C239.835 146.322 239.743 146.58 239.587 146.798C239.432 147.017 239.218 147.188 238.969 147.292L226.948 154.171C226.335 154.483 225.649 154.625 224.962 154.581C224.275 154.538 223.612 154.31 223.045 153.923L215.02 147.858C214.788 147.721 214.6 147.522 214.475 147.284C214.351 147.046 214.295 146.778 214.316 146.511C214.336 146.243 214.431 145.987 214.59 145.77C214.749 145.553 214.965 145.385 215.215 145.283Z" fill="white"/>
<path d="M255.479 157.793L253.184 157.847L246.76 152.977C246.193 152.588 245.53 152.359 244.843 152.316C244.155 152.272 243.469 152.415 242.857 152.729L233.029 158.351L229.945 158.429V160.926C229.959 161.176 230.031 161.42 230.156 161.638C230.28 161.856 230.454 162.042 230.664 162.182L238.657 168.247C239.225 168.633 239.888 168.859 240.574 168.903C241.261 168.947 241.947 168.806 242.56 168.495L254.582 161.671C254.836 161.551 255.053 161.365 255.209 161.133C255.366 160.901 255.456 160.631 255.472 160.352L255.479 157.793Z" fill="#14B8A6"/>
<path opacity="0.1" d="M255.479 157.793L253.184 157.847L246.76 152.977C246.193 152.588 245.53 152.359 244.843 152.316C244.155 152.272 243.469 152.415 242.857 152.729L233.029 158.351L229.945 158.429V160.926C229.959 161.176 230.031 161.42 230.156 161.638C230.28 161.856 230.454 162.042 230.664 162.182L238.657 168.247C239.225 168.633 239.888 168.859 240.574 168.903C241.261 168.947 241.947 168.806 242.56 168.495L254.582 161.671C254.836 161.551 255.053 161.365 255.209 161.133C255.366 160.901 255.456 160.631 255.472 160.352L255.479 157.793Z" fill="black"/>
<path d="M230.843 157.134L242.865 150.255C243.477 149.941 244.163 149.798 244.851 149.842C245.538 149.885 246.201 150.114 246.768 150.503L254.761 156.568C254.997 156.7 255.19 156.895 255.319 157.132C255.447 157.369 255.506 157.636 255.488 157.905C255.47 158.173 255.376 158.431 255.217 158.648C255.058 158.866 254.841 159.034 254.589 159.135L242.576 166.021C241.963 166.334 241.277 166.475 240.59 166.432C239.903 166.388 239.24 166.16 238.673 165.773L230.679 159.708C230.446 159.574 230.256 159.377 230.129 159.141C230.002 158.905 229.944 158.638 229.961 158.371C229.978 158.103 230.069 157.846 230.225 157.628C230.381 157.409 230.595 157.238 230.843 157.134Z" fill="#14B8A6"/>
<path opacity="0.75" d="M230.843 157.134L242.865 150.255C243.477 149.941 244.163 149.798 244.851 149.842C245.538 149.885 246.201 150.114 246.768 150.503L254.761 156.568C254.997 156.7 255.19 156.895 255.319 157.132C255.447 157.369 255.506 157.636 255.488 157.905C255.47 158.173 255.376 158.431 255.217 158.648C255.058 158.866 254.841 159.034 254.589 159.135L242.576 166.021C241.963 166.334 241.277 166.475 240.59 166.432C239.903 166.388 239.24 166.16 238.673 165.773L230.679 159.708C230.446 159.574 230.256 159.377 230.129 159.141C230.002 158.905 229.944 158.638 229.961 158.371C229.978 158.103 230.069 157.846 230.225 157.628C230.381 157.409 230.595 157.238 230.843 157.134Z" fill="white"/>
<path d="M248.337 120.303L246.042 120.358L239.617 115.487C239.05 115.098 238.388 114.87 237.7 114.826C237.013 114.782 236.326 114.925 235.714 115.239L225.886 120.862L222.803 120.939V123.436C222.817 123.687 222.889 123.931 223.013 124.149C223.138 124.367 223.312 124.553 223.521 124.693L231.515 130.758C232.082 131.145 232.745 131.372 233.432 131.416C234.119 131.46 234.805 131.318 235.418 131.006L247.431 124.119C247.685 123.999 247.902 123.813 248.059 123.581C248.215 123.349 248.306 123.08 248.321 122.801L248.337 120.303Z" fill="#14B8A6"/>
<path opacity="0.1" d="M248.337 120.303L246.042 120.358L239.617 115.487C239.05 115.098 238.388 114.87 237.7 114.826C237.013 114.782 236.326 114.925 235.714 115.239L225.886 120.862L222.803 120.939V123.436C222.817 123.687 222.889 123.931 223.013 124.149C223.138 124.367 223.312 124.553 223.521 124.693L231.515 130.758C232.082 131.145 232.745 131.372 233.432 131.416C234.119 131.46 234.805 131.318 235.418 131.006L247.431 124.119C247.685 123.999 247.902 123.813 248.059 123.581C248.215 123.349 248.306 123.08 248.321 122.801L248.337 120.303Z" fill="black"/>
<path d="M223.701 119.621L235.722 112.742C236.334 112.428 237.021 112.285 237.708 112.329C238.396 112.373 239.058 112.601 239.625 112.99L247.619 119.055C247.854 119.187 248.047 119.383 248.176 119.619C248.305 119.856 248.363 120.124 248.345 120.392C248.327 120.66 248.234 120.918 248.075 121.135C247.916 121.353 247.698 121.522 247.447 121.622L235.433 128.508C234.821 128.821 234.134 128.962 233.447 128.919C232.76 128.875 232.098 128.648 231.53 128.26L223.537 122.196C223.304 122.061 223.113 121.864 222.986 121.628C222.859 121.392 222.801 121.125 222.818 120.858C222.835 120.591 222.927 120.333 223.083 120.115C223.238 119.896 223.452 119.725 223.701 119.621Z" fill="#14B8A6"/>
<path opacity="0.75" d="M223.701 119.621L235.722 112.742C236.334 112.428 237.021 112.285 237.708 112.329C238.396 112.373 239.058 112.601 239.625 112.99L247.619 119.055C247.854 119.187 248.047 119.383 248.176 119.619C248.305 119.856 248.363 120.124 248.345 120.392C248.327 120.66 248.234 120.918 248.075 121.135C247.916 121.353 247.698 121.522 247.447 121.622L235.433 128.508C234.821 128.821 234.134 128.962 233.447 128.919C232.76 128.875 232.098 128.648 231.53 128.26L223.537 122.196C223.304 122.061 223.113 121.864 222.986 121.628C222.859 121.392 222.801 121.125 222.818 120.858C222.835 120.591 222.927 120.333 223.083 120.115C223.238 119.896 223.452 119.725 223.701 119.621Z" fill="white"/>
<path d="M295.22 155.846L292.925 155.908L286.501 151.03C285.934 150.641 285.271 150.413 284.584 150.369C283.896 150.325 283.21 150.468 282.598 150.782L272.786 156.405L269.702 156.482V158.979C269.714 159.23 269.785 159.475 269.91 159.693C270.035 159.911 270.21 160.097 270.42 160.236L278.414 166.324C278.981 166.713 279.643 166.941 280.331 166.985C281.018 167.028 281.705 166.886 282.317 166.572L294.338 159.693C294.592 159.572 294.808 159.384 294.963 159.151C295.119 158.917 295.207 158.646 295.22 158.367V155.846Z" fill="#14B8A6"/>
<path opacity="0.1" d="M295.22 155.846L292.925 155.908L286.501 151.03C285.934 150.641 285.271 150.413 284.584 150.369C283.896 150.325 283.21 150.468 282.598 150.782L272.786 156.405L269.702 156.482V158.979C269.714 159.23 269.785 159.475 269.91 159.693C270.035 159.911 270.21 160.097 270.42 160.236L278.414 166.324C278.981 166.713 279.643 166.941 280.331 166.985C281.018 167.028 281.705 166.886 282.317 166.572L294.338 159.693C294.592 159.572 294.808 159.384 294.963 159.151C295.119 158.917 295.207 158.646 295.22 158.367V155.846Z" fill="black"/>
<path d="M270.584 155.164L282.606 148.285C283.218 147.973 283.904 147.831 284.592 147.875C285.279 147.918 285.941 148.146 286.509 148.533L294.502 154.598C294.737 154.731 294.93 154.928 295.058 155.165C295.186 155.402 295.245 155.67 295.227 155.938C295.209 156.207 295.115 156.465 294.957 156.683C294.798 156.901 294.581 157.071 294.33 157.172L282.309 164.051C281.697 164.365 281.01 164.508 280.323 164.464C279.635 164.421 278.973 164.192 278.406 163.803L270.444 157.739C270.21 157.606 270.018 157.411 269.889 157.176C269.76 156.941 269.7 156.675 269.714 156.408C269.729 156.141 269.818 155.883 269.972 155.663C270.125 155.444 270.337 155.271 270.584 155.164Z" fill="#14B8A6"/>
<path opacity="0.75" d="M270.584 155.164L282.606 148.285C283.218 147.973 283.904 147.831 284.592 147.875C285.279 147.918 285.941 148.146 286.509 148.533L294.502 154.598C294.737 154.731 294.93 154.928 295.058 155.165C295.186 155.402 295.245 155.67 295.227 155.938C295.209 156.207 295.115 156.465 294.957 156.683C294.798 156.901 294.581 157.071 294.33 157.172L282.309 164.051C281.697 164.365 281.01 164.508 280.323 164.464C279.635 164.421 278.973 164.192 278.406 163.803L270.444 157.739C270.21 157.606 270.018 157.411 269.889 157.176C269.76 156.941 269.7 156.675 269.714 156.408C269.729 156.141 269.818 155.883 269.972 155.663C270.125 155.444 270.337 155.271 270.584 155.164Z" fill="white"/>
<path d="M279.592 143.996L277.297 144.058L270.873 139.18C270.305 138.793 269.643 138.565 268.956 138.521C268.269 138.478 267.583 138.62 266.97 138.932L257.173 144.562L254.051 144.64V147.137C254.064 147.386 254.136 147.629 254.26 147.846C254.385 148.063 254.559 148.248 254.769 148.386L262.762 154.45C263.329 154.841 263.991 155.07 264.679 155.114C265.367 155.158 266.054 155.014 266.666 154.698L278.687 147.819C278.941 147.698 279.157 147.511 279.312 147.277C279.467 147.044 279.556 146.773 279.569 146.493L279.592 143.996Z" fill="#14B8A6"/>
<path opacity="0.1" d="M279.592 143.996L277.297 144.058L270.873 139.18C270.305 138.793 269.643 138.565 268.956 138.521C268.269 138.478 267.583 138.62 266.97 138.932L257.173 144.562L254.051 144.64V147.137C254.064 147.386 254.136 147.629 254.26 147.846C254.385 148.063 254.559 148.248 254.769 148.386L262.762 154.45C263.329 154.841 263.991 155.07 264.679 155.114C265.367 155.158 266.054 155.014 266.666 154.698L278.687 147.819C278.941 147.698 279.157 147.511 279.312 147.277C279.467 147.044 279.556 146.773 279.569 146.493L279.592 143.996Z" fill="black"/>
<path d="M254.956 143.321L266.978 136.434C267.59 136.122 268.277 135.981 268.964 136.024C269.651 136.068 270.313 136.295 270.881 136.683L278.874 142.747C279.11 142.881 279.302 143.077 279.43 143.314C279.559 143.551 279.617 143.82 279.599 144.088C279.581 144.357 279.488 144.615 279.329 144.833C279.171 145.051 278.953 145.221 278.703 145.322L266.681 152.201C266.069 152.517 265.383 152.66 264.695 152.617C264.007 152.573 263.344 152.343 262.778 151.953L254.831 145.888C254.597 145.758 254.403 145.565 254.273 145.332C254.142 145.098 254.08 144.833 254.093 144.566C254.106 144.3 254.194 144.042 254.346 143.822C254.499 143.602 254.71 143.428 254.956 143.321Z" fill="#14B8A6"/>
<path opacity="0.75" d="M254.956 143.321L266.978 136.434C267.59 136.122 268.277 135.981 268.964 136.024C269.651 136.068 270.313 136.295 270.881 136.683L278.874 142.747C279.11 142.881 279.302 143.077 279.43 143.314C279.559 143.551 279.617 143.82 279.599 144.088C279.581 144.357 279.488 144.615 279.329 144.833C279.171 145.051 278.953 145.221 278.703 145.322L266.681 152.201C266.069 152.517 265.383 152.66 264.695 152.617C264.007 152.573 263.344 152.343 262.778 151.953L254.831 145.888C254.597 145.758 254.403 145.565 254.273 145.332C254.142 145.098 254.08 144.833 254.093 144.566C254.106 144.3 254.194 144.042 254.346 143.822C254.499 143.602 254.71 143.428 254.956 143.321Z" fill="white"/>
<path d="M263.965 132.154L261.67 132.208L255.245 127.337C254.678 126.949 254.016 126.72 253.329 126.675C252.642 126.63 251.955 126.77 251.342 127.082L241.561 132.712L238.478 132.789V135.302C238.491 135.553 238.563 135.797 238.687 136.015C238.812 136.233 238.986 136.419 239.196 136.559L247.189 142.616C247.756 143.004 248.418 143.233 249.105 143.278C249.792 143.323 250.479 143.183 251.092 142.871L263.106 135.985C263.359 135.864 263.574 135.678 263.729 135.446C263.884 135.214 263.974 134.944 263.988 134.666L263.965 132.154Z" fill="#14B8A6"/>
<path opacity="0.1" d="M263.965 132.154L261.67 132.208L255.245 127.337C254.678 126.949 254.016 126.72 253.329 126.675C252.642 126.63 251.955 126.77 251.342 127.082L241.561 132.712L238.478 132.789V135.302C238.491 135.553 238.563 135.797 238.687 136.015C238.812 136.233 238.986 136.419 239.196 136.559L247.189 142.616C247.756 143.004 248.418 143.233 249.105 143.278C249.792 143.323 250.479 143.183 251.092 142.871L263.106 135.985C263.359 135.864 263.574 135.678 263.729 135.446C263.884 135.214 263.974 134.944 263.988 134.666L263.965 132.154Z" fill="black"/>
<path d="M239.328 131.471L251.35 124.584C251.963 124.273 252.65 124.133 253.337 124.178C254.024 124.223 254.686 124.452 255.253 124.84L263.246 130.897C263.482 131.031 263.674 131.227 263.802 131.464C263.931 131.701 263.989 131.969 263.971 132.238C263.953 132.506 263.86 132.765 263.701 132.983C263.543 133.201 263.326 133.37 263.075 133.472L251.061 140.359C250.448 140.67 249.761 140.81 249.074 140.765C248.387 140.72 247.725 140.491 247.158 140.103L239.165 134.046C238.932 133.911 238.741 133.715 238.614 133.478C238.487 133.242 238.429 132.975 238.446 132.708C238.463 132.441 238.555 132.184 238.71 131.965C238.866 131.747 239.08 131.576 239.328 131.471Z" fill="#14B8A6"/>
<path opacity="0.75" d="M239.328 131.471L251.35 124.584C251.963 124.273 252.65 124.133 253.337 124.178C254.024 124.223 254.686 124.452 255.253 124.84L263.246 130.897C263.482 131.031 263.674 131.227 263.802 131.464C263.931 131.701 263.989 131.969 263.971 132.238C263.953 132.506 263.86 132.765 263.701 132.983C263.543 133.201 263.326 133.37 263.075 133.472L251.061 140.359C250.448 140.67 249.761 140.81 249.074 140.765C248.387 140.72 247.725 140.491 247.158 140.103L239.165 134.046C238.932 133.911 238.741 133.715 238.614 133.478C238.487 133.242 238.429 132.975 238.446 132.708C238.463 132.441 238.555 132.184 238.71 131.965C238.866 131.747 239.08 131.576 239.328 131.471Z" fill="white"/>
<path d="M70.3414 58.865V50.2643C70.3332 48.1326 69.475 46.091 67.9549 44.5866C66.4347 43.0821 64.3765 42.2374 62.2308 42.2375V50.8382C62.2391 52.9699 63.0973 55.0115 64.6174 56.5159C66.1375 58.0204 68.1958 58.865 70.3414 58.865Z" fill="#263238"/>
<path d="M96.7261 129.47L70.802 116.387L73.1438 159.662L99.068 172.745L96.7261 129.47Z" fill="#14B8A6"/>
<path opacity="0.5" d="M96.7261 129.47L70.802 116.387L73.1438 159.662L99.068 172.745L96.7261 129.47Z" fill="white"/>
<path d="M99.068 172.745L111.253 164.866L101.605 126.321L96.7261 129.47L99.068 172.745Z" fill="#14B8A6"/>
<path d="M111.253 164.866L102.979 164.245L99.068 172.745L111.253 164.866Z" fill="#14B8A6"/>
<path opacity="0.3" d="M111.253 164.866L102.979 164.245L99.068 172.745L111.253 164.866Z" fill="black"/>
<path d="M102.979 164.245L96.57 126.585L96.7261 129.47L99.068 172.745L102.979 164.245Z" fill="#14B8A6"/>
<path opacity="0.1" d="M102.979 164.245L96.57 126.585L96.7261 129.47L99.068 172.745L102.979 164.245Z" fill="black"/>
<path d="M70.802 116.387L75.8291 116.123L75.673 113.238L101.605 126.321L96.57 126.585L96.7261 129.47L70.802 116.387Z" fill="#14B8A6"/>
<path d="M88.5063 127.966C88.5063 128.33 88.2721 128.501 87.9364 128.33C87.7603 128.228 87.6106 128.087 87.4995 127.917C87.3883 127.747 87.3187 127.554 87.2963 127.353C87.2963 126.981 87.5305 126.818 87.8662 126.981C88.0425 127.084 88.1922 127.227 88.3033 127.398C88.4144 127.569 88.4839 127.763 88.5063 127.966Z" fill="#455A64"/>
<path d="M80.7548 124.119C80.7548 124.491 80.5206 124.662 80.1849 124.491C80.01 124.388 79.8612 124.246 79.7503 124.077C79.6393 123.907 79.569 123.715 79.5448 123.514C79.5448 123.142 79.779 122.979 80.1147 123.142C80.2912 123.243 80.4412 123.384 80.5525 123.554C80.6637 123.724 80.733 123.918 80.7548 124.119Z" fill="#455A64"/>
<path d="M93.2446 124.902C93.2446 125.275 93.0104 125.437 92.6748 125.267C92.4978 125.166 92.3475 125.025 92.2362 124.855C92.1249 124.685 92.0558 124.491 92.0346 124.29C92.0346 123.917 92.2688 123.754 92.6045 123.925C92.7815 124.026 92.9318 124.167 93.0431 124.337C93.1544 124.507 93.2234 124.701 93.2446 124.902Z" fill="#455A64"/>
<path d="M85.5399 121.017C85.5399 121.389 85.3058 121.552 84.9701 121.389C84.7925 121.287 84.6419 121.144 84.5306 120.973C84.4194 120.802 84.3506 120.607 84.33 120.404C84.33 120.032 84.5642 119.869 84.8998 120.04C85.076 120.141 85.2257 120.283 85.3368 120.453C85.448 120.622 85.5176 120.816 85.5399 121.017Z" fill="#455A64"/>
<path d="M101.605 126.321L96.57 126.585L102.979 164.245L111.253 164.866L101.605 126.321Z" fill="#14B8A6"/>
<path opacity="0.2" d="M101.605 126.321L96.57 126.585L102.979 164.245L111.253 164.866L101.605 126.321Z" fill="black"/>
<path d="M75.673 113.238L75.8291 116.123L75.9852 119.008L77.3045 119.667L75.673 113.238Z" fill="#14B8A6"/>
<path opacity="0.2" d="M75.673 113.238L75.8291 116.123L75.9852 119.008L77.3045 119.667L75.673 113.238Z" fill="black"/>
<path d="M64.0185 49.2949C67.5156 49.1087 74.5958 49.4034 77.1874 59.3769C79.3731 67.7527 85.2823 86.0864 86.8202 94.2296C87.9911 100.434 89.5991 104.777 89.8333 109.104C89.3962 111.33 87.6086 113.758 82.6907 114.533C78.007 113.3 78.8267 112.532 78.4988 108.406C78.171 104.281 80.3098 103.102 79.6307 98.2081C78.21 87.9322 68.9519 66.5196 68.9519 66.5196L64.0185 49.2949Z" fill="#B16668"/>
<path d="M92.6357 124.964C92.5522 124.963 92.4716 124.934 92.4065 124.882C92.3415 124.83 92.2957 124.758 92.2766 124.677C92.2766 124.623 91.1213 119.59 89.8333 115.774C88.8185 112.773 86.586 112.098 84.6266 111.501C84.1895 111.369 83.7758 111.245 83.4011 111.105C83.3105 111.067 83.2381 110.996 83.1988 110.907C83.1596 110.817 83.1565 110.716 83.1903 110.625C83.2076 110.579 83.2339 110.537 83.2677 110.501C83.3014 110.465 83.3419 110.436 83.3869 110.416C83.4318 110.396 83.4804 110.385 83.5297 110.383C83.579 110.382 83.6282 110.39 83.6743 110.407C84.0334 110.547 84.4549 110.663 84.8452 110.795C86.8748 111.408 89.404 112.176 90.5437 115.541C91.8395 119.419 92.9948 124.46 93.0026 124.514C93.0141 124.562 93.0159 124.611 93.0079 124.659C92.9999 124.707 92.9823 124.753 92.9561 124.794C92.9299 124.836 92.8957 124.871 92.8554 124.899C92.8151 124.927 92.7696 124.946 92.7216 124.957L92.6357 124.964Z" fill="#263238"/>
<path d="M86.5626 104.777C85.7929 106.218 85.2181 107.754 84.853 109.345C84.7281 110.206 83.2918 109.531 83.003 108.414C82.7723 106.632 82.6731 104.836 82.7063 103.04C82.7063 103.04 82.035 106.475 82.4019 108.112C82.7688 109.748 83.1825 110.074 84.3846 110.438C85.5868 110.803 85.3994 109.748 85.6805 108.383C85.9615 107.018 86.5626 104.777 86.5626 104.777Z" fill="#9A4A4D"/>
<path d="M87.4603 127.462L86.9216 117.465C86.8123 115.262 86.6797 112.757 82.9405 110.849C81.6291 110.182 80.6611 109.989 80.2006 110.314C79.74 110.64 79.8571 111.447 79.8571 111.454L80.5206 123.723C80.5077 123.812 80.4631 123.893 80.395 123.951C80.3269 124.01 80.2399 124.042 80.1498 124.042C80.0598 124.042 79.9728 124.01 79.9047 123.951C79.8366 123.893 79.792 123.812 79.779 123.723L79.1155 111.493C79.0647 111.161 79.0973 110.822 79.2103 110.505C79.3234 110.188 79.5134 109.904 79.7634 109.678C80.4894 109.159 81.6447 109.314 83.284 110.151C87.4056 112.261 87.5539 115.099 87.6632 117.387L88.2097 127.368C88.2139 127.468 88.1787 127.565 88.1115 127.639C88.0444 127.713 87.9507 127.758 87.8506 127.764C87.7596 127.769 87.6698 127.742 87.598 127.686C87.5262 127.63 87.4772 127.55 87.4603 127.462Z" fill="#263238"/>
<path d="M84.9311 120.97C84.8476 120.969 84.7669 120.94 84.7019 120.888C84.6368 120.836 84.5911 120.764 84.572 120.683L82.9093 113.207C82.899 113.159 82.8983 113.11 82.9072 113.062C82.9162 113.014 82.9346 112.968 82.9614 112.927C82.9882 112.885 83.0229 112.85 83.0636 112.822C83.1042 112.795 83.1499 112.775 83.1981 112.765C83.2952 112.746 83.3958 112.766 83.4788 112.819C83.5617 112.873 83.6206 112.956 83.643 113.052L85.298 120.52C85.3095 120.568 85.3113 120.617 85.3033 120.665C85.2953 120.713 85.2777 120.759 85.2515 120.8C85.2253 120.842 85.191 120.877 85.1507 120.905C85.1104 120.933 85.0649 120.952 85.0169 120.962L84.9311 120.97Z" fill="#263238"/>
<path d="M82.4097 110.601C80.9968 109.748 78.249 108.5 77.6089 109.26C76.9688 110.02 76.1492 113.137 79.3341 114.239C81.4564 114.826 83.7208 114.633 85.7117 113.696L82.4097 110.601Z" fill="#9A4A4D"/>
<path d="M58.8976 44.1763H55.8454C51.7048 44.1763 47.7338 42.5421 44.8059 39.6333C41.878 36.7244 40.2332 32.7792 40.2332 28.6655C40.2332 24.2741 41.9891 20.0626 45.1146 16.9574C48.2401 13.8522 52.4792 12.1077 56.8993 12.1077H57.875C62.287 12.1159 66.5157 13.8619 69.634 16.9628C72.7523 20.0638 74.5058 24.2667 74.5099 28.65C74.5119 30.6882 74.1096 32.7068 73.326 34.5905C72.5423 36.4741 71.3926 38.1858 69.9427 39.6278C68.4928 41.0698 66.771 42.2137 64.8758 42.9941C62.9806 43.7746 60.9492 44.1763 58.8976 44.1763Z" fill="#263238"/>
<path d="M42.3955 16.4663C42.9788 16.5824 43.492 16.9235 43.8227 17.4148C44.1534 17.9062 44.2746 18.5077 44.1597 19.0876L39.757 18.1958C39.8792 17.6205 40.2247 17.1163 40.7187 16.7926C41.2126 16.4688 41.8151 16.3516 42.3955 16.4663Z" fill="#263238"/>
<path d="M45.2681 15.5201C45.3595 15.7982 45.3949 16.0914 45.3721 16.383C45.3494 16.6746 45.269 16.9589 45.1356 17.2196C45.0022 17.4803 44.8184 17.7124 44.5947 17.9025C44.371 18.0926 44.1118 18.2371 43.8318 18.3276L42.4423 14.0854C42.7227 13.9948 43.0183 13.96 43.3122 13.9831C43.6061 14.0062 43.8925 14.0867 44.155 14.22C44.4175 14.3533 44.651 14.5367 44.842 14.7598C45.033 14.9829 45.1778 15.2413 45.2681 15.5201Z" fill="#263238"/>
<path d="M67.2892 219.836C66.2666 219.061 65.1113 218.332 64.2136 217.509C62.223 215.702 61.6142 211.127 61.4659 209.583C61.3136 208.27 61.3005 206.944 61.4268 205.628C61.8249 202.526 64.1199 195.709 64.1199 195.709C64.1199 195.709 56.7275 190.877 56.6182 190.939C56.509 191.002 55.2834 199.819 54.0735 201.262C52.6059 202.542 51.3491 202.898 50.5217 204.589C49.7957 206.675 50.0923 207.8 51.2086 209.971C52.0338 211.852 52.6464 213.819 53.0352 215.834C53.6675 218.378 53.4021 222.543 59.7641 223.815C63.1364 224.489 65.4704 224.04 67.0785 223.326C68.8895 222.527 68.8739 221.023 67.2892 219.836Z" fill="#B16668"/>
<path d="M50.5217 204.597C49.7957 206.683 50.0923 207.807 51.2086 209.979C52.0338 211.86 52.6464 213.827 53.0352 215.842C53.6675 218.386 53.4021 222.55 59.7641 223.822C63.1364 224.497 65.4704 224.047 67.0785 223.334C68.8895 222.558 68.8739 221.007 67.2892 219.836C66.5086 219.231 65.6031 218.649 64.8303 218.029C65.6734 219.534 61.622 219.89 59.2879 218.502C56.9539 217.114 54.0422 207.334 53.7534 205.147C53.5784 203.847 53.6875 202.524 54.0735 201.27C54.1593 201.153 54.2686 200.983 54.2686 200.983C54.2686 200.983 54.0188 200.882 53.7534 201.083C52.4051 201.977 51.296 203.182 50.5217 204.597Z" fill="#263238"/>
<path d="M75.0875 92.7871C76.2272 105.196 79.6775 147.757 78.7486 155.776C78.3349 159.414 62.8163 199.897 62.8163 199.897C62.8163 199.897 59.0303 201.052 55.4629 197.035C57.3052 179.632 59.0694 160.988 62.8944 155.21C62.1684 149.223 54.6511 119.396 54.6511 119.396L75.0875 92.7871Z" fill="#37474F"/>
<path d="M47.087 213.756V212.662C47.5241 213.942 49.5459 219.479 52.6059 222.248C55.0336 224.458 58.3512 227.002 59.1943 229.461C60.0373 231.919 54.5808 232.873 52.3093 232.47C49.663 232.012 46.2517 230.523 44.3939 228.251C43.0824 226.653 42.2472 224.761 41.3182 223.504C40.3893 222.248 38.1958 220.852 37.7274 219.402C37.4464 218.626 37.7821 216.85 38.1646 215.377C38.5471 213.903 38.9452 212.531 39.3823 212.662V213.492C39.9366 214.113 41.49 214.725 43.2307 214.787C44.3626 214.834 47.1026 214.609 47.087 213.756Z" fill="#263238"/>
<path d="M54.8072 224.187C54.0266 223.52 53.2928 222.868 52.6059 222.24C50.467 220.309 48.8355 217.021 47.9222 214.779C47.3992 213.499 47.134 212.129 47.1416 210.747V206.38H39.3823V213.484V213.67C39.7492 215.26 43.2854 219.495 45.2994 222.256C46.6498 224.109 49.2024 226.459 52.2702 226.87C55.2053 227.281 56.6885 226.374 54.8072 224.187Z" fill="#B16668"/>
<path d="M40.9435 94.6872C34.9641 107.662 41.1621 153.357 41.1621 153.357C40.9826 155.466 38.5549 159.608 37.6572 168.868C36.5877 179.81 39.3277 207.303 39.3277 207.303C40.5048 207.984 41.8319 208.367 43.1928 208.42C44.5538 208.473 45.9069 208.193 47.1338 207.606C47.1338 207.606 54.4872 166.207 55.8689 155.327C57.071 145.826 60.3808 116.604 60.3808 116.604L75.1344 92.7794L40.9435 94.6872Z" fill="#37474F"/>
<path d="M53.6597 49.45L45.6272 49.83C44.5266 50.1712 41.568 52.9322 40.4049 57.1588C39.572 60.6384 39.7589 64.2822 40.9435 67.6596L46.2829 83.0076C46.2829 83.0076 43.785 89.018 40.8811 94.6872C54.2842 102.125 71.0205 98.2159 75.0563 92.7871C75.2202 91.6393 74.9939 86.451 75.3139 80.5569C75.6652 74.2595 76.5317 67.1555 75.5403 63.2701C73.6902 56.0498 70.2243 49.2716 63.3315 49.2716L53.6597 49.45Z" fill="#14B8A6"/>
<path d="M68.8583 18.9713C70.6693 20.0337 72.9096 24.5629 72.6911 34.0555C72.5037 42.0978 69.8731 44.0832 68.5616 44.6571C67.2502 45.231 64.6976 44.882 62.2309 44.471V49.3026C62.2309 49.3026 65.6421 53.2423 65.4314 55.4526C65.2206 57.6629 60.4979 58.1903 57.3052 56.0265C55.2325 54.5563 53.4536 52.7153 52.0595 50.5978V39.9108C51.3343 40.1677 50.5584 40.251 49.7948 40.154C49.0312 40.057 48.3014 39.7823 47.6646 39.3524C44.9169 37.5842 44.8466 33.0783 46.4078 31.4807C47.9691 29.8831 51.4116 30.3872 52.0517 32.5975C52.0517 32.5975 55.9938 32.7371 61.2395 29.8753C63.2834 28.7815 65.0386 27.2239 66.3624 25.3292C67.6863 23.4345 68.5414 21.2561 68.8583 18.9713Z" fill="#B16668"/>
<path d="M63.995 32.1554C63.9979 32.355 63.9415 32.5509 63.833 32.7189C63.7244 32.8868 63.5685 33.0192 63.3847 33.0997C63.2009 33.1801 62.9973 33.205 62.7993 33.1711C62.6013 33.1373 62.4178 33.0463 62.2715 32.9095C62.1253 32.7727 62.0228 32.5962 61.977 32.4019C61.9311 32.2076 61.9438 32.0042 62.0136 31.817C62.0834 31.6299 62.2071 31.4673 62.3692 31.3496C62.5314 31.2318 62.7249 31.1642 62.9256 31.155C63.062 31.1509 63.1978 31.1735 63.3254 31.2215C63.4529 31.2696 63.5697 31.3421 63.669 31.435C63.7683 31.5279 63.8482 31.6394 63.9042 31.763C63.9601 31.8866 63.991 32.02 63.995 32.1554Z" fill="#263238"/>
<path d="M63.917 38.8716L66.2588 39.6472C66.217 39.8075 66.1426 39.9576 66.04 40.0881C65.9375 40.2187 65.8091 40.3269 65.6627 40.4062C65.5163 40.4854 65.3552 40.534 65.1892 40.5488C65.0231 40.5637 64.8558 40.5445 64.6976 40.4925C64.3817 40.3751 64.1239 40.1407 63.9783 39.8384C63.8328 39.5362 63.8108 39.1897 63.917 38.8716Z" fill="#9A4A4D"/>
<path d="M71.9963 28.9447L69.9355 27.5022C70.0217 27.3644 70.1352 27.2454 70.2692 27.1526C70.4032 27.0598 70.5548 26.9951 70.7147 26.9625C70.8747 26.9298 71.0397 26.9299 71.1997 26.9627C71.3596 26.9955 71.5112 27.0603 71.645 27.1532C71.9265 27.3479 72.1206 27.6438 72.1861 27.9782C72.2517 28.3126 72.1836 28.6593 71.9963 28.9447Z" fill="#263238"/>
<path d="M71.6997 31.9849C71.7025 32.1844 71.6462 32.3804 71.5376 32.5483C71.4291 32.7162 71.2732 32.8486 71.0893 32.9291C70.9055 33.0095 70.7019 33.0344 70.5039 33.0006C70.306 32.9668 70.1224 32.8758 69.9762 32.739C69.8299 32.6021 69.7275 32.4256 69.6816 32.2313C69.6357 32.037 69.6485 31.8336 69.7182 31.6464C69.788 31.4593 69.9117 31.2967 70.0739 31.179C70.2361 31.0612 70.4296 30.9936 70.6302 30.9844C70.9051 30.9781 71.1713 31.0795 71.3715 31.2668C71.5716 31.454 71.6895 31.7119 71.6997 31.9849Z" fill="#263238"/>
<path d="M66.7194 30.7362L66.8833 36.8319L70.1072 35.8393L66.7194 30.7362Z" fill="#9A4A4D"/>
<path d="M62.2309 44.4865C59.6236 44.153 54.2686 42.6175 53.4333 40.5157C53.7679 41.581 54.4248 42.518 55.3146 43.1991C56.8759 44.5641 62.2309 46.0996 62.2309 46.0996V44.4865Z" fill="#9A4A4D"/>
<path d="M60.6072 144.035L58.3122 134.279L60.334 116.612C60.334 116.612 66.696 114.231 70.0682 109.337C68.566 112.904 66.0586 115.963 62.8475 118.147L59.3816 134.232L60.6072 144.035Z" fill="#263238"/>
<path d="M54.4872 125.042L26.5803 109.035L20.9989 155.722L48.9058 171.729L54.4872 125.042Z" fill="#14B8A6"/>
<path opacity="0.5" d="M54.4872 125.042L26.5803 109.035L20.9989 155.722L48.9058 171.729L54.4872 125.042Z" fill="white"/>
<path d="M62.8553 163.726L54.4872 162.12L48.9058 171.729L62.8553 163.726Z" fill="#14B8A6"/>
<path opacity="0.3" d="M62.8553 163.726L54.4872 162.12L48.9058 171.729L62.8553 163.726Z" fill="black"/>
<path d="M54.4872 162.12L57.274 120.241L54.4872 125.042L48.9058 171.729L54.4872 162.12Z" fill="#14B8A6"/>
<path opacity="0.1" d="M54.4872 162.12L57.274 120.241L54.4872 125.042L48.9058 171.729L54.4872 162.12Z" fill="black"/>
<path d="M26.5803 109.035L34.9484 107.437V104.234L62.8553 120.241H57.274L54.4872 125.042L26.5803 109.035Z" fill="#14B8A6"/>
<path d="M44.2377 124.584C44.2377 124.995 43.9411 125.158 43.582 124.957C43.3932 124.832 43.2363 124.666 43.1238 124.471C43.0113 124.275 42.9464 124.057 42.9341 123.832C42.9341 123.421 43.2229 123.25 43.582 123.46C43.7727 123.583 43.9314 123.749 44.0454 123.944C44.1593 124.139 44.2252 124.359 44.2377 124.584Z" fill="#455A64"/>
<path d="M36.0569 119.419C36.0569 119.838 35.7681 120.001 35.4012 119.799C35.2124 119.675 35.0555 119.509 34.943 119.313C34.8305 119.118 34.7655 118.899 34.7533 118.675C34.7533 118.264 35.0421 118.093 35.4012 118.302C35.5926 118.423 35.7521 118.587 35.8662 118.781C35.9803 118.976 36.0457 119.194 36.0569 119.419Z" fill="#455A64"/>
<path d="M52.9025 119.016C52.9025 119.427 52.6137 119.598 52.2546 119.388C52.0646 119.266 51.9061 119.102 51.7922 118.908C51.6782 118.714 51.612 118.496 51.5989 118.271C51.5989 117.853 51.8955 117.69 52.2546 117.891C52.4434 118.016 52.6003 118.182 52.7128 118.377C52.8253 118.573 52.8903 118.791 52.9025 119.016Z" fill="#455A64"/>
<path d="M44.628 114.425C44.628 114.836 44.3314 115.006 43.9723 114.797C43.7833 114.675 43.626 114.51 43.5134 114.316C43.4008 114.122 43.336 113.904 43.3244 113.68C43.3244 113.269 43.6132 113.099 43.9723 113.308C44.1624 113.43 44.3208 113.594 44.4348 113.788C44.5487 113.982 44.6149 114.2 44.628 114.425Z" fill="#455A64"/>
<path d="M62.8553 120.241H57.274L54.4872 162.12L62.8553 163.726V120.241Z" fill="#14B8A6"/>
<path d="M34.9484 107.437V113.835L26.5803 109.035L34.9484 107.437Z" fill="#14B8A6"/>
<path opacity="0.2" d="M62.8553 120.241H57.274L54.4872 162.12L62.8553 163.726V120.241Z" fill="black"/>
<path opacity="0.2" d="M34.9484 107.437V113.835L26.5803 109.035L34.9484 107.437Z" fill="black"/>
<path d="M35.4012 119.295C35.3524 119.306 35.3017 119.306 35.2529 119.295C35.1587 119.253 35.0845 119.176 35.0453 119.081C35.0061 118.986 35.005 118.879 35.0421 118.783L42.1457 102.086C42.187 101.991 42.264 101.916 42.3603 101.877C42.4566 101.838 42.5645 101.838 42.6609 101.876C42.7551 101.919 42.8293 101.996 42.8685 102.091C42.9077 102.186 42.9088 102.292 42.8717 102.388L35.7681 119.086C35.7322 119.151 35.679 119.205 35.6143 119.242C35.5495 119.279 35.4758 119.297 35.4012 119.295Z" fill="#263238"/>
<path d="M43.9723 114.363C43.8688 114.363 43.7695 114.322 43.6963 114.249C43.6231 114.176 43.582 114.078 43.582 113.975V102.419C43.582 102.316 43.6231 102.218 43.6963 102.145C43.7695 102.072 43.8688 102.032 43.9723 102.032C44.0758 102.032 44.1751 102.072 44.2483 102.145C44.3215 102.218 44.3626 102.316 44.3626 102.419V113.983C44.3606 114.084 44.3186 114.181 44.2456 114.252C44.1726 114.323 44.0745 114.363 43.9723 114.363Z" fill="#263238"/>
<path d="M30.7956 84.4889L41.6227 69.4357C43.3471 67.7032 44.6454 65.5985 45.4165 63.2856C47.3055 57.3372 47.6022 53.8473 45.6194 49.83C41.2168 49.83 38.6407 50.2721 33.637 58.6867C29.5544 65.5502 23.489 77.2531 22.0059 79.7814C20.1558 82.8835 19.6172 83.7444 21.2253 86.8155C22.8333 89.8866 28.8909 97.7739 33.9883 103.707C39.0857 109.64 42.0676 111.641 45.877 112.517C49.6864 113.393 51.3881 112.656 53.5348 110.694C55.6815 108.732 54.1671 106.987 52.1688 106.53C50.2732 106.123 48.4654 105.385 46.8294 104.35C45.6194 103.482 45.2681 102.799 46.3688 102.753C47.8207 102.691 49.179 102.404 49.5537 101.396C50.0221 100.132 48.8199 100.473 47.1572 99.9609C45.0091 99.3126 42.7982 98.8915 40.561 98.7045C37.8211 98.8519 30.7956 84.4889 30.7956 84.4889Z" fill="#B16668"/>
<path d="M50.99 42.1212H52.0595V52.2032C52.0595 54.1551 51.279 56.0271 49.8897 57.4074C48.5004 58.7876 46.6162 59.563 44.6515 59.563H43.582V49.481C43.582 47.5291 44.3625 45.6571 45.7518 44.2768C47.141 42.8966 49.0253 42.1212 50.99 42.1212Z" fill="#263238"/>
<path d="M51.8721 118.535V109.779C51.8721 108.5 51.4896 106.46 50.4358 106.08C50.3862 106.064 50.3405 106.038 50.3012 106.004C50.2619 105.969 50.2299 105.928 50.2071 105.881C50.1843 105.835 50.1711 105.784 50.1684 105.732C50.1656 105.68 50.1733 105.629 50.1911 105.58C50.2088 105.531 50.2362 105.486 50.2717 105.448C50.3071 105.41 50.3499 105.38 50.3975 105.358C50.445 105.337 50.4964 105.325 50.5486 105.324C50.6008 105.323 50.6527 105.332 50.7012 105.351C52.5981 106.041 52.6527 109.399 52.6527 109.779V118.535C52.6527 118.638 52.6116 118.737 52.5384 118.809C52.4652 118.882 52.3659 118.923 52.2624 118.923C52.1589 118.923 52.0596 118.882 51.9864 118.809C51.9132 118.737 51.8721 118.638 51.8721 118.535Z" fill="#263238"/>
<path d="M43.6835 124.546C43.6343 124.553 43.5843 124.553 43.5352 124.546C43.4872 124.526 43.4437 124.497 43.407 124.461C43.3704 124.424 43.3414 124.381 43.3218 124.333C43.3022 124.286 43.2923 124.235 43.2928 124.183C43.2932 124.132 43.304 124.081 43.3244 124.034C43.3244 123.987 45.2369 119.52 47.4929 113.114C49.6864 106.91 48.9136 105.669 48.4765 105.436C48.4313 105.412 48.3914 105.379 48.359 105.339C48.3267 105.299 48.3026 105.254 48.2881 105.205C48.2736 105.156 48.269 105.104 48.2745 105.054C48.28 105.003 48.2956 104.954 48.3203 104.909C48.3713 104.82 48.4552 104.754 48.5542 104.725C48.6532 104.696 48.7597 104.706 48.8511 104.754C50.2328 105.529 50.0377 108.236 48.2345 113.37C45.9707 119.791 44.066 124.266 44.066 124.313C44.035 124.387 43.9813 124.449 43.9127 124.491C43.844 124.533 43.7638 124.552 43.6835 124.546Z" fill="#263238"/>
</svg>
