<svg width="82" height="92" viewBox="0 0 82 92" fill="none" xmlns="http://www.w3.org/2000/svg">
<path d="M51.5707 49.2305V53.3225C51.5707 58.7784 59.4136 61.1654 59.4136 61.1654C59.4136 61.1654 50.3772 67.9853 40.9998 67.9853C31.6224 67.9853 22.5859 61.1654 22.5859 61.1654C22.5859 61.1654 30.4906 58.7784 30.4289 53.3225C30.3672 47.8665 30.4084 44.6611 30.3672 35.3137C25.48 28.979 25.7937 24.7275 28.4661 21.7376C37.4193 11.7208 61.8006 15.1308 61.8006 15.1308C61.8006 15.1308 64.0757 39.6802 58.9021 46.8435C56.6856 49.9125 51.5707 49.2305 51.5707 49.2305Z" fill="url(#paint0_linear_860_627)"/>
<path d="M51.5706 49.2297C44.0687 48.3772 39.6357 45.1377 39.6357 45.1377C42.4345 49.2782 46.6997 52.203 51.5706 53.3216V49.2297Z" fill="#8F4B2B"/>
<path d="M76.8045 71.4993C80.0507 78.0999 81.9194 93.3231 81.9194 93.3231H0.0800781C0.0800781 93.3231 1.94942 78.0982 5.19504 71.4993C8.44065 64.9003 27.394 58.7797 27.394 58.7797C31.0471 66.2793 51.096 66.2793 54.5956 58.7773C54.5956 58.7773 73.5582 64.8986 76.8045 71.4993Z" fill="#14B8A6"/>
<mask id="mask0_860_627" style="mask-type:alpha" maskUnits="userSpaceOnUse" x="0" y="58" width="82" height="36">
<path d="M76.8045 71.4993C80.0507 78.0999 81.9194 93.3231 81.9194 93.3231H0.0800781C0.0800781 93.3231 1.94942 78.0982 5.19504 71.4993C8.44065 64.9003 27.394 58.7797 27.394 58.7797C31.0471 66.2793 51.096 66.2793 54.5956 58.7773C54.5956 58.7773 73.5582 64.8986 76.8045 71.4993Z" fill="#521A20"/>
</mask>
<g mask="url(#mask0_860_627)">
<path d="M-3.33008 88.1042V85.3762H85.3292V88.1042H-3.33008ZM-3.33008 81.2842V78.5563H85.3292V81.2842H-3.33008ZM-3.33008 74.4643V71.7363H85.3292V74.4643H-3.33008Z" fill="white"/>
</g>
<path d="M34.574 25.0899C33.4897 24.1587 32.172 23.5316 30.3095 24.4993C25.8939 26.7918 29.2357 35.5896 33.1572 35.5896C34.1802 35.5896 34.6889 38.8024 30.1342 41.0455C30.1342 37.465 24.6783 28.5991 24.2009 20.527C18.7108 18.4828 20.0748 10.3033 23.8439 10.3033C23.2423 2.80542 35.2492 -1.06763 39.8984 3.23542C44.6266 -2.43161 56.5615 0.466861 57.282 5.38336C65.4888 1.00257 70.8834 13.5952 63.199 18.4838C60.037 20.4957 52.6401 21.2612 41.9624 21.2612C40.3505 21.2612 39.4476 21.6615 39.8984 23.6547C40.771 27.5168 38.7451 29.9495 34.574 25.0899Z" fill="url(#paint1_linear_860_627)"/>
<defs>
<linearGradient id="paint0_linear_860_627" x1="42.4424" y1="14.5713" x2="42.4424" y2="67.9853" gradientUnits="userSpaceOnUse">
<stop stop-color="#A76A46"/>
<stop offset="1" stop-color="#9F643D"/>
</linearGradient>
<linearGradient id="paint1_linear_860_627" x1="43.7225" y1="0.125" x2="43.7225" y2="41.0455" gradientUnits="userSpaceOnUse">
<stop/>
<stop offset="1" stop-color="#100014"/>
</linearGradient>
</defs>
</svg>
