<svg width="11" height="12" viewBox="0 0 11 12" fill="none" xmlns="http://www.w3.org/2000/svg">
<path d="M7.1498 3.80002C7.1498 4.71129 6.41107 5.45002 5.4998 5.45002C4.58853 5.45002 3.8498 4.71129 3.8498 3.80002C3.8498 2.88875 4.58853 2.15002 5.4998 2.15002C6.41107 2.15002 7.1498 2.88875 7.1498 3.80002Z" fill="#71717A"/>
<path d="M9.8998 4.90002C9.8998 5.50754 9.40732 6.00002 8.7998 6.00002C8.19229 6.00002 7.6998 5.50754 7.6998 4.90002C7.6998 4.29251 8.19229 3.80002 8.7998 3.80002C9.40732 3.80002 9.8998 4.29251 9.8998 4.90002Z" fill="#71717A"/>
<path d="M7.6998 8.75002C7.6998 7.535 6.71483 6.55002 5.4998 6.55002C4.28478 6.55002 3.2998 7.535 3.2998 8.75002V10.4H7.6998V8.75002Z" fill="#71717A"/>
<path d="M3.2998 4.90002C3.2998 5.50754 2.80732 6.00002 2.1998 6.00002C1.59229 6.00002 1.0998 5.50754 1.0998 4.90002C1.0998 4.29251 1.59229 3.80002 2.1998 3.80002C2.80732 3.80002 3.2998 4.29251 3.2998 4.90002Z" fill="#71717A"/>
<path d="M8.7998 10.4V8.75002C8.7998 8.17024 8.65029 7.62539 8.38771 7.1519C8.51943 7.11804 8.65751 7.10002 8.7998 7.10002C9.71107 7.10002 10.4498 7.83875 10.4498 8.75002V10.4H8.7998Z" fill="#71717A"/>
<path d="M2.6119 7.1519C2.34932 7.62539 2.1998 8.17024 2.1998 8.75002V10.4H0.549805V8.75002C0.549805 7.83875 1.28853 7.10002 2.1998 7.10002C2.34209 7.10002 2.48018 7.11804 2.6119 7.1519Z" fill="#71717A"/>
</svg>
