<svg width="170" height="164" viewBox="0 0 170 164" fill="none" xmlns="http://www.w3.org/2000/svg">
<path d="M86.6247 49.0036C86.3103 49.1358 78.0324 54.1866 68.2368 60.2335L50.419 71.2251L53.4882 70.9721L56.5574 70.7192L76.5263 63.1338C87.5181 58.968 96.5339 55.5245 96.5887 55.4588C96.6252 55.415 95.9318 54.2438 95.0316 52.8534C93.1643 50.0192 92.1726 49.1388 90.3512 48.7637C89.199 48.5207 87.5701 48.6267 86.6247 49.0036Z" fill="#C0D0FF"/>
<path d="M108.281 54.5451C108.064 54.6273 99.2816 57.9468 88.7422 61.9263C78.2252 65.9235 69.5847 69.2286 69.5279 69.2744C69.4934 69.3381 80.3706 68.2687 93.7186 66.9072C107.067 65.5457 117.994 64.371 117.986 64.2917C117.94 63.8357 115.321 57.4526 114.956 56.8889C114.324 55.9118 113.192 55.0658 112.003 54.6662C111.005 54.3273 109.03 54.2484 108.281 54.5451Z" fill="#C0D0FF"/>
<path d="M37.242 76.6743C35.9659 77.0248 34.9312 77.7313 34.0809 78.8396C32.6157 80.7518 32.4159 77.5872 36.2863 114.931L39.7443 148.23L40.2735 148.997C40.5634 149.428 41.2671 150.098 41.8187 150.482C43.7839 151.864 39.6111 152.149 89.3273 147.038L133.848 142.437L134.654 141.894C135.77 141.18 136.732 139.96 137.148 138.816C137.464 137.902 137.448 137.543 136.646 129.072L135.813 120.303L117.799 122.14C100.739 123.88 99.7227 123.964 98.4286 123.736C95.0676 123.137 92.4393 121.081 90.9433 117.869C90.4973 116.913 90.3759 116.124 89.6479 108.987C88.8694 101.355 88.8654 101.115 89.1823 99.8003C90.005 96.4113 92.4887 93.6341 95.6596 92.5695C96.2338 92.3707 102.879 91.6128 114.564 90.421L132.557 88.5857L131.722 80.3981C130.802 71.3779 130.719 70.9657 129.381 69.4997C128.414 68.4566 126.994 67.8002 125.426 67.6997C123.919 67.5931 38.7574 76.2593 37.242 76.6743Z" fill="#688DFB"/>
<path d="M95.9809 96.5229C94.6743 97.1769 93.5074 98.598 93.1358 99.9779C92.8352 101.05 92.8594 101.488 93.6725 108.857L94.524 116.602L95.1282 117.502C95.7871 118.537 96.7423 119.26 98.087 119.784L98.9855 120.153L118.054 118.208L137.123 116.263L138.157 115.557C138.713 115.18 139.442 114.484 139.785 114.029C140.893 112.434 140.905 112.152 140.04 103.667C139.265 96.0741 139.259 96.0146 138.671 95.073C138.079 94.0918 136.804 93.0401 135.585 92.5435C134.921 92.2706 133.763 92.3687 115.908 94.1499C97.5653 95.9807 96.8959 96.049 95.9809 96.5229ZM109.354 103.652C109.734 103.753 110.279 104.078 110.592 104.327C111.088 104.777 111.176 105.029 111.404 106.668C111.841 109.748 111.19 110.596 108.046 110.916C106.342 111.09 106.135 111.071 105.498 110.655C104.464 109.96 104.131 109.313 103.965 107.687C103.777 105.843 104.098 104.969 105.253 104.23C106.255 103.607 108.255 103.323 109.354 103.652Z" fill="#364B8A"/>
<path d="M130.441 40.1622L130.139 40.0004L129.971 40.3148C130.537 40.6024 131.086 40.9237 131.614 41.2768L131.816 40.9803C131.377 40.7018 130.915 40.4162 130.441 40.1622ZM133.368 42.1738L133.137 42.4439C133.616 42.8597 134.063 43.3107 134.475 43.793L134.746 43.5602C134.32 43.0672 133.858 42.6066 133.363 42.1822L133.368 42.1738ZM135.893 45.1465L135.591 45.3359C135.922 45.8756 136.21 46.441 136.45 47.0268L136.779 46.8957C136.534 46.2875 136.238 45.701 135.895 45.1423L135.893 45.1465ZM137.378 48.7494L137.033 48.8397C137.187 49.4549 137.297 50.0804 137.362 50.7113L137.717 50.6746C137.652 50.0228 137.541 49.3766 137.382 48.7411L137.378 48.7494ZM137.772 52.6257L137.415 52.607C137.383 53.2401 137.297 53.8692 137.157 54.4875L137.504 54.5654C137.65 53.9266 137.741 53.2761 137.774 52.6215L137.772 52.6257ZM136.897 56.4317L136.569 56.2883C136.448 56.5147 136.354 56.761 136.235 56.9832C136.067 57.2936 135.882 57.5946 135.681 57.8848C135.343 57.7318 134.997 57.5983 134.643 57.4849L134.531 57.8244C135.093 58.0065 135.638 58.237 136.159 58.5135L136.268 58.5719L136.437 58.2575L136.323 58.1968L136.009 58.0282C136.205 57.7427 136.386 57.4466 136.549 57.1412C136.675 56.917 136.79 56.6713 136.9 56.4275L136.897 56.4317ZM138.047 59.3909L137.812 59.6587C138.283 60.0755 138.702 60.5469 139.062 61.0628L139.355 60.8583C138.98 60.3179 138.541 59.8239 138.05 59.3867L138.047 59.3909ZM132.732 57.0431C132.085 56.948 131.431 56.9045 130.777 56.913L130.786 57.2687C131.419 57.2607 132.051 57.3037 132.677 57.397L132.732 57.0431ZM134.394 59.3592C133.929 59.7848 133.418 60.1572 132.87 60.4694L133.045 60.7787C133.618 60.456 134.151 60.0684 134.636 59.6236L134.394 59.3592ZM140.278 62.6L139.949 62.7311C140.181 63.3184 140.356 63.9272 140.469 64.5486L140.818 64.4819C140.704 63.8341 140.526 63.1994 140.285 62.5874L140.278 62.6ZM128.839 57.1154L128.706 57.152C128.096 57.2941 127.524 57.5676 127.03 57.9535L127.26 58.2282C127.713 57.8752 128.237 57.6256 128.796 57.4972L128.921 57.4667L128.839 57.1154ZM141.036 66.4121L140.68 66.4317C140.713 67.0754 140.718 67.7204 140.694 68.3391L141.053 68.3536C141.077 67.7243 141.072 67.0686 141.036 66.4121ZM131.141 61.1885C130.559 61.3541 129.961 61.4569 129.357 61.4953L129.272 61.5035L129.292 61.8594L129.381 61.8535C130.007 61.8091 130.626 61.6975 131.227 61.5208L131.141 61.1885ZM126.544 59.7657L126.19 59.8025C126.234 60.1509 126.362 60.4834 126.563 60.7716C126.764 61.0597 127.031 61.2949 127.343 61.4571L127.511 61.1426C127.253 61.0059 127.03 60.8098 126.862 60.5705C126.694 60.3312 126.585 60.0554 126.544 59.7657ZM140.872 70.2916L140.52 70.2432C140.432 70.8735 140.311 71.4988 140.158 72.1165L140.501 72.2029C140.663 71.5745 140.789 70.937 140.876 70.2938L140.872 70.2916ZM139.928 74.0658L139.591 73.9392C139.368 74.5355 139.111 75.1186 138.822 75.6859L139.137 75.8545C139.433 75.2734 139.698 74.6763 139.928 74.0658ZM137.864 77.3315C137.512 77.8673 137.132 78.3843 136.726 78.8804L137.003 79.1097C137.413 78.6068 137.798 78.0836 138.156 77.542L137.864 77.3315ZM135.448 80.2785C135.005 80.7214 134.531 81.1527 134.03 81.5641L134.261 81.8388C134.764 81.4232 135.258 80.9861 135.7 80.5326L135.448 80.2785ZM132.516 82.7277C132.001 83.0834 131.455 83.4275 130.888 83.7498L131.069 84.0572C131.634 83.7285 132.189 83.3782 132.708 83.0141L132.516 82.7277ZM129.209 84.6576C128.643 84.9373 128.055 85.1994 127.46 85.4421L127.596 85.7737C128.196 85.529 128.793 85.2609 129.366 84.9792L129.209 84.6576ZM125.664 86.1146C125.058 86.3293 124.446 86.5035 123.829 86.6689L123.919 87.0141C124.549 86.8448 125.187 86.6629 125.776 86.4498L125.664 86.1146ZM121.96 87.1137C121.35 87.2453 120.704 87.3525 120.075 87.4474L120.125 87.7979C120.762 87.7075 121.406 87.5939 122.033 87.4606L121.96 87.1137Z" fill="#B6B4B4"/>
<path d="M78.82 79.5991C78.9972 80.0533 79.1787 80.5015 79.3645 80.9439L78.8538 81.1615L78.306 79.7963L78.82 79.5991Z" fill="#263238"/>
<path d="M128.088 38.3465C127.644 38.1008 127.187 37.8794 126.719 37.6834L126.507 38.2044C126.507 38.2044 127.022 38.4127 127.823 38.8384L128.088 38.3465Z" fill="#B6B4B4"/>
<path d="M121.326 34.8035C122.803 32.1759 128.734 34.4193 126.801 37.8634C124.868 41.3074 119.835 37.4493 121.326 34.8035Z" fill="#263238"/>
<path d="M130.717 35.5113C130.923 34.2628 129.387 32.9508 126.85 32.9002C125.073 32.9407 123.32 33.3205 121.685 34.0189C122.999 35.2027 124.528 36.1241 126.189 36.7333C128.669 37.5108 130.527 36.7896 130.717 35.5113Z" fill="#EBEBEB"/>
<path d="M121.703 34.0324C122.972 34.2988 124.249 34.5156 125.522 34.7385C126.795 34.9613 128.078 35.1451 129.361 35.3019C128.093 35.0356 126.815 34.8188 125.543 34.5959C124.27 34.3731 122.987 34.1893 121.703 34.0324Z" fill="#263238"/>
<path d="M128.501 33.9256C128.101 34.0194 127.706 34.137 127.319 34.2778C126.937 34.4187 126.564 34.5831 126.202 34.7699C126.603 34.676 126.997 34.5584 127.384 34.4176C127.767 34.2784 128.14 34.114 128.501 33.9256Z" fill="#263238"/>
<path d="M124.922 34.5707C125.192 34.8996 125.479 35.2138 125.783 35.5121C126.091 35.8103 126.414 36.0921 126.752 36.3561C126.203 35.7014 125.59 35.1032 124.922 34.5707Z" fill="#263238"/>
<path d="M124.687 33.787C124.29 33.8945 123.921 34.0879 123.608 34.3534C124.004 34.2459 124.373 34.0525 124.687 33.787Z" fill="#263238"/>
<path d="M126.904 42.428C125.941 43.2547 124.031 42.6233 122.671 40.4853C121.782 38.942 121.196 37.2429 120.945 35.4796C122.648 35.9987 124.236 36.8401 125.621 37.9579C127.537 39.6118 127.895 41.5755 126.904 42.428Z" fill="#EBEBEB"/>
<path d="M120.944 35.4799C121.832 36.4224 122.679 37.4089 123.523 38.3849C124.368 39.361 125.2 40.3552 125.985 41.362C125.104 40.4239 124.257 39.4374 123.412 38.4614C122.567 37.4853 121.748 36.4999 120.944 35.4799Z" fill="#263238"/>
<path d="M124.383 41.3533C124.256 40.9743 124.15 40.5884 124.067 40.1975C123.991 39.7967 123.936 39.3922 123.903 38.9857C124.035 39.3631 124.141 39.7493 124.219 40.1415C124.297 40.5419 124.352 40.9465 124.383 41.3533Z" fill="#263238"/>
<path d="M123.064 37.9485C123.909 38.0757 124.739 38.2916 125.539 38.5928C124.693 38.4692 123.863 38.2532 123.064 37.9485Z" fill="#263238"/>
<path d="M122.301 38.1704C122.241 37.9758 122.204 37.7748 122.191 37.5716C122.181 37.3658 122.191 37.1595 122.222 36.9558C122.281 37.1527 122.317 37.3556 122.328 37.5607C122.348 37.7642 122.339 37.9695 122.301 38.1704Z" fill="#263238"/>
<path d="M121.326 34.8042C121.514 34.9102 121.729 34.9581 121.945 34.9419C122.16 34.9258 122.365 34.8462 122.536 34.7133C122.706 34.5804 122.833 34.4001 122.9 34.1951C122.968 33.9902 122.974 33.7697 122.916 33.5616C122.859 33.3536 122.741 33.1671 122.578 33.0259C122.415 32.8846 122.213 32.7949 121.999 32.7679C121.785 32.741 121.568 32.7781 121.374 32.8745C121.181 32.971 121.021 33.1225 120.914 33.3099C120.772 33.5629 120.735 33.862 120.812 34.1419C120.889 34.4218 121.074 34.6598 121.326 34.8042Z" fill="#455A64"/>
<path d="M120.25 36.7155C120.375 36.7861 120.514 36.8314 120.656 36.8486C120.799 36.8659 120.944 36.8548 121.083 36.8161C121.222 36.7773 121.351 36.7116 121.465 36.6228C121.578 36.5339 121.673 36.4236 121.743 36.2981C121.814 36.1727 121.859 36.0345 121.877 35.8916C121.894 35.7486 121.883 35.6037 121.844 35.465C121.805 35.3263 121.74 35.1966 121.651 35.0833C121.562 34.97 121.451 34.8754 121.326 34.8047C121.073 34.662 120.773 34.6258 120.493 34.7041C120.213 34.7823 119.975 34.9686 119.833 35.222C119.69 35.4754 119.654 35.7751 119.732 36.0552C119.81 36.3352 119.997 36.5728 120.25 36.7155Z" fill="#455A64"/>
</svg>
