<svg width="25" height="27" viewBox="0 0 25 27" fill="none" xmlns="http://www.w3.org/2000/svg">
<path d="M13.69 1.57178C13.615 1.59456 11.6038 2.55107 9.22233 3.69888L4.89062 5.78499L5.59851 5.79865L6.3064 5.81232L11.0507 4.55063C13.6619 3.8583 15.8043 3.28439 15.8183 3.27073C15.8277 3.26162 15.6965 2.97922 15.523 2.64217C15.162 1.95439 14.9558 1.7312 14.5479 1.60367C14.2901 1.52168 13.915 1.50802 13.69 1.57178Z" fill="#5EEAD4"/>
<path d="M18.5139 3.33466C18.4623 3.34832 16.3762 3.89945 13.8728 4.5599C11.3741 5.22491 9.32073 5.77604 9.30667 5.78515C9.29729 5.79881 11.8101 5.80792 14.8948 5.80792C17.9795 5.80792 20.5063 5.79426 20.5063 5.77604C20.5063 5.67128 20.0562 4.15908 19.9859 4.02243C19.864 3.78558 19.6249 3.56695 19.3624 3.44853C19.1421 3.34832 18.692 3.28455 18.5139 3.33466Z" fill="#5EEAD4"/>
<path d="M1.74972 6.71882C1.44969 6.76892 1.19654 6.90557 0.976204 7.13786C0.596476 7.53868 0.624604 6.81447 0.638668 15.3957L0.652732 23.0478L0.755868 23.2346C0.812124 23.3393 0.957452 23.5079 1.07465 23.6081C1.49188 23.9679 0.530844 23.936 12.0211 23.9269L22.3113 23.9132L22.5082 23.8085C22.7801 23.6718 23.0285 23.4168 23.1504 23.1663C23.2442 22.9658 23.2489 22.8839 23.2629 20.9389L23.277 18.9257H19.1141C15.1715 18.9257 14.9371 18.9212 14.6464 18.8392C13.8916 18.6251 13.3385 18.0967 13.0712 17.3315C12.9915 17.1038 12.9822 16.9216 12.9822 15.2819C12.9822 13.5283 12.9869 13.4736 13.09 13.1821C13.3572 12.4306 13.9901 11.8566 14.7402 11.6881C14.8761 11.6562 16.4138 11.638 19.1141 11.638H23.2723V9.75688C23.2723 7.68444 23.2629 7.58879 22.991 7.2244C22.7941 6.96478 22.4847 6.78259 22.1284 6.72337C21.7862 6.66416 2.10601 6.65961 1.74972 6.71882Z" fill="#14B8A6"/>
<path d="M14.7211 12.5945C14.407 12.713 14.1069 13.009 13.9897 13.3142C13.896 13.551 13.8913 13.6512 13.9053 15.3456L13.9194 17.1266L14.0366 17.3452C14.1632 17.5957 14.3648 17.7825 14.6601 17.9328L14.857 18.0375H19.2637H23.6704L23.9236 17.9009C24.0596 17.828 24.2424 17.6868 24.3315 17.5912C24.6221 17.2541 24.6315 17.1903 24.6315 15.2409C24.6315 13.4964 24.6315 13.4827 24.519 13.255C24.4065 13.0181 24.1392 12.7494 23.872 12.6082C23.7267 12.5308 23.4595 12.5262 19.334 12.5171C15.0961 12.508 14.9414 12.508 14.7211 12.5945ZM17.6136 14.5258C17.6979 14.5577 17.8151 14.6442 17.8808 14.708C17.9839 14.8218 17.998 14.881 18.012 15.2591C18.0402 15.9697 17.8714 16.1473 17.1448 16.1473C16.751 16.1473 16.7041 16.1382 16.5681 16.0289C16.3478 15.8467 16.2869 15.6918 16.2869 15.3183C16.2869 14.8947 16.3806 14.7034 16.6619 14.5622C16.9057 14.4438 17.3698 14.4256 17.6136 14.5258Z" fill="#0F766E"/>
</svg>
